<?xml version="1.0" encoding="utf-8" standalone="no"?>
<!DOCTYPE svg PUBLIC "-//W3C//DTD SVG 1.1//EN"
  "http://www.w3.org/Graphics/SVG/1.1/DTD/svg11.dtd">
<!-- Created with matplotlib (http://matplotlib.org/) -->
<svg height="446pt" version="1.1" viewBox="0 0 516 446" width="516pt" xmlns="http://www.w3.org/2000/svg" xmlns:xlink="http://www.w3.org/1999/xlink">
 <defs>
  <style type="text/css">
*{stroke-linecap:butt;stroke-linejoin:round;}
  </style>
 </defs>
 <g id="figure_1">
  <g id="patch_1">
   <path d="
M0 446.217
L516.517 446.217
L516.517 0
L0 0
z
" style="fill:#ffffff;"/>
  </g>
  <g id="axes_1">
   <g id="patch_2">
    <path d="
M35.0584 368.283
L481.458 368.283
L481.458 22.6828
L35.0584 22.6828
z
" style="fill:#ffffff;"/>
   </g>
   <g id="line2d_1">
    <path clip-path="url(#p245767502f)" d="
M45.9462 69.9375
L45.9462 82.9354" style="fill:none;stroke:#0000ff;stroke-dasharray:6.000000,6.000000;stroke-dashoffset:0.0;"/>
   </g>
   <g id="line2d_2">
    <path clip-path="url(#p245767502f)" d="
M45.9462 59.7438
L45.9462 53.9838" style="fill:none;stroke:#0000ff;stroke-dasharray:6.000000,6.000000;stroke-dashoffset:0.0;"/>
   </g>
   <g id="line2d_3">
    <path clip-path="url(#p245767502f)" d="
M43.2242 53.9838
L48.6681 53.9838" style="fill:none;stroke:#000000;stroke-linecap:square;"/>
   </g>
   <g id="line2d_4">
    <path clip-path="url(#p245767502f)" d="
M43.2242 82.9354
L48.6681 82.9354" style="fill:none;stroke:#000000;stroke-linecap:square;"/>
   </g>
   <g id="line2d_5">
    <path clip-path="url(#p245767502f)" d="
M40.5023 69.9375
L51.3901 69.9375
L51.3901 59.7438
L40.5023 59.7438
L40.5023 69.9375" style="fill:none;stroke:#0000ff;stroke-linecap:square;"/>
   </g>
   <g id="line2d_6">
    <path clip-path="url(#p245767502f)" d="
M40.5023 63.5333
L51.3901 63.5333" style="fill:none;stroke:#ff0000;stroke-linecap:square;"/>
   </g>
   <g id="line2d_7"/>
   <g id="line2d_8"/>
   <g id="line2d_9">
    <path clip-path="url(#p245767502f)" d="
M67.7218 66.9438
L67.7218 67.3228" style="fill:none;stroke:#0000ff;stroke-dasharray:6.000000,6.000000;stroke-dashoffset:0.0;"/>
   </g>
   <g id="line2d_10">
    <path clip-path="url(#p245767502f)" d="
M67.7218 62.567
L67.7218 61.1838" style="fill:none;stroke:#0000ff;stroke-dasharray:6.000000,6.000000;stroke-dashoffset:0.0;"/>
   </g>
   <g id="line2d_11">
    <path clip-path="url(#p245767502f)" d="
M64.9998 61.1838
L70.4437 61.1838" style="fill:none;stroke:#000000;stroke-linecap:square;"/>
   </g>
   <g id="line2d_12">
    <path clip-path="url(#p245767502f)" d="
M64.9998 67.3228
L70.4437 67.3228" style="fill:none;stroke:#000000;stroke-linecap:square;"/>
   </g>
   <g id="line2d_13">
    <path clip-path="url(#p245767502f)" d="
M62.2779 66.9438
L73.1657 66.9438
L73.1657 62.567
L62.2779 62.567
L62.2779 66.9438" style="fill:none;stroke:#0000ff;stroke-linecap:square;"/>
   </g>
   <g id="line2d_14">
    <path clip-path="url(#p245767502f)" d="
M62.2779 65.3522
L73.1657 65.3522" style="fill:none;stroke:#ff0000;stroke-linecap:square;"/>
   </g>
   <g id="line2d_15"/>
   <g id="line2d_16"/>
   <g id="line2d_17">
    <path clip-path="url(#p245767502f)" d="
M89.4974 71.0175
L89.4974 71.9459" style="fill:none;stroke:#0000ff;stroke-dasharray:6.000000,6.000000;stroke-dashoffset:0.0;"/>
   </g>
   <g id="line2d_18">
    <path clip-path="url(#p245767502f)" d="
M89.4974 68.5543
L89.4974 65.6554" style="fill:none;stroke:#0000ff;stroke-dasharray:6.000000,6.000000;stroke-dashoffset:0.0;"/>
   </g>
   <g id="line2d_19">
    <path clip-path="url(#p245767502f)" d="
M86.7754 65.6554
L92.2194 65.6554" style="fill:none;stroke:#000000;stroke-linecap:square;"/>
   </g>
   <g id="line2d_20">
    <path clip-path="url(#p245767502f)" d="
M86.7754 71.9459
L92.2194 71.9459" style="fill:none;stroke:#000000;stroke-linecap:square;"/>
   </g>
   <g id="line2d_21">
    <path clip-path="url(#p245767502f)" d="
M84.0535 71.0175
L94.9413 71.0175
L94.9413 68.5543
L84.0535 68.5543
L84.0535 71.0175" style="fill:none;stroke:#0000ff;stroke-linecap:square;"/>
   </g>
   <g id="line2d_22">
    <path clip-path="url(#p245767502f)" d="
M84.0535 70.1649
L94.9413 70.1649" style="fill:none;stroke:#ff0000;stroke-linecap:square;"/>
   </g>
   <g id="line2d_23">
    <defs>
     <path d="
M-3 0
L3 0
M0 3
L0 -3" id="md4acab13e0" style="stroke:#0000ff;stroke-width:0.5;"/>
    </defs>
    <g clip-path="url(#p245767502f)">
     <use style="fill:#0000ff;stroke:#0000ff;stroke-width:0.5;" x="89.4973993902" xlink:href="#md4acab13e0" y="61.0322236842"/>
    </g>
   </g>
   <g id="line2d_24"/>
   <g id="line2d_25">
    <path clip-path="url(#p245767502f)" d="
M111.273 77.8385
L111.273 80.7375" style="fill:none;stroke:#0000ff;stroke-dasharray:6.000000,6.000000;stroke-dashoffset:0.0;"/>
   </g>
   <g id="line2d_26">
    <path clip-path="url(#p245767502f)" d="
M111.273 71.4722
L111.273 68.4596" style="fill:none;stroke:#0000ff;stroke-dasharray:6.000000,6.000000;stroke-dashoffset:0.0;"/>
   </g>
   <g id="line2d_27">
    <path clip-path="url(#p245767502f)" d="
M108.551 68.4596
L113.995 68.4596" style="fill:none;stroke:#000000;stroke-linecap:square;"/>
   </g>
   <g id="line2d_28">
    <path clip-path="url(#p245767502f)" d="
M108.551 80.7375
L113.995 80.7375" style="fill:none;stroke:#000000;stroke-linecap:square;"/>
   </g>
   <g id="line2d_29">
    <path clip-path="url(#p245767502f)" d="
M105.829 77.8385
L116.717 77.8385
L116.717 71.4722
L105.829 71.4722
L105.829 77.8385" style="fill:none;stroke:#0000ff;stroke-linecap:square;"/>
   </g>
   <g id="line2d_30">
    <path clip-path="url(#p245767502f)" d="
M105.829 73.1964
L116.717 73.1964" style="fill:none;stroke:#ff0000;stroke-linecap:square;"/>
   </g>
   <g id="line2d_31"/>
   <g id="line2d_32"/>
   <g id="line2d_33">
    <path clip-path="url(#p245767502f)" d="
M133.049 75.4322
L133.049 79.4491" style="fill:none;stroke:#0000ff;stroke-dasharray:6.000000,6.000000;stroke-dashoffset:0.0;"/>
   </g>
   <g id="line2d_34">
    <path clip-path="url(#p245767502f)" d="
M133.049 71.2449
L133.049 67.7775" style="fill:none;stroke:#0000ff;stroke-dasharray:6.000000,6.000000;stroke-dashoffset:0.0;"/>
   </g>
   <g id="line2d_35">
    <path clip-path="url(#p245767502f)" d="
M130.327 67.7775
L135.771 67.7775" style="fill:none;stroke:#000000;stroke-linecap:square;"/>
   </g>
   <g id="line2d_36">
    <path clip-path="url(#p245767502f)" d="
M130.327 79.4491
L135.771 79.4491" style="fill:none;stroke:#000000;stroke-linecap:square;"/>
   </g>
   <g id="line2d_37">
    <path clip-path="url(#p245767502f)" d="
M127.605 75.4322
L138.493 75.4322
L138.493 71.2449
L127.605 71.2449
L127.605 75.4322" style="fill:none;stroke:#0000ff;stroke-linecap:square;"/>
   </g>
   <g id="line2d_38">
    <path clip-path="url(#p245767502f)" d="
M127.605 73.8406
L138.493 73.8406" style="fill:none;stroke:#ff0000;stroke-linecap:square;"/>
   </g>
   <g id="line2d_39">
    <g clip-path="url(#p245767502f)">
     <use style="fill:#0000ff;stroke:#0000ff;stroke-width:0.5;" x="133.048618902" xlink:href="#md4acab13e0" y="64.1395921053"/>
    </g>
   </g>
   <g id="line2d_40">
    <g clip-path="url(#p245767502f)">
     <use style="fill:#0000ff;stroke:#0000ff;stroke-width:0.5;" x="133.048618902" xlink:href="#md4acab13e0" y="84.5269605263"/>
    </g>
   </g>
   <g id="line2d_41">
    <path clip-path="url(#p245767502f)" d="
M154.824 101.447
L154.824 109.159" style="fill:none;stroke:#0000ff;stroke-dasharray:6.000000,6.000000;stroke-dashoffset:0.0;"/>
   </g>
   <g id="line2d_42">
    <path clip-path="url(#p245767502f)" d="
M154.824 94.9859
L154.824 87.7859" style="fill:none;stroke:#0000ff;stroke-dasharray:6.000000,6.000000;stroke-dashoffset:0.0;"/>
   </g>
   <g id="line2d_43">
    <path clip-path="url(#p245767502f)" d="
M152.102 87.7859
L157.546 87.7859" style="fill:none;stroke:#000000;stroke-linecap:square;"/>
   </g>
   <g id="line2d_44">
    <path clip-path="url(#p245767502f)" d="
M152.102 109.159
L157.546 109.159" style="fill:none;stroke:#000000;stroke-linecap:square;"/>
   </g>
   <g id="line2d_45">
    <path clip-path="url(#p245767502f)" d="
M149.38 101.447
L160.268 101.447
L160.268 94.9859
L149.38 94.9859
L149.38 101.447" style="fill:none;stroke:#0000ff;stroke-linecap:square;"/>
   </g>
   <g id="line2d_46">
    <path clip-path="url(#p245767502f)" d="
M149.38 96.1227
L160.268 96.1227" style="fill:none;stroke:#ff0000;stroke-linecap:square;"/>
   </g>
   <g id="line2d_47"/>
   <g id="line2d_48"/>
   <g id="line2d_49">
    <path clip-path="url(#p245767502f)" d="
M176.6 99.0785
L176.6 100.14" style="fill:none;stroke:#0000ff;stroke-dasharray:6.000000,6.000000;stroke-dashoffset:0.0;"/>
   </g>
   <g id="line2d_50">
    <path clip-path="url(#p245767502f)" d="
M176.6 95.7249
L176.6 92.2575" style="fill:none;stroke:#0000ff;stroke-dasharray:6.000000,6.000000;stroke-dashoffset:0.0;"/>
   </g>
   <g id="line2d_51">
    <path clip-path="url(#p245767502f)" d="
M173.878 92.2575
L179.322 92.2575" style="fill:none;stroke:#000000;stroke-linecap:square;"/>
   </g>
   <g id="line2d_52">
    <path clip-path="url(#p245767502f)" d="
M173.878 100.14
L179.322 100.14" style="fill:none;stroke:#000000;stroke-linecap:square;"/>
   </g>
   <g id="line2d_53">
    <path clip-path="url(#p245767502f)" d="
M171.156 99.0785
L182.044 99.0785
L182.044 95.7249
L171.156 95.7249
L171.156 99.0785" style="fill:none;stroke:#0000ff;stroke-linecap:square;"/>
   </g>
   <g id="line2d_54">
    <path clip-path="url(#p245767502f)" d="
M171.156 97.6006
L182.044 97.6006" style="fill:none;stroke:#ff0000;stroke-linecap:square;"/>
   </g>
   <g id="line2d_55"/>
   <g id="line2d_56"/>
   <g id="line2d_57">
    <path clip-path="url(#p245767502f)" d="
M198.375 104.043
L198.375 104.687" style="fill:none;stroke:#0000ff;stroke-dasharray:6.000000,6.000000;stroke-dashoffset:0.0;"/>
   </g>
   <g id="line2d_58">
    <path clip-path="url(#p245767502f)" d="
M198.375 98.927
L198.375 96.1985" style="fill:none;stroke:#0000ff;stroke-dasharray:6.000000,6.000000;stroke-dashoffset:0.0;"/>
   </g>
   <g id="line2d_59">
    <path clip-path="url(#p245767502f)" d="
M195.653 96.1985
L201.097 96.1985" style="fill:none;stroke:#000000;stroke-linecap:square;"/>
   </g>
   <g id="line2d_60">
    <path clip-path="url(#p245767502f)" d="
M195.653 104.687
L201.097 104.687" style="fill:none;stroke:#000000;stroke-linecap:square;"/>
   </g>
   <g id="line2d_61">
    <path clip-path="url(#p245767502f)" d="
M192.932 104.043
L203.819 104.043
L203.819 98.927
L192.932 98.927
L192.932 104.043" style="fill:none;stroke:#0000ff;stroke-linecap:square;"/>
   </g>
   <g id="line2d_62">
    <path clip-path="url(#p245767502f)" d="
M192.932 100.329
L203.819 100.329" style="fill:none;stroke:#ff0000;stroke-linecap:square;"/>
   </g>
   <g id="line2d_63"/>
   <g id="line2d_64"/>
   <g id="line2d_65">
    <path clip-path="url(#p245767502f)" d="
M220.151 102.489
L220.151 104.156" style="fill:none;stroke:#0000ff;stroke-dasharray:6.000000,6.000000;stroke-dashoffset:0.0;"/>
   </g>
   <g id="line2d_66">
    <path clip-path="url(#p245767502f)" d="
M220.151 99.268
L220.151 94.7585" style="fill:none;stroke:#0000ff;stroke-dasharray:6.000000,6.000000;stroke-dashoffset:0.0;"/>
   </g>
   <g id="line2d_67">
    <path clip-path="url(#p245767502f)" d="
M217.429 94.7585
L222.873 94.7585" style="fill:none;stroke:#000000;stroke-linecap:square;"/>
   </g>
   <g id="line2d_68">
    <path clip-path="url(#p245767502f)" d="
M217.429 104.156
L222.873 104.156" style="fill:none;stroke:#000000;stroke-linecap:square;"/>
   </g>
   <g id="line2d_69">
    <path clip-path="url(#p245767502f)" d="
M214.707 102.489
L225.595 102.489
L225.595 99.268
L214.707 99.268
L214.707 102.489" style="fill:none;stroke:#0000ff;stroke-linecap:square;"/>
   </g>
   <g id="line2d_70">
    <path clip-path="url(#p245767502f)" d="
M214.707 100.67
L225.595 100.67" style="fill:none;stroke:#ff0000;stroke-linecap:square;"/>
   </g>
   <g id="line2d_71"/>
   <g id="line2d_72"/>
   <g id="line2d_73">
    <path clip-path="url(#p245767502f)" d="
M241.927 116.472
L241.927 117.42" style="fill:none;stroke:#0000ff;stroke-dasharray:6.000000,6.000000;stroke-dashoffset:0.0;"/>
   </g>
   <g id="line2d_74">
    <path clip-path="url(#p245767502f)" d="
M241.927 112.759
L241.927 111.053" style="fill:none;stroke:#0000ff;stroke-dasharray:6.000000,6.000000;stroke-dashoffset:0.0;"/>
   </g>
   <g id="line2d_75">
    <path clip-path="url(#p245767502f)" d="
M239.205 111.053
L244.649 111.053" style="fill:none;stroke:#000000;stroke-linecap:square;"/>
   </g>
   <g id="line2d_76">
    <path clip-path="url(#p245767502f)" d="
M239.205 117.42
L244.649 117.42" style="fill:none;stroke:#000000;stroke-linecap:square;"/>
   </g>
   <g id="line2d_77">
    <path clip-path="url(#p245767502f)" d="
M236.483 116.472
L247.371 116.472
L247.371 112.759
L236.483 112.759
L236.483 116.472" style="fill:none;stroke:#0000ff;stroke-linecap:square;"/>
   </g>
   <g id="line2d_78">
    <path clip-path="url(#p245767502f)" d="
M236.483 114.54
L247.371 114.54" style="fill:none;stroke:#ff0000;stroke-linecap:square;"/>
   </g>
   <g id="line2d_79"/>
   <g id="line2d_80"/>
   <g id="line2d_81">
    <path clip-path="url(#p245767502f)" d="
M263.702 119.466
L263.702 120.603" style="fill:none;stroke:#0000ff;stroke-dasharray:6.000000,6.000000;stroke-dashoffset:0.0;"/>
   </g>
   <g id="line2d_82">
    <path clip-path="url(#p245767502f)" d="
M263.702 117.363
L263.702 115.828" style="fill:none;stroke:#0000ff;stroke-dasharray:6.000000,6.000000;stroke-dashoffset:0.0;"/>
   </g>
   <g id="line2d_83">
    <path clip-path="url(#p245767502f)" d="
M260.98 115.828
L266.424 115.828" style="fill:none;stroke:#000000;stroke-linecap:square;"/>
   </g>
   <g id="line2d_84">
    <path clip-path="url(#p245767502f)" d="
M260.98 120.603
L266.424 120.603" style="fill:none;stroke:#000000;stroke-linecap:square;"/>
   </g>
   <g id="line2d_85">
    <path clip-path="url(#p245767502f)" d="
M258.258 119.466
L269.146 119.466
L269.146 117.363
L258.258 117.363
L258.258 119.466" style="fill:none;stroke:#0000ff;stroke-linecap:square;"/>
   </g>
   <g id="line2d_86">
    <path clip-path="url(#p245767502f)" d="
M258.258 118.329
L269.146 118.329" style="fill:none;stroke:#ff0000;stroke-linecap:square;"/>
   </g>
   <g id="line2d_87"/>
   <g id="line2d_88">
    <g clip-path="url(#p245767502f)">
     <use style="fill:#0000ff;stroke:#0000ff;stroke-width:0.5;" x="263.702277439" xlink:href="#md4acab13e0" y="123.103802632"/>
    </g>
   </g>
   <g id="line2d_89">
    <path clip-path="url(#p245767502f)" d="
M285.478 140.213
L285.478 141.975" style="fill:none;stroke:#0000ff;stroke-dasharray:6.000000,6.000000;stroke-dashoffset:0.0;"/>
   </g>
   <g id="line2d_90">
    <path clip-path="url(#p245767502f)" d="
M285.478 136.083
L285.478 134.927" style="fill:none;stroke:#0000ff;stroke-dasharray:6.000000,6.000000;stroke-dashoffset:0.0;"/>
   </g>
   <g id="line2d_91">
    <path clip-path="url(#p245767502f)" d="
M282.756 134.927
L288.2 134.927" style="fill:none;stroke:#000000;stroke-linecap:square;"/>
   </g>
   <g id="line2d_92">
    <path clip-path="url(#p245767502f)" d="
M282.756 141.975
L288.2 141.975" style="fill:none;stroke:#000000;stroke-linecap:square;"/>
   </g>
   <g id="line2d_93">
    <path clip-path="url(#p245767502f)" d="
M280.034 140.213
L290.922 140.213
L290.922 136.083
L280.034 136.083
L280.034 140.213" style="fill:none;stroke:#0000ff;stroke-linecap:square;"/>
   </g>
   <g id="line2d_94">
    <path clip-path="url(#p245767502f)" d="
M280.034 139.74
L290.922 139.74" style="fill:none;stroke:#ff0000;stroke-linecap:square;"/>
   </g>
   <g id="line2d_95"/>
   <g id="line2d_96"/>
   <g id="line2d_97">
    <path clip-path="url(#p245767502f)" d="
M307.253 143.529
L307.253 144.022" style="fill:none;stroke:#0000ff;stroke-dasharray:6.000000,6.000000;stroke-dashoffset:0.0;"/>
   </g>
   <g id="line2d_98">
    <path clip-path="url(#p245767502f)" d="
M307.253 140.63
L307.253 137.504" style="fill:none;stroke:#0000ff;stroke-dasharray:6.000000,6.000000;stroke-dashoffset:0.0;"/>
   </g>
   <g id="line2d_99">
    <path clip-path="url(#p245767502f)" d="
M304.532 137.504
L309.975 137.504" style="fill:none;stroke:#000000;stroke-linecap:square;"/>
   </g>
   <g id="line2d_100">
    <path clip-path="url(#p245767502f)" d="
M304.532 144.022
L309.975 144.022" style="fill:none;stroke:#000000;stroke-linecap:square;"/>
   </g>
   <g id="line2d_101">
    <path clip-path="url(#p245767502f)" d="
M301.81 143.529
L312.697 143.529
L312.697 140.63
L301.81 140.63
L301.81 143.529" style="fill:none;stroke:#0000ff;stroke-linecap:square;"/>
   </g>
   <g id="line2d_102">
    <path clip-path="url(#p245767502f)" d="
M301.81 141.217
L312.697 141.217" style="fill:none;stroke:#ff0000;stroke-linecap:square;"/>
   </g>
   <g id="line2d_103"/>
   <g id="line2d_104"/>
   <g id="line2d_105">
    <path clip-path="url(#p245767502f)" d="
M329.029 144.931
L329.029 147.129" style="fill:none;stroke:#0000ff;stroke-dasharray:6.000000,6.000000;stroke-dashoffset:0.0;"/>
   </g>
   <g id="line2d_106">
    <path clip-path="url(#p245767502f)" d="
M329.029 136.708
L329.029 132.274" style="fill:none;stroke:#0000ff;stroke-dasharray:6.000000,6.000000;stroke-dashoffset:0.0;"/>
   </g>
   <g id="line2d_107">
    <path clip-path="url(#p245767502f)" d="
M326.307 132.274
L331.751 132.274" style="fill:none;stroke:#000000;stroke-linecap:square;"/>
   </g>
   <g id="line2d_108">
    <path clip-path="url(#p245767502f)" d="
M326.307 147.129
L331.751 147.129" style="fill:none;stroke:#000000;stroke-linecap:square;"/>
   </g>
   <g id="line2d_109">
    <path clip-path="url(#p245767502f)" d="
M323.585 144.931
L334.473 144.931
L334.473 136.708
L323.585 136.708
L323.585 144.931" style="fill:none;stroke:#0000ff;stroke-linecap:square;"/>
   </g>
   <g id="line2d_110">
    <path clip-path="url(#p245767502f)" d="
M323.585 142.127
L334.473 142.127" style="fill:none;stroke:#ff0000;stroke-linecap:square;"/>
   </g>
   <g id="line2d_111"/>
   <g id="line2d_112"/>
   <g id="line2d_113">
    <path clip-path="url(#p245767502f)" d="
M350.805 196.279
L350.805 211.777" style="fill:none;stroke:#0000ff;stroke-dasharray:6.000000,6.000000;stroke-dashoffset:0.0;"/>
   </g>
   <g id="line2d_114">
    <path clip-path="url(#p245767502f)" d="
M350.805 174.963
L350.805 154.102" style="fill:none;stroke:#0000ff;stroke-dasharray:6.000000,6.000000;stroke-dashoffset:0.0;"/>
   </g>
   <g id="line2d_115">
    <path clip-path="url(#p245767502f)" d="
M348.083 154.102
L353.527 154.102" style="fill:none;stroke:#000000;stroke-linecap:square;"/>
   </g>
   <g id="line2d_116">
    <path clip-path="url(#p245767502f)" d="
M348.083 211.777
L353.527 211.777" style="fill:none;stroke:#000000;stroke-linecap:square;"/>
   </g>
   <g id="line2d_117">
    <path clip-path="url(#p245767502f)" d="
M345.361 196.279
L356.249 196.279
L356.249 174.963
L345.361 174.963
L345.361 196.279" style="fill:none;stroke:#0000ff;stroke-linecap:square;"/>
   </g>
   <g id="line2d_118">
    <path clip-path="url(#p245767502f)" d="
M345.361 189.382
L356.249 189.382" style="fill:none;stroke:#ff0000;stroke-linecap:square;"/>
   </g>
   <g id="line2d_119"/>
   <g id="line2d_120"/>
   <g id="line2d_121">
    <path clip-path="url(#p245767502f)" d="
M372.58 198.041
L372.58 201.167" style="fill:none;stroke:#0000ff;stroke-dasharray:6.000000,6.000000;stroke-dashoffset:0.0;"/>
   </g>
   <g id="line2d_122">
    <path clip-path="url(#p245767502f)" d="
M372.58 194.895
L372.58 190.632" style="fill:none;stroke:#0000ff;stroke-dasharray:6.000000,6.000000;stroke-dashoffset:0.0;"/>
   </g>
   <g id="line2d_123">
    <path clip-path="url(#p245767502f)" d="
M369.858 190.632
L375.302 190.632" style="fill:none;stroke:#000000;stroke-linecap:square;"/>
   </g>
   <g id="line2d_124">
    <path clip-path="url(#p245767502f)" d="
M369.858 201.167
L375.302 201.167" style="fill:none;stroke:#000000;stroke-linecap:square;"/>
   </g>
   <g id="line2d_125">
    <path clip-path="url(#p245767502f)" d="
M367.136 198.041
L378.024 198.041
L378.024 194.895
L367.136 194.895
L367.136 198.041" style="fill:none;stroke:#0000ff;stroke-linecap:square;"/>
   </g>
   <g id="line2d_126">
    <path clip-path="url(#p245767502f)" d="
M367.136 195.748
L378.024 195.748" style="fill:none;stroke:#ff0000;stroke-linecap:square;"/>
   </g>
   <g id="line2d_127"/>
   <g id="line2d_128"/>
   <g id="line2d_129">
    <path clip-path="url(#p245767502f)" d="
M394.356 241.184
L394.356 245.428" style="fill:none;stroke:#0000ff;stroke-dasharray:6.000000,6.000000;stroke-dashoffset:0.0;"/>
   </g>
   <g id="line2d_130">
    <path clip-path="url(#p245767502f)" d="
M394.356 229.645
L394.356 223.07" style="fill:none;stroke:#0000ff;stroke-dasharray:6.000000,6.000000;stroke-dashoffset:0.0;"/>
   </g>
   <g id="line2d_131">
    <path clip-path="url(#p245767502f)" d="
M391.634 223.07
L397.078 223.07" style="fill:none;stroke:#000000;stroke-linecap:square;"/>
   </g>
   <g id="line2d_132">
    <path clip-path="url(#p245767502f)" d="
M391.634 245.428
L397.078 245.428" style="fill:none;stroke:#000000;stroke-linecap:square;"/>
   </g>
   <g id="line2d_133">
    <path clip-path="url(#p245767502f)" d="
M388.912 241.184
L399.8 241.184
L399.8 229.645
L388.912 229.645
L388.912 241.184" style="fill:none;stroke:#0000ff;stroke-linecap:square;"/>
   </g>
   <g id="line2d_134">
    <path clip-path="url(#p245767502f)" d="
M388.912 235.083
L399.8 235.083" style="fill:none;stroke:#ff0000;stroke-linecap:square;"/>
   </g>
   <g id="line2d_135"/>
   <g id="line2d_136"/>
   <g id="line2d_137">
    <path clip-path="url(#p245767502f)" d="
M416.132 280.291
L416.132 298.708" style="fill:none;stroke:#0000ff;stroke-dasharray:6.000000,6.000000;stroke-dashoffset:0.0;"/>
   </g>
   <g id="line2d_138">
    <path clip-path="url(#p245767502f)" d="
M416.132 261.495
L416.132 252.855" style="fill:none;stroke:#0000ff;stroke-dasharray:6.000000,6.000000;stroke-dashoffset:0.0;"/>
   </g>
   <g id="line2d_139">
    <path clip-path="url(#p245767502f)" d="
M413.41 252.855
L418.853 252.855" style="fill:none;stroke:#000000;stroke-linecap:square;"/>
   </g>
   <g id="line2d_140">
    <path clip-path="url(#p245767502f)" d="
M413.41 298.708
L418.853 298.708" style="fill:none;stroke:#000000;stroke-linecap:square;"/>
   </g>
   <g id="line2d_141">
    <path clip-path="url(#p245767502f)" d="
M410.688 280.291
L421.575 280.291
L421.575 261.495
L410.688 261.495
L410.688 280.291" style="fill:none;stroke:#0000ff;stroke-linecap:square;"/>
   </g>
   <g id="line2d_142">
    <path clip-path="url(#p245767502f)" d="
M410.688 266.46
L421.575 266.46" style="fill:none;stroke:#ff0000;stroke-linecap:square;"/>
   </g>
   <g id="line2d_143"/>
   <g id="line2d_144">
    <g clip-path="url(#p245767502f)">
     <use style="fill:#0000ff;stroke:#0000ff;stroke-width:0.5;" x="416.131545732" xlink:href="#md4acab13e0" y="310.834328947"/>
    </g>
   </g>
   <g id="line2d_145">
    <path clip-path="url(#p245767502f)" d="
M437.907 277.525
L437.907 280.822" style="fill:none;stroke:#0000ff;stroke-dasharray:6.000000,6.000000;stroke-dashoffset:0.0;"/>
   </g>
   <g id="line2d_146">
    <path clip-path="url(#p245767502f)" d="
M437.907 271.594
L437.907 268.013" style="fill:none;stroke:#0000ff;stroke-dasharray:6.000000,6.000000;stroke-dashoffset:0.0;"/>
   </g>
   <g id="line2d_147">
    <path clip-path="url(#p245767502f)" d="
M435.185 268.013
L440.629 268.013" style="fill:none;stroke:#000000;stroke-linecap:square;"/>
   </g>
   <g id="line2d_148">
    <path clip-path="url(#p245767502f)" d="
M435.185 280.822
L440.629 280.822" style="fill:none;stroke:#000000;stroke-linecap:square;"/>
   </g>
   <g id="line2d_149">
    <path clip-path="url(#p245767502f)" d="
M432.463 277.525
L443.351 277.525
L443.351 271.594
L432.463 271.594
L432.463 277.525" style="fill:none;stroke:#0000ff;stroke-linecap:square;"/>
   </g>
   <g id="line2d_150">
    <path clip-path="url(#p245767502f)" d="
M432.463 274.91
L443.351 274.91" style="fill:none;stroke:#ff0000;stroke-linecap:square;"/>
   </g>
   <g id="line2d_151"/>
   <g id="line2d_152"/>
   <g id="line2d_153">
    <path clip-path="url(#p245767502f)" d="
M459.683 332.813
L459.683 334.935" style="fill:none;stroke:#0000ff;stroke-dasharray:6.000000,6.000000;stroke-dashoffset:0.0;"/>
   </g>
   <g id="line2d_154">
    <path clip-path="url(#p245767502f)" d="
M459.683 327.053
L459.683 322.506" style="fill:none;stroke:#0000ff;stroke-dasharray:6.000000,6.000000;stroke-dashoffset:0.0;"/>
   </g>
   <g id="line2d_155">
    <path clip-path="url(#p245767502f)" d="
M456.961 322.506
L462.405 322.506" style="fill:none;stroke:#000000;stroke-linecap:square;"/>
   </g>
   <g id="line2d_156">
    <path clip-path="url(#p245767502f)" d="
M456.961 334.935
L462.405 334.935" style="fill:none;stroke:#000000;stroke-linecap:square;"/>
   </g>
   <g id="line2d_157">
    <path clip-path="url(#p245767502f)" d="
M454.239 332.813
L465.127 332.813
L465.127 327.053
L454.239 327.053
L454.239 332.813" style="fill:none;stroke:#0000ff;stroke-linecap:square;"/>
   </g>
   <g id="line2d_158">
    <path clip-path="url(#p245767502f)" d="
M454.239 327.66
L465.127 327.66" style="fill:none;stroke:#ff0000;stroke-linecap:square;"/>
   </g>
   <g id="line2d_159"/>
   <g id="line2d_160"/>
   <g id="matplotlib.axis_1">
    <g id="xtick_1">
     <g id="line2d_161">
      <defs>
       <path d="
M0 0
L0 -4" id="m93b0483c22" style="stroke:#000000;stroke-width:0.5;"/>
      </defs>
      <g>
       <use style="stroke:#000000;stroke-width:0.5;" x="45.946179878" xlink:href="#m93b0483c22" y="368.28275"/>
      </g>
     </g>
     <g id="line2d_162">
      <defs>
       <path d="
M0 0
L0 4" id="m741efc42ff" style="stroke:#000000;stroke-width:0.5;"/>
      </defs>
      <g>
       <use style="stroke:#000000;stroke-width:0.5;" x="45.946179878" xlink:href="#m741efc42ff" y="22.68275"/>
      </g>
     </g>
     <g id="text_1">
      <!-- Soft Go By Majority -->
      <defs>
       <path d="
M40.4375 6.39062
Q35.5469 2.25 31.0312 0.53125
Q26.5156 -1.17188 21.3438 -1.17188
Q12.7969 -1.17188 8.20312 3
Q3.60938 7.17188 3.60938 13.6719
Q3.60938 17.4844 5.34375 20.625
Q7.07812 23.7812 9.89062 25.6875
Q12.7031 27.5938 16.2188 28.5625
Q18.7969 29.25 24.0312 29.8906
Q34.6719 31.1562 39.7031 32.9062
Q39.75 34.7188 39.75 35.2031
Q39.75 40.5781 37.25 42.7812
Q33.8906 45.75 27.25 45.75
Q21.0469 45.75 18.0938 43.5781
Q15.1406 41.4062 13.7188 35.8906
L5.125 37.0625
Q6.29688 42.5781 8.98438 45.9688
Q11.6719 49.3594 16.75 51.1875
Q21.8281 53.0312 28.5156 53.0312
Q35.1562 53.0312 39.2969 51.4688
Q43.4531 49.9062 45.4062 47.5312
Q47.3594 45.1719 48.1406 41.5469
Q48.5781 39.3125 48.5781 33.4531
L48.5781 21.7344
Q48.5781 9.46875 49.1406 6.21875
Q49.7031 2.98438 51.375 0
L42.1875 0
Q40.8281 2.73438 40.4375 6.39062
M39.7031 26.0312
Q34.9062 24.0781 25.3438 22.7031
Q19.9219 21.9219 17.6719 20.9375
Q15.4375 19.9688 14.2031 18.0938
Q12.9844 16.2188 12.9844 13.9219
Q12.9844 10.4062 15.6406 8.0625
Q18.3125 5.71875 23.4375 5.71875
Q28.5156 5.71875 32.4688 7.9375
Q36.4219 10.1562 38.2812 14.0156
Q39.7031 17 39.7031 22.7969
z
" id="ArialMT-61"/>
       <path d="
M8.6875 0
L8.6875 45.0156
L0.921875 45.0156
L0.921875 51.8594
L8.6875 51.8594
L8.6875 57.375
Q8.6875 62.5938 9.625 65.1406
Q10.8906 68.5625 14.0781 70.6719
Q17.2812 72.7969 23.0469 72.7969
Q26.7656 72.7969 31.25 71.9219
L29.9375 64.2656
Q27.2031 64.75 24.75 64.75
Q20.75 64.75 19.0938 63.0312
Q17.4375 61.3281 17.4375 56.6406
L17.4375 51.8594
L27.5469 51.8594
L27.5469 45.0156
L17.4375 45.0156
L17.4375 0
z
" id="ArialMT-66"/>
       <path d="
M25.7812 7.85938
L27.0469 0.09375
Q23.3438 -0.6875 20.4062 -0.6875
Q15.625 -0.6875 12.9844 0.828125
Q10.3594 2.34375 9.28125 4.8125
Q8.20312 7.28125 8.20312 15.1875
L8.20312 45.0156
L1.76562 45.0156
L1.76562 51.8594
L8.20312 51.8594
L8.20312 64.7031
L16.9375 69.9688
L16.9375 51.8594
L25.7812 51.8594
L25.7812 45.0156
L16.9375 45.0156
L16.9375 14.7031
Q16.9375 10.9375 17.4062 9.85938
Q17.875 8.79688 18.9219 8.15625
Q19.9688 7.51562 21.9219 7.51562
Q23.3906 7.51562 25.7812 7.85938" id="ArialMT-74"/>
       <path d="
M4.5 23
L13.4219 23.7812
Q14.0625 18.4062 16.375 14.9688
Q18.7031 11.5312 23.5781 9.40625
Q28.4688 7.28125 34.5781 7.28125
Q39.9844 7.28125 44.1406 8.89062
Q48.2969 10.5 50.3125 13.2969
Q52.3438 16.1094 52.3438 19.4375
Q52.3438 22.7969 50.3906 25.3125
Q48.4375 27.8281 43.9531 29.5469
Q41.0625 30.6719 31.2031 33.0312
Q21.3438 35.4062 17.3906 37.5
Q12.25 40.1875 9.73438 44.1562
Q7.23438 48.1406 7.23438 53.0781
Q7.23438 58.5 10.2969 63.2031
Q13.375 67.9219 19.2812 70.3594
Q25.2031 72.7969 32.4219 72.7969
Q40.375 72.7969 46.4531 70.2344
Q52.5469 67.6719 55.8125 62.6875
Q59.0781 57.7188 59.3281 51.4219
L50.25 50.7344
Q49.5156 57.5156 45.2812 60.9844
Q41.0625 64.4531 32.8125 64.4531
Q24.2188 64.4531 20.2812 61.2969
Q16.3594 58.1562 16.3594 53.7188
Q16.3594 49.8594 19.1406 47.3594
Q21.875 44.875 33.4219 42.2656
Q44.9688 39.6562 49.2656 37.7031
Q55.5156 34.8125 58.4844 30.3906
Q61.4688 25.9844 61.4688 20.2188
Q61.4688 14.5 58.2031 9.4375
Q54.9375 4.39062 48.7969 1.57812
Q42.6719 -1.21875 35.0156 -1.21875
Q25.2969 -1.21875 18.7188 1.60938
Q12.1562 4.4375 8.42188 10.125
Q4.6875 15.8281 4.5 23" id="ArialMT-53"/>
       <path d="
M6.64062 61.4688
L6.64062 71.5781
L15.4375 71.5781
L15.4375 61.4688
z

M6.64062 0
L6.64062 51.8594
L15.4375 51.8594
L15.4375 0
z
" id="ArialMT-69"/>
       <path d="
M7.32812 0
L7.32812 71.5781
L34.1875 71.5781
Q42.3906 71.5781 47.3438 69.4062
Q52.2969 67.2344 55.0938 62.7188
Q57.9062 58.2031 57.9062 53.2656
Q57.9062 48.6875 55.4219 44.625
Q52.9375 40.5781 47.9062 38.0938
Q54.3906 36.1875 57.875 31.5938
Q61.375 27 61.375 20.75
Q61.375 15.7188 59.25 11.3906
Q57.125 7.07812 54 4.73438
Q50.875 2.39062 46.1562 1.1875
Q41.4531 0 34.625 0
z

M16.7969 41.5
L32.2812 41.5
Q38.5781 41.5 41.3125 42.3281
Q44.9219 43.4062 46.75 45.8906
Q48.5781 48.3906 48.5781 52.1562
Q48.5781 55.7188 46.875 58.4219
Q45.1719 61.1406 41.9844 62.1406
Q38.8125 63.1406 31.1094 63.1406
L16.7969 63.1406
z

M16.7969 8.45312
L34.625 8.45312
Q39.2031 8.45312 41.0625 8.79688
Q44.3438 9.375 46.5312 10.7344
Q48.7344 12.1094 50.1406 14.7188
Q51.5625 17.3281 51.5625 20.75
Q51.5625 24.75 49.5156 27.7031
Q47.4688 30.6719 43.8281 31.8594
Q40.1875 33.0625 33.3438 33.0625
L16.7969 33.0625
z
" id="ArialMT-42"/>
       <path d="
M41.2188 28.0781
L41.2188 36.4688
L71.5312 36.5312
L71.5312 9.96875
Q64.5469 4.39062 57.125 1.57812
Q49.7031 -1.21875 41.8906 -1.21875
Q31.3438 -1.21875 22.7188 3.29688
Q14.1094 7.8125 9.71875 16.3594
Q5.32812 24.9062 5.32812 35.4531
Q5.32812 45.9062 9.6875 54.9531
Q14.0625 64.0156 22.2656 68.4062
Q30.4688 72.7969 41.1562 72.7969
Q48.9219 72.7969 55.1875 70.2812
Q61.4688 67.7812 65.0312 63.2812
Q68.6094 58.7969 70.4531 51.5625
L61.9219 49.2188
Q60.2969 54.6875 57.9062 57.8125
Q55.5156 60.9375 51.0625 62.8125
Q46.625 64.7031 41.2188 64.7031
Q34.7188 64.7031 29.9844 62.7188
Q25.25 60.75 22.3438 57.5156
Q19.4375 54.2969 17.8281 50.4375
Q15.0938 43.7969 15.0938 36.0312
Q15.0938 26.4688 18.3906 20.0156
Q21.6875 13.5781 27.9844 10.4531
Q34.2812 7.32812 41.3594 7.32812
Q47.5156 7.32812 53.375 9.6875
Q59.2344 12.0625 62.25 14.75
L62.25 28.0781
z
" id="ArialMT-47"/>
       <path d="
M6.20312 -19.9688
L5.21875 -11.7188
Q8.10938 -12.5 10.25 -12.5
Q13.1875 -12.5 14.9375 -11.5156
Q16.7031 -10.5469 17.8281 -8.79688
Q18.6562 -7.46875 20.5156 -2.25
Q20.75 -1.51562 21.2969 -0.09375
L1.60938 51.8594
L11.0781 51.8594
L21.875 21.8281
Q23.9688 16.1094 25.6406 9.8125
Q27.1562 15.875 29.25 21.625
L40.3281 51.8594
L49.125 51.8594
L29.3906 -0.875
Q26.2188 -9.42188 24.4688 -12.6406
Q22.125 -17 19.0938 -19.0156
Q16.0625 -21.0469 11.8594 -21.0469
Q9.32812 -21.0469 6.20312 -19.9688" id="ArialMT-79"/>
       <path d="
M6.5 0
L6.5 51.8594
L14.4062 51.8594
L14.4062 44
Q17.4375 49.5156 20 51.2656
Q22.5625 53.0312 25.6406 53.0312
Q30.0781 53.0312 34.6719 50.2031
L31.6406 42.0469
Q28.4219 43.9531 25.2031 43.9531
Q22.3125 43.9531 20.0156 42.2188
Q17.7188 40.4844 16.75 37.4062
Q15.2812 32.7188 15.2812 27.1562
L15.2812 0
z
" id="ArialMT-72"/>
       <path d="
M6.54688 61.375
L6.54688 71.5781
L15.3281 71.5781
L15.3281 61.375
z

M-4.59375 -20.125
L-2.9375 -12.6406
Q-0.296875 -13.3281 1.21875 -13.3281
Q3.90625 -13.3281 5.21875 -11.5469
Q6.54688 -9.76562 6.54688 -2.64062
L6.54688 51.8594
L15.3281 51.8594
L15.3281 -2.82812
Q15.3281 -12.4062 12.8438 -16.1562
Q9.67188 -21.0469 2.29688 -21.0469
Q-1.26562 -21.0469 -4.59375 -20.125" id="ArialMT-6a"/>
       <path d="
M3.32812 25.9219
Q3.32812 40.3281 11.3281 47.2656
Q18.0156 53.0312 27.6406 53.0312
Q38.3281 53.0312 45.1094 46.0156
Q51.9062 39.0156 51.9062 26.6562
Q51.9062 16.6562 48.9062 10.9062
Q45.9062 5.17188 40.1562 2
Q34.4219 -1.17188 27.6406 -1.17188
Q16.75 -1.17188 10.0312 5.8125
Q3.32812 12.7969 3.32812 25.9219
M12.3594 25.9219
Q12.3594 15.9688 16.7031 11.0156
Q21.0469 6.0625 27.6406 6.0625
Q34.1875 6.0625 38.5312 11.0312
Q42.875 16.0156 42.875 26.2188
Q42.875 35.8438 38.5 40.7969
Q34.125 45.75 27.6406 45.75
Q21.0469 45.75 16.7031 40.8125
Q12.3594 35.8906 12.3594 25.9219" id="ArialMT-6f"/>
       <path d="
M7.42188 0
L7.42188 71.5781
L21.6875 71.5781
L38.625 20.9062
Q40.9688 13.8125 42.0469 10.2969
Q43.2656 14.2031 45.8438 21.7812
L62.9844 71.5781
L75.7344 71.5781
L75.7344 0
L66.6094 0
L66.6094 59.9062
L45.7969 0
L37.25 0
L16.5469 60.9375
L16.5469 0
z
" id="ArialMT-4d"/>
       <path id="ArialMT-20"/>
      </defs>
      <g transform="translate(47.757429878 432.5155625)rotate(-90.0)scale(0.07 -0.07)">
       <use xlink:href="#ArialMT-53"/>
       <use x="66.69921875" xlink:href="#ArialMT-6f"/>
       <use x="122.314453125" xlink:href="#ArialMT-66"/>
       <use x="150.09765625" xlink:href="#ArialMT-74"/>
       <use x="177.880859375" xlink:href="#ArialMT-20"/>
       <use x="205.6640625" xlink:href="#ArialMT-47"/>
       <use x="283.447265625" xlink:href="#ArialMT-6f"/>
       <use x="339.0625" xlink:href="#ArialMT-20"/>
       <use x="366.845703125" xlink:href="#ArialMT-42"/>
       <use x="433.544921875" xlink:href="#ArialMT-79"/>
       <use x="483.544921875" xlink:href="#ArialMT-20"/>
       <use x="511.328125" xlink:href="#ArialMT-4d"/>
       <use x="594.62890625" xlink:href="#ArialMT-61"/>
       <use x="650.244140625" xlink:href="#ArialMT-6a"/>
       <use x="672.4609375" xlink:href="#ArialMT-6f"/>
       <use x="728.076171875" xlink:href="#ArialMT-72"/>
       <use x="761.376953125" xlink:href="#ArialMT-69"/>
       <use x="783.59375" xlink:href="#ArialMT-74"/>
       <use x="811.376953125" xlink:href="#ArialMT-79"/>
      </g>
     </g>
    </g>
    <g id="xtick_2">
     <g id="line2d_163">
      <g>
       <use style="stroke:#000000;stroke-width:0.5;" x="67.7217896341" xlink:href="#m93b0483c22" y="368.28275"/>
      </g>
     </g>
     <g id="line2d_164">
      <g>
       <use style="stroke:#000000;stroke-width:0.5;" x="67.7217896341" xlink:href="#m741efc42ff" y="22.68275"/>
      </g>
     </g>
     <g id="text_2">
      <!-- Eatherley -->
      <defs>
       <path d="
M6.39062 0
L6.39062 71.5781
L15.1875 71.5781
L15.1875 0
z
" id="ArialMT-6c"/>
       <path d="
M6.59375 0
L6.59375 71.5781
L15.375 71.5781
L15.375 45.9062
Q21.5312 53.0312 30.9062 53.0312
Q36.6719 53.0312 40.9219 50.75
Q45.1719 48.4844 47 44.4844
Q48.8281 40.4844 48.8281 32.8594
L48.8281 0
L40.0469 0
L40.0469 32.8594
Q40.0469 39.4531 37.1875 42.4531
Q34.3281 45.4531 29.1094 45.4531
Q25.2031 45.4531 21.75 43.4219
Q18.3125 41.4062 16.8438 37.9375
Q15.375 34.4688 15.375 28.375
L15.375 0
z
" id="ArialMT-68"/>
       <path d="
M7.90625 0
L7.90625 71.5781
L59.6719 71.5781
L59.6719 63.1406
L17.3906 63.1406
L17.3906 41.2188
L56.9844 41.2188
L56.9844 32.8125
L17.3906 32.8125
L17.3906 8.45312
L61.3281 8.45312
L61.3281 0
z
" id="ArialMT-45"/>
       <path d="
M42.0938 16.7031
L51.1719 15.5781
Q49.0312 7.625 43.2188 3.21875
Q37.4062 -1.17188 28.375 -1.17188
Q17 -1.17188 10.3281 5.82812
Q3.65625 12.8438 3.65625 25.4844
Q3.65625 38.5781 10.3906 45.7969
Q17.1406 53.0312 27.875 53.0312
Q38.2812 53.0312 44.875 45.9531
Q51.4688 38.875 51.4688 26.0312
Q51.4688 25.25 51.4219 23.6875
L12.75 23.6875
Q13.2344 15.1406 17.5781 10.5938
Q21.9219 6.0625 28.4219 6.0625
Q33.25 6.0625 36.6719 8.59375
Q40.0938 11.1406 42.0938 16.7031
M13.2344 30.9062
L42.1875 30.9062
Q41.6094 37.4531 38.875 40.7188
Q34.6719 45.7969 27.9844 45.7969
Q21.9219 45.7969 17.7969 41.75
Q13.6719 37.7031 13.2344 30.9062" id="ArialMT-65"/>
      </defs>
      <g transform="translate(69.4903833841 401.2386875)rotate(-90.0)scale(0.07 -0.07)">
       <use xlink:href="#ArialMT-45"/>
       <use x="66.69921875" xlink:href="#ArialMT-61"/>
       <use x="122.314453125" xlink:href="#ArialMT-74"/>
       <use x="150.09765625" xlink:href="#ArialMT-68"/>
       <use x="205.712890625" xlink:href="#ArialMT-65"/>
       <use x="261.328125" xlink:href="#ArialMT-72"/>
       <use x="294.62890625" xlink:href="#ArialMT-6c"/>
       <use x="316.845703125" xlink:href="#ArialMT-65"/>
       <use x="372.4609375" xlink:href="#ArialMT-79"/>
      </g>
     </g>
    </g>
    <g id="xtick_3">
     <g id="line2d_165">
      <g>
       <use style="stroke:#000000;stroke-width:0.5;" x="89.4973993902" xlink:href="#m93b0483c22" y="368.28275"/>
      </g>
     </g>
     <g id="line2d_166">
      <g>
       <use style="stroke:#000000;stroke-width:0.5;" x="89.4973993902" xlink:href="#m741efc42ff" y="22.68275"/>
      </g>
     </g>
     <g id="text_3">
      <!-- Champion -->
      <defs>
       <path d="
M58.7969 25.0938
L68.2656 22.7031
Q65.2812 11.0312 57.5469 4.90625
Q49.8125 -1.21875 38.625 -1.21875
Q27.0469 -1.21875 19.7969 3.48438
Q12.5469 8.20312 8.76562 17.1406
Q4.98438 26.0781 4.98438 36.3281
Q4.98438 47.5156 9.25 55.8281
Q13.5312 64.1562 21.4062 68.4688
Q29.2969 72.7969 38.7656 72.7969
Q49.5156 72.7969 56.8281 67.3281
Q64.1562 61.8594 67.0469 51.9531
L57.7188 49.75
Q55.2188 57.5625 50.4844 61.125
Q45.75 64.7031 38.5781 64.7031
Q30.3281 64.7031 24.7812 60.7344
Q19.2344 56.7812 16.9844 50.1094
Q14.75 43.4531 14.75 36.375
Q14.75 27.25 17.4062 20.4375
Q20.0625 13.625 25.6719 10.25
Q31.2969 6.89062 37.8438 6.89062
Q45.7969 6.89062 51.3125 11.4688
Q56.8438 16.0625 58.7969 25.0938" id="ArialMT-43"/>
       <path d="
M6.59375 -19.875
L6.59375 51.8594
L14.5938 51.8594
L14.5938 45.125
Q17.4375 49.0781 21 51.0469
Q24.5625 53.0312 29.6406 53.0312
Q36.2812 53.0312 41.3594 49.6094
Q46.4375 46.1875 49.0156 39.9531
Q51.6094 33.7344 51.6094 26.3125
Q51.6094 18.3594 48.75 11.9844
Q45.9062 5.60938 40.4531 2.21875
Q35.0156 -1.17188 29 -1.17188
Q24.6094 -1.17188 21.1094 0.6875
Q17.625 2.54688 15.375 5.375
L15.375 -19.875
z

M14.5469 25.6406
Q14.5469 15.625 18.5938 10.8438
Q22.6562 6.0625 28.4219 6.0625
Q34.2812 6.0625 38.4531 11.0156
Q42.625 15.9688 42.625 26.375
Q42.625 36.2812 38.5469 41.2031
Q34.4688 46.1406 28.8125 46.1406
Q23.1875 46.1406 18.8594 40.8906
Q14.5469 35.6406 14.5469 25.6406" id="ArialMT-70"/>
       <path d="
M6.59375 0
L6.59375 51.8594
L14.5 51.8594
L14.5 44.4844
Q20.2188 53.0312 31 53.0312
Q35.6875 53.0312 39.625 51.3438
Q43.5625 49.6562 45.5156 46.9219
Q47.4688 44.1875 48.25 40.4375
Q48.7344 37.9844 48.7344 31.8906
L48.7344 0
L39.9375 0
L39.9375 31.5469
Q39.9375 36.9219 38.9062 39.5781
Q37.8906 42.2344 35.2812 43.8125
Q32.6719 45.4062 29.1562 45.4062
Q23.5312 45.4062 19.4531 41.8438
Q15.375 38.2812 15.375 28.3281
L15.375 0
z
" id="ArialMT-6e"/>
       <path d="
M6.59375 0
L6.59375 51.8594
L14.4531 51.8594
L14.4531 44.5781
Q16.8906 48.3906 20.9375 50.7031
Q25 53.0312 30.1719 53.0312
Q35.9375 53.0312 39.625 50.6406
Q43.3125 48.25 44.8281 43.9531
Q50.9844 53.0312 60.8438 53.0312
Q68.5625 53.0312 72.7031 48.75
Q76.8594 44.4844 76.8594 35.5938
L76.8594 0
L68.1094 0
L68.1094 32.6719
Q68.1094 37.9375 67.25 40.25
Q66.4062 42.5781 64.1562 43.9844
Q61.9219 45.4062 58.8906 45.4062
Q53.4219 45.4062 49.7969 41.7656
Q46.1875 38.1406 46.1875 30.125
L46.1875 0
L37.4062 0
L37.4062 33.6875
Q37.4062 39.5469 35.25 42.4688
Q33.1094 45.4062 28.2188 45.4062
Q24.5156 45.4062 21.3594 43.4531
Q18.2188 41.5 16.7969 37.7344
Q15.375 33.9844 15.375 26.9062
L15.375 0
z
" id="ArialMT-6d"/>
      </defs>
      <g transform="translate(91.3496650152 403.35728125)rotate(-90.0)scale(0.07 -0.07)">
       <use xlink:href="#ArialMT-43"/>
       <use x="72.216796875" xlink:href="#ArialMT-68"/>
       <use x="127.83203125" xlink:href="#ArialMT-61"/>
       <use x="183.447265625" xlink:href="#ArialMT-6d"/>
       <use x="266.748046875" xlink:href="#ArialMT-70"/>
       <use x="322.36328125" xlink:href="#ArialMT-69"/>
       <use x="344.580078125" xlink:href="#ArialMT-6f"/>
       <use x="400.1953125" xlink:href="#ArialMT-6e"/>
      </g>
     </g>
    </g>
    <g id="xtick_4">
     <g id="line2d_167">
      <g>
       <use style="stroke:#000000;stroke-width:0.5;" x="111.273009146" xlink:href="#m93b0483c22" y="368.28275"/>
      </g>
     </g>
     <g id="line2d_168">
      <g>
       <use style="stroke:#000000;stroke-width:0.5;" x="111.273009146" xlink:href="#m741efc42ff" y="22.68275"/>
      </g>
     </g>
     <g id="text_4">
      <!-- GTFT: 0.3 -->
      <defs>
       <path d="
M9.03125 41.8438
L9.03125 51.8594
L19.0469 51.8594
L19.0469 41.8438
z

M9.03125 0
L9.03125 10.0156
L19.0469 10.0156
L19.0469 0
z
" id="ArialMT-3a"/>
       <path d="
M9.07812 0
L9.07812 10.0156
L19.0938 10.0156
L19.0938 0
z
" id="ArialMT-2e"/>
       <path d="
M25.9219 0
L25.9219 63.1406
L2.34375 63.1406
L2.34375 71.5781
L59.0781 71.5781
L59.0781 63.1406
L35.4062 63.1406
L35.4062 0
z
" id="ArialMT-54"/>
       <path d="
M8.20312 0
L8.20312 71.5781
L56.5 71.5781
L56.5 63.1406
L17.6719 63.1406
L17.6719 40.9688
L51.2656 40.9688
L51.2656 32.5156
L17.6719 32.5156
L17.6719 0
z
" id="ArialMT-46"/>
       <path d="
M4.15625 35.2969
Q4.15625 48 6.76562 55.7344
Q9.375 63.4844 14.5156 67.6719
Q19.6719 71.875 27.4844 71.875
Q33.25 71.875 37.5938 69.5469
Q41.9375 67.2344 44.7656 62.8594
Q47.6094 58.5 49.2188 52.2188
Q50.8281 45.9531 50.8281 35.2969
Q50.8281 22.7031 48.2344 14.9688
Q45.6562 7.23438 40.5 3
Q35.3594 -1.21875 27.4844 -1.21875
Q17.1406 -1.21875 11.2344 6.20312
Q4.15625 15.1406 4.15625 35.2969
M13.1875 35.2969
Q13.1875 17.6719 17.3125 11.8281
Q21.4375 6 27.4844 6
Q33.5469 6 37.6719 11.8594
Q41.7969 17.7188 41.7969 35.2969
Q41.7969 52.9844 37.6719 58.7812
Q33.5469 64.5938 27.3906 64.5938
Q21.3438 64.5938 17.7188 59.4688
Q13.1875 52.9375 13.1875 35.2969" id="ArialMT-30"/>
       <path d="
M4.20312 18.8906
L12.9844 20.0625
Q14.5 12.5938 18.1406 9.29688
Q21.7812 6 27 6
Q33.2031 6 37.4688 10.2969
Q41.75 14.5938 41.75 20.9531
Q41.75 27 37.7969 30.9219
Q33.8438 34.8594 27.7344 34.8594
Q25.25 34.8594 21.5312 33.8906
L22.5156 41.6094
Q23.3906 41.5 23.9219 41.5
Q29.5469 41.5 34.0312 44.4219
Q38.5312 47.3594 38.5312 53.4688
Q38.5312 58.2969 35.25 61.4688
Q31.9844 64.6562 26.8125 64.6562
Q21.6875 64.6562 18.2656 61.4219
Q14.8438 58.2031 13.875 51.7656
L5.07812 53.3281
Q6.6875 62.1562 12.3906 67.0156
Q18.1094 71.875 26.6094 71.875
Q32.4688 71.875 37.3906 69.3594
Q42.3281 66.8438 44.9375 62.5
Q47.5625 58.1562 47.5625 53.2656
Q47.5625 48.6406 45.0625 44.8281
Q42.5781 41.0156 37.7031 38.7656
Q44.0469 37.3125 47.5625 32.6875
Q51.0781 28.0781 51.0781 21.1406
Q51.0781 11.7656 44.2344 5.25
Q37.4062 -1.26562 26.9531 -1.26562
Q17.5312 -1.26562 11.2969 4.34375
Q5.07812 9.96875 4.20312 18.8906" id="ArialMT-33"/>
      </defs>
      <g transform="translate(113.082618521 403.07728125)rotate(-90.0)scale(0.07 -0.07)">
       <use xlink:href="#ArialMT-47"/>
       <use x="77.783203125" xlink:href="#ArialMT-54"/>
       <use x="138.8671875" xlink:href="#ArialMT-46"/>
       <use x="199.951171875" xlink:href="#ArialMT-54"/>
       <use x="249.91015625" xlink:href="#ArialMT-3a"/>
       <use x="277.693359375" xlink:href="#ArialMT-20"/>
       <use x="305.4765625" xlink:href="#ArialMT-30"/>
       <use x="361.091796875" xlink:href="#ArialMT-2e"/>
       <use x="388.875" xlink:href="#ArialMT-33"/>
      </g>
     </g>
    </g>
    <g id="xtick_5">
     <g id="line2d_169">
      <g>
       <use style="stroke:#000000;stroke-width:0.5;" x="133.048618902" xlink:href="#m93b0483c22" y="368.28275"/>
      </g>
     </g>
     <g id="line2d_170">
      <g>
       <use style="stroke:#000000;stroke-width:0.5;" x="133.048618902" xlink:href="#m741efc42ff" y="22.68275"/>
      </g>
     </g>
     <g id="text_5">
      <!-- GTFT: 0.1 -->
      <defs>
       <path d="
M37.25 0
L28.4688 0
L28.4688 56
Q25.2969 52.9844 20.1406 49.9531
Q14.9844 46.9219 10.8906 45.4062
L10.8906 53.9062
Q18.2656 57.375 23.7812 62.2969
Q29.2969 67.2344 31.5938 71.875
L37.25 71.875
z
" id="ArialMT-31"/>
      </defs>
      <g transform="translate(134.858228277 402.1093125)rotate(-90.0)scale(0.07 -0.07)">
       <use xlink:href="#ArialMT-47"/>
       <use x="77.783203125" xlink:href="#ArialMT-54"/>
       <use x="138.8671875" xlink:href="#ArialMT-46"/>
       <use x="199.951171875" xlink:href="#ArialMT-54"/>
       <use x="249.91015625" xlink:href="#ArialMT-3a"/>
       <use x="277.693359375" xlink:href="#ArialMT-20"/>
       <use x="305.4765625" xlink:href="#ArialMT-30"/>
       <use x="361.091796875" xlink:href="#ArialMT-2e"/>
       <use x="388.875" xlink:href="#ArialMT-31"/>
      </g>
     </g>
    </g>
    <g id="xtick_6">
     <g id="line2d_171">
      <g>
       <use style="stroke:#000000;stroke-width:0.5;" x="154.824228659" xlink:href="#m93b0483c22" y="368.28275"/>
      </g>
     </g>
     <g id="line2d_172">
      <g>
       <use style="stroke:#000000;stroke-width:0.5;" x="154.824228659" xlink:href="#m741efc42ff" y="22.68275"/>
      </g>
     </g>
     <g id="text_6">
      <!-- Hard Go By Majority -->
      <defs>
       <path d="
M8.01562 0
L8.01562 71.5781
L17.4844 71.5781
L17.4844 42.1875
L54.6875 42.1875
L54.6875 71.5781
L64.1562 71.5781
L64.1562 0
L54.6875 0
L54.6875 33.7344
L17.4844 33.7344
L17.4844 0
z
" id="ArialMT-48"/>
       <path d="
M40.2344 0
L40.2344 6.54688
Q35.2969 -1.17188 25.7344 -1.17188
Q19.5312 -1.17188 14.3281 2.25
Q9.125 5.67188 6.26562 11.7969
Q3.42188 17.9219 3.42188 25.875
Q3.42188 33.6406 6 39.9688
Q8.59375 46.2969 13.7656 49.6562
Q18.9531 53.0312 25.3438 53.0312
Q30.0312 53.0312 33.6875 51.0469
Q37.3594 49.0781 39.6562 45.9062
L39.6562 71.5781
L48.3906 71.5781
L48.3906 0
z

M12.4531 25.875
Q12.4531 15.9219 16.6406 10.9844
Q20.8438 6.0625 26.5625 6.0625
Q32.3281 6.0625 36.3438 10.7656
Q40.375 15.4844 40.375 25.1406
Q40.375 35.7969 36.2656 40.7656
Q32.1719 45.75 26.1719 45.75
Q20.3125 45.75 16.375 40.9688
Q12.4531 36.1875 12.4531 25.875" id="ArialMT-64"/>
      </defs>
      <g transform="translate(156.635478659 435.23571875)rotate(-90.0)scale(0.07 -0.07)">
       <use xlink:href="#ArialMT-48"/>
       <use x="72.216796875" xlink:href="#ArialMT-61"/>
       <use x="127.83203125" xlink:href="#ArialMT-72"/>
       <use x="161.1328125" xlink:href="#ArialMT-64"/>
       <use x="216.748046875" xlink:href="#ArialMT-20"/>
       <use x="244.53125" xlink:href="#ArialMT-47"/>
       <use x="322.314453125" xlink:href="#ArialMT-6f"/>
       <use x="377.9296875" xlink:href="#ArialMT-20"/>
       <use x="405.712890625" xlink:href="#ArialMT-42"/>
       <use x="472.412109375" xlink:href="#ArialMT-79"/>
       <use x="522.412109375" xlink:href="#ArialMT-20"/>
       <use x="550.1953125" xlink:href="#ArialMT-4d"/>
       <use x="633.49609375" xlink:href="#ArialMT-61"/>
       <use x="689.111328125" xlink:href="#ArialMT-6a"/>
       <use x="711.328125" xlink:href="#ArialMT-6f"/>
       <use x="766.943359375" xlink:href="#ArialMT-72"/>
       <use x="800.244140625" xlink:href="#ArialMT-69"/>
       <use x="822.4609375" xlink:href="#ArialMT-74"/>
       <use x="850.244140625" xlink:href="#ArialMT-79"/>
      </g>
     </g>
    </g>
    <g id="xtick_7">
     <g id="line2d_173">
      <g>
       <use style="stroke:#000000;stroke-width:0.5;" x="176.599838415" xlink:href="#m93b0483c22" y="368.28275"/>
      </g>
     </g>
     <g id="line2d_174">
      <g>
       <use style="stroke:#000000;stroke-width:0.5;" x="176.599838415" xlink:href="#m741efc42ff" y="22.68275"/>
      </g>
     </g>
     <g id="text_7">
      <!-- Tit For Tat -->
      <g transform="translate(178.40944779 403.34415625)rotate(-90.0)scale(0.07 -0.07)">
       <use xlink:href="#ArialMT-54"/>
       <use x="57.333984375" xlink:href="#ArialMT-69"/>
       <use x="79.55078125" xlink:href="#ArialMT-74"/>
       <use x="107.333984375" xlink:href="#ArialMT-20"/>
       <use x="135.1171875" xlink:href="#ArialMT-46"/>
       <use x="196.201171875" xlink:href="#ArialMT-6f"/>
       <use x="251.81640625" xlink:href="#ArialMT-72"/>
       <use x="285.1171875" xlink:href="#ArialMT-20"/>
       <use x="311.150390625" xlink:href="#ArialMT-54"/>
       <use x="361.109375" xlink:href="#ArialMT-61"/>
       <use x="416.724609375" xlink:href="#ArialMT-74"/>
      </g>
     </g>
    </g>
    <g id="xtick_8">
     <g id="line2d_175">
      <g>
       <use style="stroke:#000000;stroke-width:0.5;" x="198.375448171" xlink:href="#m93b0483c22" y="368.28275"/>
      </g>
     </g>
     <g id="line2d_176">
      <g>
       <use style="stroke:#000000;stroke-width:0.5;" x="198.375448171" xlink:href="#m741efc42ff" y="22.68275"/>
      </g>
     </g>
     <g id="text_8">
      <!-- Win-Stay Lose-Shift -->
      <defs>
       <path d="
M7.32812 0
L7.32812 71.5781
L16.7969 71.5781
L16.7969 8.45312
L52.0469 8.45312
L52.0469 0
z
" id="ArialMT-4c"/>
       <path d="
M3.17188 21.4844
L3.17188 30.3281
L30.1719 30.3281
L30.1719 21.4844
z
" id="ArialMT-2d"/>
       <path d="
M20.2188 0
L1.21875 71.5781
L10.9375 71.5781
L21.8281 24.6562
Q23.5781 17.2812 24.8594 10.0156
Q27.5938 21.4844 28.0781 23.25
L41.7031 71.5781
L53.125 71.5781
L63.375 35.3594
Q67.2344 21.875 68.9531 10.0156
Q70.3125 16.7969 72.5156 25.5938
L83.7344 71.5781
L93.2656 71.5781
L73.6406 0
L64.5 0
L49.4219 54.5469
Q47.5156 61.375 47.1719 62.9375
Q46.0469 58.0156 45.0625 54.5469
L29.8906 0
z
" id="ArialMT-57"/>
       <path d="
M3.07812 15.4844
L11.7656 16.8438
Q12.5 11.625 15.8438 8.84375
Q19.1875 6.0625 25.2031 6.0625
Q31.25 6.0625 34.1719 8.51562
Q37.1094 10.9844 37.1094 14.3125
Q37.1094 17.2812 34.5156 19
Q32.7188 20.1719 25.5312 21.9688
Q15.875 24.4219 12.1406 26.2031
Q8.40625 27.9844 6.46875 31.125
Q4.54688 34.2812 4.54688 38.0938
Q4.54688 41.5469 6.125 44.5
Q7.71875 47.4688 10.4531 49.4219
Q12.5 50.9219 16.0312 51.9688
Q19.5781 53.0312 23.6406 53.0312
Q29.7344 53.0312 34.3438 51.2656
Q38.9688 49.5156 41.1562 46.5
Q43.3594 43.5 44.1875 38.4844
L35.5938 37.3125
Q35.0156 41.3125 32.2031 43.5469
Q29.3906 45.7969 24.2656 45.7969
Q18.2188 45.7969 15.625 43.7969
Q13.0312 41.7969 13.0312 39.1094
Q13.0312 37.4062 14.1094 36.0312
Q15.1875 34.625 17.4844 33.6875
Q18.7969 33.2031 25.25 31.4531
Q34.5781 28.9531 38.25 27.3594
Q41.9375 25.7812 44.0312 22.75
Q46.1406 19.7344 46.1406 15.2344
Q46.1406 10.8438 43.5781 6.95312
Q41.0156 3.07812 36.1719 0.953125
Q31.3438 -1.17188 25.25 -1.17188
Q15.1406 -1.17188 9.84375 3.03125
Q4.54688 7.23438 3.07812 15.4844" id="ArialMT-73"/>
      </defs>
      <g transform="translate(200.186698171 434.084)rotate(-90.0)scale(0.07 -0.07)">
       <use xlink:href="#ArialMT-57"/>
       <use x="94.384765625" xlink:href="#ArialMT-69"/>
       <use x="116.6015625" xlink:href="#ArialMT-6e"/>
       <use x="172.216796875" xlink:href="#ArialMT-2d"/>
       <use x="205.517578125" xlink:href="#ArialMT-53"/>
       <use x="272.216796875" xlink:href="#ArialMT-74"/>
       <use x="300.0" xlink:href="#ArialMT-61"/>
       <use x="355.615234375" xlink:href="#ArialMT-79"/>
       <use x="405.615234375" xlink:href="#ArialMT-20"/>
       <use x="433.3984375" xlink:href="#ArialMT-4c"/>
       <use x="489.013671875" xlink:href="#ArialMT-6f"/>
       <use x="544.62890625" xlink:href="#ArialMT-73"/>
       <use x="594.62890625" xlink:href="#ArialMT-65"/>
       <use x="650.244140625" xlink:href="#ArialMT-2d"/>
       <use x="683.544921875" xlink:href="#ArialMT-53"/>
       <use x="750.244140625" xlink:href="#ArialMT-68"/>
       <use x="805.859375" xlink:href="#ArialMT-69"/>
       <use x="828.076171875" xlink:href="#ArialMT-66"/>
       <use x="855.859375" xlink:href="#ArialMT-74"/>
      </g>
     </g>
    </g>
    <g id="xtick_9">
     <g id="line2d_177">
      <g>
       <use style="stroke:#000000;stroke-width:0.5;" x="220.151057927" xlink:href="#m93b0483c22" y="368.28275"/>
      </g>
     </g>
     <g id="line2d_178">
      <g>
       <use style="stroke:#000000;stroke-width:0.5;" x="220.151057927" xlink:href="#m741efc42ff" y="22.68275"/>
      </g>
     </g>
     <g id="text_9">
      <!-- Tit For 2 Tats -->
      <defs>
       <path d="
M50.3438 8.45312
L50.3438 0
L3.03125 0
Q2.9375 3.17188 4.04688 6.10938
Q5.85938 10.9375 9.82812 15.625
Q13.8125 20.3125 21.3438 26.4688
Q33.0156 36.0312 37.1094 41.625
Q41.2188 47.2188 41.2188 52.2031
Q41.2188 57.4219 37.4688 61
Q33.7344 64.5938 27.7344 64.5938
Q21.3906 64.5938 17.5781 60.7812
Q13.7656 56.9844 13.7188 50.25
L4.6875 51.1719
Q5.60938 61.2812 11.6562 66.5781
Q17.7188 71.875 27.9375 71.875
Q38.2344 71.875 44.2344 66.1562
Q50.25 60.4531 50.25 52
Q50.25 47.7031 48.4844 43.5469
Q46.7344 39.4062 42.6562 34.8125
Q38.5781 30.2188 29.1094 22.2188
Q21.1875 15.5781 18.9375 13.2031
Q16.7031 10.8438 15.2344 8.45312
z
" id="ArialMT-32"/>
      </defs>
      <g transform="translate(221.960667302 412.46275)rotate(-90.0)scale(0.07 -0.07)">
       <use xlink:href="#ArialMT-54"/>
       <use x="57.333984375" xlink:href="#ArialMT-69"/>
       <use x="79.55078125" xlink:href="#ArialMT-74"/>
       <use x="107.333984375" xlink:href="#ArialMT-20"/>
       <use x="135.1171875" xlink:href="#ArialMT-46"/>
       <use x="196.201171875" xlink:href="#ArialMT-6f"/>
       <use x="251.81640625" xlink:href="#ArialMT-72"/>
       <use x="285.1171875" xlink:href="#ArialMT-20"/>
       <use x="312.900390625" xlink:href="#ArialMT-32"/>
       <use x="368.515625" xlink:href="#ArialMT-20"/>
       <use x="394.548828125" xlink:href="#ArialMT-54"/>
       <use x="444.5078125" xlink:href="#ArialMT-61"/>
       <use x="500.123046875" xlink:href="#ArialMT-74"/>
       <use x="527.90625" xlink:href="#ArialMT-73"/>
      </g>
     </g>
    </g>
    <g id="xtick_10">
     <g id="line2d_179">
      <g>
       <use style="stroke:#000000;stroke-width:0.5;" x="241.926667683" xlink:href="#m93b0483c22" y="368.28275"/>
      </g>
     </g>
     <g id="line2d_180">
      <g>
       <use style="stroke:#000000;stroke-width:0.5;" x="241.926667683" xlink:href="#m741efc42ff" y="22.68275"/>
      </g>
     </g>
     <g id="text_10">
      <!-- Grudger -->
      <defs>
       <path d="
M40.5781 0
L40.5781 7.625
Q34.5156 -1.17188 24.125 -1.17188
Q19.5312 -1.17188 15.5469 0.578125
Q11.5781 2.34375 9.64062 5
Q7.71875 7.67188 6.9375 11.5312
Q6.39062 14.1094 6.39062 19.7344
L6.39062 51.8594
L15.1875 51.8594
L15.1875 23.0938
Q15.1875 16.2188 15.7188 13.8125
Q16.5469 10.3594 19.2344 8.375
Q21.9219 6.39062 25.875 6.39062
Q29.8281 6.39062 33.2969 8.42188
Q36.7656 10.4531 38.2031 13.9375
Q39.6562 17.4375 39.6562 24.0781
L39.6562 51.8594
L48.4375 51.8594
L48.4375 0
z
" id="ArialMT-75"/>
       <path d="
M4.98438 -4.29688
L13.5312 -5.5625
Q14.0625 -9.51562 16.5 -11.3281
Q19.7812 -13.7656 25.4375 -13.7656
Q31.5469 -13.7656 34.8594 -11.3281
Q38.1875 -8.89062 39.3594 -4.5
Q40.0469 -1.8125 39.9844 6.78125
Q34.2344 0 25.6406 0
Q14.9375 0 9.07812 7.71875
Q3.21875 15.4375 3.21875 26.2188
Q3.21875 33.6406 5.90625 39.9062
Q8.59375 46.1875 13.6875 49.6094
Q18.7969 53.0312 25.6875 53.0312
Q34.8594 53.0312 40.8281 45.6094
L40.8281 51.8594
L48.9219 51.8594
L48.9219 7.03125
Q48.9219 -5.07812 46.4531 -10.125
Q44 -15.1875 38.6406 -18.1094
Q33.2969 -21.0469 25.4844 -21.0469
Q16.2188 -21.0469 10.5 -16.875
Q4.78125 -12.7031 4.98438 -4.29688
M12.25 26.8594
Q12.25 16.6562 16.2969 11.9688
Q20.3594 7.28125 26.4688 7.28125
Q32.5156 7.28125 36.6094 11.9375
Q40.7188 16.6094 40.7188 26.5625
Q40.7188 36.0781 36.5 40.9062
Q32.2812 45.75 26.3125 45.75
Q20.4531 45.75 16.3438 40.9844
Q12.25 36.2344 12.25 26.8594" id="ArialMT-67"/>
      </defs>
      <g transform="translate(243.737917683 397.68290625)rotate(-90.0)scale(0.07 -0.07)">
       <use xlink:href="#ArialMT-47"/>
       <use x="77.783203125" xlink:href="#ArialMT-72"/>
       <use x="111.083984375" xlink:href="#ArialMT-75"/>
       <use x="166.69921875" xlink:href="#ArialMT-64"/>
       <use x="222.314453125" xlink:href="#ArialMT-67"/>
       <use x="277.9296875" xlink:href="#ArialMT-65"/>
       <use x="333.544921875" xlink:href="#ArialMT-72"/>
      </g>
     </g>
    </g>
    <g id="xtick_11">
     <g id="line2d_181">
      <g>
       <use style="stroke:#000000;stroke-width:0.5;" x="263.702277439" xlink:href="#m93b0483c22" y="368.28275"/>
      </g>
     </g>
     <g id="line2d_182">
      <g>
       <use style="stroke:#000000;stroke-width:0.5;" x="263.702277439" xlink:href="#m741efc42ff" y="22.68275"/>
      </g>
     </g>
     <g id="text_11">
      <!-- Cooperator -->
      <g transform="translate(265.554543064 407.04759375)rotate(-90.0)scale(0.07 -0.07)">
       <use xlink:href="#ArialMT-43"/>
       <use x="72.216796875" xlink:href="#ArialMT-6f"/>
       <use x="127.83203125" xlink:href="#ArialMT-6f"/>
       <use x="183.447265625" xlink:href="#ArialMT-70"/>
       <use x="239.0625" xlink:href="#ArialMT-65"/>
       <use x="294.677734375" xlink:href="#ArialMT-72"/>
       <use x="327.978515625" xlink:href="#ArialMT-61"/>
       <use x="383.59375" xlink:href="#ArialMT-74"/>
       <use x="411.376953125" xlink:href="#ArialMT-6f"/>
       <use x="466.9921875" xlink:href="#ArialMT-72"/>
      </g>
     </g>
    </g>
    <g id="xtick_12">
     <g id="line2d_183">
      <g>
       <use style="stroke:#000000;stroke-width:0.5;" x="285.477887195" xlink:href="#m93b0483c22" y="368.28275"/>
      </g>
     </g>
     <g id="line2d_184">
      <g>
       <use style="stroke:#000000;stroke-width:0.5;" x="285.477887195" xlink:href="#m741efc42ff" y="22.68275"/>
      </g>
     </g>
     <g id="text_12">
      <!-- Two Tits For Tat -->
      <defs>
       <path d="
M16.1562 0
L0.296875 51.8594
L9.375 51.8594
L17.625 21.9219
L20.7031 10.7969
Q20.9062 11.625 23.3906 21.4844
L31.6406 51.8594
L40.6719 51.8594
L48.4375 21.7812
L51.0312 11.8594
L54 21.875
L62.8906 51.8594
L71.4375 51.8594
L55.2188 0
L46.0938 0
L37.8438 31.0625
L35.8438 39.8906
L25.3438 0
z
" id="ArialMT-77"/>
      </defs>
      <g transform="translate(287.28749657 421.50478125)rotate(-90.0)scale(0.07 -0.07)">
       <use xlink:href="#ArialMT-54"/>
       <use x="55.583984375" xlink:href="#ArialMT-77"/>
       <use x="127.80078125" xlink:href="#ArialMT-6f"/>
       <use x="183.416015625" xlink:href="#ArialMT-20"/>
       <use x="209.44921875" xlink:href="#ArialMT-54"/>
       <use x="266.783203125" xlink:href="#ArialMT-69"/>
       <use x="289.0" xlink:href="#ArialMT-74"/>
       <use x="316.783203125" xlink:href="#ArialMT-73"/>
       <use x="366.783203125" xlink:href="#ArialMT-20"/>
       <use x="394.56640625" xlink:href="#ArialMT-46"/>
       <use x="455.650390625" xlink:href="#ArialMT-6f"/>
       <use x="511.265625" xlink:href="#ArialMT-72"/>
       <use x="544.56640625" xlink:href="#ArialMT-20"/>
       <use x="570.599609375" xlink:href="#ArialMT-54"/>
       <use x="620.55859375" xlink:href="#ArialMT-61"/>
       <use x="676.173828125" xlink:href="#ArialMT-74"/>
      </g>
     </g>
    </g>
    <g id="xtick_13">
     <g id="line2d_185">
      <g>
       <use style="stroke:#000000;stroke-width:0.5;" x="307.253496951" xlink:href="#m93b0483c22" y="368.28275"/>
      </g>
     </g>
     <g id="line2d_186">
      <g>
       <use style="stroke:#000000;stroke-width:0.5;" x="307.253496951" xlink:href="#m741efc42ff" y="22.68275"/>
      </g>
     </g>
     <g id="text_13">
      <!-- Tester -->
      <g transform="translate(309.063106326 391.2724375)rotate(-90.0)scale(0.07 -0.07)">
       <use xlink:href="#ArialMT-54"/>
       <use x="49.958984375" xlink:href="#ArialMT-65"/>
       <use x="105.57421875" xlink:href="#ArialMT-73"/>
       <use x="155.57421875" xlink:href="#ArialMT-74"/>
       <use x="183.357421875" xlink:href="#ArialMT-65"/>
       <use x="238.97265625" xlink:href="#ArialMT-72"/>
      </g>
     </g>
    </g>
    <g id="xtick_14">
     <g id="line2d_187">
      <g>
       <use style="stroke:#000000;stroke-width:0.5;" x="329.029106707" xlink:href="#m93b0483c22" y="368.28275"/>
      </g>
     </g>
     <g id="line2d_188">
      <g>
       <use style="stroke:#000000;stroke-width:0.5;" x="329.029106707" xlink:href="#m741efc42ff" y="22.68275"/>
      </g>
     </g>
     <g id="text_14">
      <!-- Random: 0.8 -->
      <defs>
       <path d="
M7.85938 0
L7.85938 71.5781
L39.5938 71.5781
Q49.1719 71.5781 54.1406 69.6406
Q59.125 67.7188 62.1094 62.8281
Q65.0938 57.9531 65.0938 52.0469
Q65.0938 44.4375 60.1562 39.2031
Q55.2188 33.9844 44.9219 32.5625
Q48.6875 30.7656 50.6406 29
Q54.7812 25.2031 58.5 19.4844
L70.9531 0
L59.0312 0
L49.5625 14.8906
Q45.4062 21.3438 42.7188 24.75
Q40.0469 28.1719 37.9219 29.5312
Q35.7969 30.9062 33.5938 31.4531
Q31.9844 31.7812 28.3281 31.7812
L17.3281 31.7812
L17.3281 0
z

M17.3281 39.9844
L37.7031 39.9844
Q44.1875 39.9844 47.8438 41.3281
Q51.5156 42.6719 53.4219 45.625
Q55.3281 48.5781 55.3281 52.0469
Q55.3281 57.125 51.6406 60.3906
Q47.9531 63.6719 39.9844 63.6719
L17.3281 63.6719
z
" id="ArialMT-52"/>
       <path d="
M17.6719 38.8125
Q12.2031 40.8281 9.5625 44.5312
Q6.9375 48.25 6.9375 53.4219
Q6.9375 61.2344 12.5469 66.5469
Q18.1719 71.875 27.4844 71.875
Q36.8594 71.875 42.5781 66.4219
Q48.2969 60.9844 48.2969 53.1719
Q48.2969 48.1875 45.6719 44.5
Q43.0625 40.8281 37.75 38.8125
Q44.3438 36.6719 47.7812 31.875
Q51.2188 27.0938 51.2188 20.4531
Q51.2188 11.2812 44.7188 5.03125
Q38.2344 -1.21875 27.6406 -1.21875
Q17.0469 -1.21875 10.5469 5.04688
Q4.04688 11.3281 4.04688 20.7031
Q4.04688 27.6875 7.59375 32.3906
Q11.1406 37.1094 17.6719 38.8125
M15.9219 53.7188
Q15.9219 48.6406 19.1875 45.4062
Q22.4688 42.1875 27.6875 42.1875
Q32.7656 42.1875 36.0156 45.375
Q39.2656 48.5781 39.2656 53.2188
Q39.2656 58.0625 35.9062 61.3594
Q32.5625 64.6562 27.5938 64.6562
Q22.5625 64.6562 19.2344 61.4219
Q15.9219 58.2031 15.9219 53.7188
M13.0938 20.6562
Q13.0938 16.8906 14.875 13.375
Q16.6562 9.85938 20.1719 7.92188
Q23.6875 6 27.7344 6
Q34.0312 6 38.125 10.0469
Q42.2344 14.1094 42.2344 20.3594
Q42.2344 26.7031 38.0156 30.8594
Q33.7969 35.0156 27.4375 35.0156
Q21.2344 35.0156 17.1562 30.9062
Q13.0938 26.8125 13.0938 20.6562" id="ArialMT-38"/>
      </defs>
      <g transform="translate(330.838716082 412.0515)rotate(-90.0)scale(0.07 -0.07)">
       <use xlink:href="#ArialMT-52"/>
       <use x="72.216796875" xlink:href="#ArialMT-61"/>
       <use x="127.83203125" xlink:href="#ArialMT-6e"/>
       <use x="183.447265625" xlink:href="#ArialMT-64"/>
       <use x="239.0625" xlink:href="#ArialMT-6f"/>
       <use x="294.677734375" xlink:href="#ArialMT-6d"/>
       <use x="377.978515625" xlink:href="#ArialMT-3a"/>
       <use x="405.76171875" xlink:href="#ArialMT-20"/>
       <use x="433.544921875" xlink:href="#ArialMT-30"/>
       <use x="489.16015625" xlink:href="#ArialMT-2e"/>
       <use x="516.943359375" xlink:href="#ArialMT-38"/>
      </g>
     </g>
    </g>
    <g id="xtick_15">
     <g id="line2d_189">
      <g>
       <use style="stroke:#000000;stroke-width:0.5;" x="350.804716463" xlink:href="#m93b0483c22" y="368.28275"/>
      </g>
     </g>
     <g id="line2d_190">
      <g>
       <use style="stroke:#000000;stroke-width:0.5;" x="350.804716463" xlink:href="#m741efc42ff" y="22.68275"/>
      </g>
     </g>
     <g id="text_15">
      <!-- Random: 0.5 -->
      <defs>
       <path d="
M4.15625 18.75
L13.375 19.5312
Q14.4062 12.7969 18.1406 9.39062
Q21.875 6 27.1562 6
Q33.5 6 37.8906 10.7812
Q42.2812 15.5781 42.2812 23.4844
Q42.2812 31 38.0625 35.3438
Q33.8438 39.7031 27 39.7031
Q22.75 39.7031 19.3281 37.7656
Q15.9219 35.8438 13.9688 32.7656
L5.71875 33.8438
L12.6406 70.6094
L48.25 70.6094
L48.25 62.2031
L19.6719 62.2031
L15.8281 42.9688
Q22.2656 47.4688 29.3438 47.4688
Q38.7188 47.4688 45.1562 40.9688
Q51.6094 34.4688 51.6094 24.2656
Q51.6094 14.5469 45.9531 7.46875
Q39.0625 -1.21875 27.1562 -1.21875
Q17.3906 -1.21875 11.2031 4.25
Q5.03125 9.71875 4.15625 18.75" id="ArialMT-35"/>
      </defs>
      <g transform="translate(352.614325838 412.07884375)rotate(-90.0)scale(0.07 -0.07)">
       <use xlink:href="#ArialMT-52"/>
       <use x="72.216796875" xlink:href="#ArialMT-61"/>
       <use x="127.83203125" xlink:href="#ArialMT-6e"/>
       <use x="183.447265625" xlink:href="#ArialMT-64"/>
       <use x="239.0625" xlink:href="#ArialMT-6f"/>
       <use x="294.677734375" xlink:href="#ArialMT-6d"/>
       <use x="377.978515625" xlink:href="#ArialMT-3a"/>
       <use x="405.76171875" xlink:href="#ArialMT-20"/>
       <use x="433.544921875" xlink:href="#ArialMT-30"/>
       <use x="489.16015625" xlink:href="#ArialMT-2e"/>
       <use x="516.943359375" xlink:href="#ArialMT-35"/>
      </g>
     </g>
    </g>
    <g id="xtick_16">
     <g id="line2d_191">
      <g>
       <use style="stroke:#000000;stroke-width:0.5;" x="372.58032622" xlink:href="#m93b0483c22" y="368.28275"/>
      </g>
     </g>
     <g id="line2d_192">
      <g>
       <use style="stroke:#000000;stroke-width:0.5;" x="372.58032622" xlink:href="#m741efc42ff" y="22.68275"/>
      </g>
     </g>
     <g id="text_16">
      <!-- Suspicious Tit For Tat -->
      <defs>
       <path d="
M40.4375 19
L49.0781 17.875
Q47.6562 8.9375 41.8125 3.875
Q35.9844 -1.17188 27.4844 -1.17188
Q16.8438 -1.17188 10.375 5.78125
Q3.90625 12.75 3.90625 25.7344
Q3.90625 34.125 6.6875 40.4219
Q9.46875 46.7344 15.1562 49.875
Q20.8438 53.0312 27.5469 53.0312
Q35.9844 53.0312 41.3594 48.75
Q46.7344 44.4844 48.25 36.625
L39.7031 35.2969
Q38.4844 40.5312 35.375 43.1562
Q32.2812 45.7969 27.875 45.7969
Q21.2344 45.7969 17.0781 41.0312
Q12.9375 36.2812 12.9375 25.9844
Q12.9375 15.5312 16.9375 10.7969
Q20.9531 6.0625 27.3906 6.0625
Q32.5625 6.0625 36.0312 9.23438
Q39.5 12.4062 40.4375 19" id="ArialMT-63"/>
      </defs>
      <g transform="translate(374.432591845 439.0168125)rotate(-90.0)scale(0.07 -0.07)">
       <use xlink:href="#ArialMT-53"/>
       <use x="66.69921875" xlink:href="#ArialMT-75"/>
       <use x="122.314453125" xlink:href="#ArialMT-73"/>
       <use x="172.314453125" xlink:href="#ArialMT-70"/>
       <use x="227.9296875" xlink:href="#ArialMT-69"/>
       <use x="250.146484375" xlink:href="#ArialMT-63"/>
       <use x="300.146484375" xlink:href="#ArialMT-69"/>
       <use x="322.36328125" xlink:href="#ArialMT-6f"/>
       <use x="377.978515625" xlink:href="#ArialMT-75"/>
       <use x="433.59375" xlink:href="#ArialMT-73"/>
       <use x="483.59375" xlink:href="#ArialMT-20"/>
       <use x="509.626953125" xlink:href="#ArialMT-54"/>
       <use x="566.9609375" xlink:href="#ArialMT-69"/>
       <use x="589.177734375" xlink:href="#ArialMT-74"/>
       <use x="616.9609375" xlink:href="#ArialMT-20"/>
       <use x="644.744140625" xlink:href="#ArialMT-46"/>
       <use x="705.828125" xlink:href="#ArialMT-6f"/>
       <use x="761.443359375" xlink:href="#ArialMT-72"/>
       <use x="794.744140625" xlink:href="#ArialMT-20"/>
       <use x="820.77734375" xlink:href="#ArialMT-54"/>
       <use x="870.736328125" xlink:href="#ArialMT-61"/>
       <use x="926.3515625" xlink:href="#ArialMT-74"/>
      </g>
     </g>
    </g>
    <g id="xtick_17">
     <g id="line2d_193">
      <g>
       <use style="stroke:#000000;stroke-width:0.5;" x="394.355935976" xlink:href="#m93b0483c22" y="368.28275"/>
      </g>
     </g>
     <g id="line2d_194">
      <g>
       <use style="stroke:#000000;stroke-width:0.5;" x="394.355935976" xlink:href="#m741efc42ff" y="22.68275"/>
      </g>
     </g>
     <g id="text_17">
      <!-- Joss: 0.9 -->
      <defs>
       <path d="
M2.875 20.3125
L11.4219 21.4844
Q11.7656 13.2812 14.5 10.25
Q17.2344 7.23438 22.0781 7.23438
Q25.6406 7.23438 28.2188 8.85938
Q30.8125 10.5 31.7812 13.2969
Q32.7656 16.1094 32.7656 22.2656
L32.7656 71.5781
L42.2344 71.5781
L42.2344 22.7969
Q42.2344 13.8125 40.0625 8.875
Q37.8906 3.95312 33.1719 1.35938
Q28.4688 -1.21875 22.125 -1.21875
Q12.7031 -1.21875 7.6875 4.20312
Q2.6875 9.625 2.875 20.3125" id="ArialMT-4a"/>
       <path d="
M5.46875 16.5469
L13.9219 17.3281
Q14.9844 11.375 18.0156 8.6875
Q21.0469 6 25.7812 6
Q29.8281 6 32.875 7.85938
Q35.9375 9.71875 37.8906 12.8125
Q39.8438 15.9219 41.1562 21.1875
Q42.4844 26.4688 42.4844 31.9375
Q42.4844 32.5156 42.4375 33.6875
Q39.7969 29.5 35.2344 26.875
Q30.6719 24.2656 25.3438 24.2656
Q16.4531 24.2656 10.2969 30.7031
Q4.15625 37.1562 4.15625 47.7031
Q4.15625 58.5938 10.5781 65.2344
Q17 71.875 26.6562 71.875
Q33.6406 71.875 39.4219 68.1094
Q45.2188 64.3594 48.2188 57.3906
Q51.2188 50.4375 51.2188 37.25
Q51.2188 23.5312 48.2344 15.4062
Q45.2656 7.28125 39.375 3.03125
Q33.5 -1.21875 25.5938 -1.21875
Q17.1875 -1.21875 11.8594 3.4375
Q6.54688 8.10938 5.46875 16.5469
M41.4531 48.1406
Q41.4531 55.7188 37.4219 60.1562
Q33.4062 64.5938 27.7344 64.5938
Q21.875 64.5938 17.5312 59.8125
Q13.1875 55.0312 13.1875 47.4062
Q13.1875 40.5781 17.3125 36.2969
Q21.4375 32.0312 27.4844 32.0312
Q33.5938 32.0312 37.5156 36.2969
Q41.4531 40.5781 41.4531 48.1406" id="ArialMT-39"/>
      </defs>
      <g transform="translate(396.165545351 399.9874375)rotate(-90.0)scale(0.07 -0.07)">
       <use xlink:href="#ArialMT-4a"/>
       <use x="50.0" xlink:href="#ArialMT-6f"/>
       <use x="105.615234375" xlink:href="#ArialMT-73"/>
       <use x="155.615234375" xlink:href="#ArialMT-73"/>
       <use x="205.615234375" xlink:href="#ArialMT-3a"/>
       <use x="233.3984375" xlink:href="#ArialMT-20"/>
       <use x="261.181640625" xlink:href="#ArialMT-30"/>
       <use x="316.796875" xlink:href="#ArialMT-2e"/>
       <use x="344.580078125" xlink:href="#ArialMT-39"/>
      </g>
     </g>
    </g>
    <g id="xtick_18">
     <g id="line2d_195">
      <g>
       <use style="stroke:#000000;stroke-width:0.5;" x="416.131545732" xlink:href="#m93b0483c22" y="368.28275"/>
      </g>
     </g>
     <g id="line2d_196">
      <g>
       <use style="stroke:#000000;stroke-width:0.5;" x="416.131545732" xlink:href="#m741efc42ff" y="22.68275"/>
      </g>
     </g>
     <g id="text_18">
      <!-- Joss: 0.7 -->
      <defs>
       <path d="
M4.73438 62.2031
L4.73438 70.6562
L51.0781 70.6562
L51.0781 63.8125
Q44.2344 56.5469 37.5156 44.4844
Q30.8125 32.4219 27.1562 19.6719
Q24.5156 10.6875 23.7812 0
L14.75 0
Q14.8906 8.45312 18.0625 20.4062
Q21.2344 32.375 27.1719 43.4844
Q33.1094 54.5938 39.7969 62.2031
z
" id="ArialMT-37"/>
      </defs>
      <g transform="translate(417.941155107 399.97759375)rotate(-90.0)scale(0.07 -0.07)">
       <use xlink:href="#ArialMT-4a"/>
       <use x="50.0" xlink:href="#ArialMT-6f"/>
       <use x="105.615234375" xlink:href="#ArialMT-73"/>
       <use x="155.615234375" xlink:href="#ArialMT-73"/>
       <use x="205.615234375" xlink:href="#ArialMT-3a"/>
       <use x="233.3984375" xlink:href="#ArialMT-20"/>
       <use x="261.181640625" xlink:href="#ArialMT-30"/>
       <use x="316.796875" xlink:href="#ArialMT-2e"/>
       <use x="344.580078125" xlink:href="#ArialMT-37"/>
      </g>
     </g>
    </g>
    <g id="xtick_19">
     <g id="line2d_197">
      <g>
       <use style="stroke:#000000;stroke-width:0.5;" x="437.907155488" xlink:href="#m93b0483c22" y="368.28275"/>
      </g>
     </g>
     <g id="line2d_198">
      <g>
       <use style="stroke:#000000;stroke-width:0.5;" x="437.907155488" xlink:href="#m741efc42ff" y="22.68275"/>
      </g>
     </g>
     <g id="text_19">
      <!-- Random: 0.2 -->
      <g transform="translate(439.716764863 411.99025)rotate(-90.0)scale(0.07 -0.07)">
       <use xlink:href="#ArialMT-52"/>
       <use x="72.216796875" xlink:href="#ArialMT-61"/>
       <use x="127.83203125" xlink:href="#ArialMT-6e"/>
       <use x="183.447265625" xlink:href="#ArialMT-64"/>
       <use x="239.0625" xlink:href="#ArialMT-6f"/>
       <use x="294.677734375" xlink:href="#ArialMT-6d"/>
       <use x="377.978515625" xlink:href="#ArialMT-3a"/>
       <use x="405.76171875" xlink:href="#ArialMT-20"/>
       <use x="433.544921875" xlink:href="#ArialMT-30"/>
       <use x="489.16015625" xlink:href="#ArialMT-2e"/>
       <use x="516.943359375" xlink:href="#ArialMT-32"/>
      </g>
     </g>
    </g>
    <g id="xtick_20">
     <g id="line2d_199">
      <g>
       <use style="stroke:#000000;stroke-width:0.5;" x="459.682765244" xlink:href="#m93b0483c22" y="368.28275"/>
      </g>
     </g>
     <g id="line2d_200">
      <g>
       <use style="stroke:#000000;stroke-width:0.5;" x="459.682765244" xlink:href="#m741efc42ff" y="22.68275"/>
      </g>
     </g>
     <g id="text_20">
      <!-- Defector -->
      <defs>
       <path d="
M7.71875 0
L7.71875 71.5781
L32.375 71.5781
Q40.7188 71.5781 45.125 70.5625
Q51.2656 69.1406 55.6094 65.4375
Q61.2812 60.6406 64.0781 53.1875
Q66.8906 45.75 66.8906 36.1875
Q66.8906 28.0312 64.9844 21.7344
Q63.0938 15.4375 60.1094 11.2969
Q57.125 7.17188 53.5781 4.79688
Q50.0469 2.4375 45.0469 1.21875
Q40.0469 0 33.5469 0
z

M17.1875 8.45312
L32.4688 8.45312
Q39.5469 8.45312 43.5781 9.76562
Q47.6094 11.0781 50 13.4844
Q53.375 16.8438 55.25 22.5312
Q57.125 28.2188 57.125 36.3281
Q57.125 47.5625 53.4375 53.5938
Q49.75 59.625 44.4844 61.6719
Q40.6719 63.1406 32.2344 63.1406
L17.1875 63.1406
z
" id="ArialMT-44"/>
      </defs>
      <g transform="translate(461.492374619 398.292125)rotate(-90.0)scale(0.07 -0.07)">
       <use xlink:href="#ArialMT-44"/>
       <use x="72.216796875" xlink:href="#ArialMT-65"/>
       <use x="127.83203125" xlink:href="#ArialMT-66"/>
       <use x="155.615234375" xlink:href="#ArialMT-65"/>
       <use x="211.23046875" xlink:href="#ArialMT-63"/>
       <use x="261.23046875" xlink:href="#ArialMT-74"/>
       <use x="289.013671875" xlink:href="#ArialMT-6f"/>
       <use x="344.62890625" xlink:href="#ArialMT-72"/>
      </g>
     </g>
    </g>
    <g id="xtick_21">
     <g id="line2d_201">
      <g>
       <use style="stroke:#000000;stroke-width:0.5;" x="481.458375" xlink:href="#m93b0483c22" y="368.28275"/>
      </g>
     </g>
     <g id="line2d_202">
      <g>
       <use style="stroke:#000000;stroke-width:0.5;" x="481.458375" xlink:href="#m741efc42ff" y="22.68275"/>
      </g>
     </g>
    </g>
   </g>
   <g id="matplotlib.axis_2">
    <g id="ytick_1">
     <g id="line2d_203">
      <defs>
       <path d="
M0 0
L4 0" id="m728421d6d4" style="stroke:#000000;stroke-width:0.5;"/>
      </defs>
      <g>
       <use style="stroke:#000000;stroke-width:0.5;" x="35.058375" xlink:href="#m728421d6d4" y="368.28275"/>
      </g>
     </g>
     <g id="line2d_204">
      <defs>
       <path d="
M0 0
L-4 0" id="mcb0005524f" style="stroke:#000000;stroke-width:0.5;"/>
      </defs>
      <g>
       <use style="stroke:#000000;stroke-width:0.5;" x="481.458375" xlink:href="#mcb0005524f" y="368.28275"/>
      </g>
     </g>
     <g id="text_21">
      <!-- 1.6 -->
      <defs>
       <path d="
M49.75 54.0469
L41.0156 53.375
Q39.8438 58.5469 37.7031 60.8906
Q34.125 64.6562 28.9062 64.6562
Q24.7031 64.6562 21.5312 62.3125
Q17.3906 59.2812 14.9844 53.4688
Q12.5938 47.6562 12.5 36.9219
Q15.6719 41.75 20.2656 44.0938
Q24.8594 46.4375 29.8906 46.4375
Q38.6719 46.4375 44.8438 39.9688
Q51.0312 33.5 51.0312 23.25
Q51.0312 16.5 48.125 10.7188
Q45.2188 4.9375 40.1406 1.85938
Q35.0625 -1.21875 28.6094 -1.21875
Q17.625 -1.21875 10.6875 6.85938
Q3.76562 14.9375 3.76562 33.5
Q3.76562 54.25 11.4219 63.6719
Q18.1094 71.875 29.4375 71.875
Q37.8906 71.875 43.2812 67.1406
Q48.6875 62.4062 49.75 54.0469
M13.875 23.1875
Q13.875 18.6562 15.7969 14.5
Q17.7188 10.3594 21.1875 8.17188
Q24.6562 6 28.4688 6
Q34.0312 6 38.0312 10.4844
Q42.0469 14.9844 42.0469 22.7031
Q42.0469 30.125 38.0781 34.3906
Q34.125 38.6719 28.125 38.6719
Q22.1719 38.6719 18.0156 34.3906
Q13.875 30.125 13.875 23.1875" id="ArialMT-36"/>
      </defs>
      <g transform="translate(22.4111875 370.092359375)scale(0.07 -0.07)">
       <use xlink:href="#ArialMT-31"/>
       <use x="55.615234375" xlink:href="#ArialMT-2e"/>
       <use x="83.3984375" xlink:href="#ArialMT-36"/>
      </g>
     </g>
    </g>
    <g id="ytick_2">
     <g id="line2d_205">
      <g>
       <use style="stroke:#000000;stroke-width:0.5;" x="35.058375" xlink:href="#m728421d6d4" y="310.68275"/>
      </g>
     </g>
     <g id="line2d_206">
      <g>
       <use style="stroke:#000000;stroke-width:0.5;" x="481.458375" xlink:href="#mcb0005524f" y="310.68275"/>
      </g>
     </g>
     <g id="text_22">
      <!-- 1.8 -->
      <g transform="translate(22.3980625 312.492359375)scale(0.07 -0.07)">
       <use xlink:href="#ArialMT-31"/>
       <use x="55.615234375" xlink:href="#ArialMT-2e"/>
       <use x="83.3984375" xlink:href="#ArialMT-38"/>
      </g>
     </g>
    </g>
    <g id="ytick_3">
     <g id="line2d_207">
      <g>
       <use style="stroke:#000000;stroke-width:0.5;" x="35.058375" xlink:href="#m728421d6d4" y="253.08275"/>
      </g>
     </g>
     <g id="line2d_208">
      <g>
       <use style="stroke:#000000;stroke-width:0.5;" x="481.458375" xlink:href="#mcb0005524f" y="253.08275"/>
      </g>
     </g>
     <g id="text_23">
      <!-- 2.0 -->
      <g transform="translate(21.8686875 254.892359375)scale(0.07 -0.07)">
       <use xlink:href="#ArialMT-32"/>
       <use x="55.615234375" xlink:href="#ArialMT-2e"/>
       <use x="83.3984375" xlink:href="#ArialMT-30"/>
      </g>
     </g>
    </g>
    <g id="ytick_4">
     <g id="line2d_209">
      <g>
       <use style="stroke:#000000;stroke-width:0.5;" x="35.058375" xlink:href="#m728421d6d4" y="195.48275"/>
      </g>
     </g>
     <g id="line2d_210">
      <g>
       <use style="stroke:#000000;stroke-width:0.5;" x="481.458375" xlink:href="#mcb0005524f" y="195.48275"/>
      </g>
     </g>
     <g id="text_24">
      <!-- 2.2 -->
      <g transform="translate(21.90259375 197.292359375)scale(0.07 -0.07)">
       <use xlink:href="#ArialMT-32"/>
       <use x="55.615234375" xlink:href="#ArialMT-2e"/>
       <use x="83.3984375" xlink:href="#ArialMT-32"/>
      </g>
     </g>
    </g>
    <g id="ytick_5">
     <g id="line2d_211">
      <g>
       <use style="stroke:#000000;stroke-width:0.5;" x="35.058375" xlink:href="#m728421d6d4" y="137.88275"/>
      </g>
     </g>
     <g id="line2d_212">
      <g>
       <use style="stroke:#000000;stroke-width:0.5;" x="481.458375" xlink:href="#mcb0005524f" y="137.88275"/>
      </g>
     </g>
     <g id="text_25">
      <!-- 2.4 -->
      <defs>
       <path d="
M32.3281 0
L32.3281 17.1406
L1.26562 17.1406
L1.26562 25.2031
L33.9375 71.5781
L41.1094 71.5781
L41.1094 25.2031
L50.7812 25.2031
L50.7812 17.1406
L41.1094 17.1406
L41.1094 0
z

M32.3281 25.2031
L32.3281 57.4688
L9.90625 25.2031
z
" id="ArialMT-34"/>
      </defs>
      <g transform="translate(21.87196875 139.692359375)scale(0.07 -0.07)">
       <use xlink:href="#ArialMT-32"/>
       <use x="55.615234375" xlink:href="#ArialMT-2e"/>
       <use x="83.3984375" xlink:href="#ArialMT-34"/>
      </g>
     </g>
    </g>
    <g id="ytick_6">
     <g id="line2d_213">
      <g>
       <use style="stroke:#000000;stroke-width:0.5;" x="35.058375" xlink:href="#m728421d6d4" y="80.28275"/>
      </g>
     </g>
     <g id="line2d_214">
      <g>
       <use style="stroke:#000000;stroke-width:0.5;" x="481.458375" xlink:href="#mcb0005524f" y="80.28275"/>
      </g>
     </g>
     <g id="text_26">
      <!-- 2.6 -->
      <g transform="translate(21.85446875 82.092359375)scale(0.07 -0.07)">
       <use xlink:href="#ArialMT-32"/>
       <use x="55.615234375" xlink:href="#ArialMT-2e"/>
       <use x="83.3984375" xlink:href="#ArialMT-36"/>
      </g>
     </g>
    </g>
    <g id="ytick_7">
     <g id="line2d_215">
      <g>
       <use style="stroke:#000000;stroke-width:0.5;" x="35.058375" xlink:href="#m728421d6d4" y="22.68275"/>
      </g>
     </g>
     <g id="line2d_216">
      <g>
       <use style="stroke:#000000;stroke-width:0.5;" x="481.458375" xlink:href="#mcb0005524f" y="22.68275"/>
      </g>
     </g>
     <g id="text_27">
      <!-- 2.8 -->
      <g transform="translate(21.84134375 24.492359375)scale(0.07 -0.07)">
       <use xlink:href="#ArialMT-32"/>
       <use x="55.615234375" xlink:href="#ArialMT-2e"/>
       <use x="83.3984375" xlink:href="#ArialMT-38"/>
      </g>
     </g>
    </g>
   </g>
   <g id="patch_3">
    <path d="
M35.0584 22.6828
L481.458 22.6828" style="fill:none;stroke:#000000;"/>
   </g>
   <g id="patch_4">
    <path d="
M481.458 368.283
L481.458 22.6827" style="fill:none;stroke:#000000;"/>
   </g>
   <g id="patch_5">
    <path d="
M35.0584 368.283
L481.458 368.283" style="fill:none;stroke:#000000;"/>
   </g>
   <g id="patch_6">
    <path d="
M35.0584 368.283
L35.0584 22.6827" style="fill:none;stroke:#000000;"/>
   </g>
   <g id="text_28">
    <!-- Mean score per stage game over 200 rounds repeated 10 times (20 strategies) -->
    <defs>
     <path d="
M21 0
L1.26562 51.8594
L10.5469 51.8594
L21.6875 20.7969
Q23.4844 15.7656 25 10.3594
Q26.1719 14.4531 28.2656 20.2188
L39.7969 51.8594
L48.8281 51.8594
L29.2031 0
z
" id="ArialMT-76"/>
     <path d="
M12.3594 -21.0469
L6.0625 -21.0469
Q20.6562 2.39062 20.6562 25.875
Q20.6562 35.0625 18.5625 44.0938
Q16.8906 51.4219 13.9219 58.1562
Q12.0156 62.5469 6.0625 72.7969
L12.3594 72.7969
Q21.5312 60.5469 25.9219 48.1875
Q29.6875 37.5469 29.6875 25.9219
Q29.6875 12.75 24.625 0.4375
Q19.5781 -11.8594 12.3594 -21.0469" id="ArialMT-29"/>
     <path d="
M23.3906 -21.0469
Q16.1094 -11.8594 11.0781 0.4375
Q6.0625 12.75 6.0625 25.9219
Q6.0625 37.5469 9.8125 48.1875
Q14.2031 60.5469 23.3906 72.7969
L29.6875 72.7969
Q23.7812 62.6406 21.875 58.2969
Q18.8906 51.5625 17.1875 44.2344
Q15.0938 35.1094 15.0938 25.875
Q15.0938 2.39062 29.6875 -21.0469
z
" id="ArialMT-28"/>
    </defs>
    <g transform="translate(7.2 17.68275)scale(0.144 -0.144)">
     <use xlink:href="#ArialMT-4d"/>
     <use x="83.30078125" xlink:href="#ArialMT-65"/>
     <use x="138.916015625" xlink:href="#ArialMT-61"/>
     <use x="194.53125" xlink:href="#ArialMT-6e"/>
     <use x="250.146484375" xlink:href="#ArialMT-20"/>
     <use x="277.9296875" xlink:href="#ArialMT-73"/>
     <use x="327.9296875" xlink:href="#ArialMT-63"/>
     <use x="377.9296875" xlink:href="#ArialMT-6f"/>
     <use x="433.544921875" xlink:href="#ArialMT-72"/>
     <use x="466.845703125" xlink:href="#ArialMT-65"/>
     <use x="522.4609375" xlink:href="#ArialMT-20"/>
     <use x="550.244140625" xlink:href="#ArialMT-70"/>
     <use x="605.859375" xlink:href="#ArialMT-65"/>
     <use x="661.474609375" xlink:href="#ArialMT-72"/>
     <use x="694.775390625" xlink:href="#ArialMT-20"/>
     <use x="722.55859375" xlink:href="#ArialMT-73"/>
     <use x="772.55859375" xlink:href="#ArialMT-74"/>
     <use x="800.341796875" xlink:href="#ArialMT-61"/>
     <use x="855.95703125" xlink:href="#ArialMT-67"/>
     <use x="911.572265625" xlink:href="#ArialMT-65"/>
     <use x="967.1875" xlink:href="#ArialMT-20"/>
     <use x="994.970703125" xlink:href="#ArialMT-67"/>
     <use x="1050.5859375" xlink:href="#ArialMT-61"/>
     <use x="1106.20117188" xlink:href="#ArialMT-6d"/>
     <use x="1189.50195312" xlink:href="#ArialMT-65"/>
     <use x="1245.1171875" xlink:href="#ArialMT-20"/>
     <use x="1272.90039062" xlink:href="#ArialMT-6f"/>
     <use x="1328.515625" xlink:href="#ArialMT-76"/>
     <use x="1378.515625" xlink:href="#ArialMT-65"/>
     <use x="1434.13085938" xlink:href="#ArialMT-72"/>
     <use x="1467.43164062" xlink:href="#ArialMT-20"/>
     <use x="1495.21484375" xlink:href="#ArialMT-32"/>
     <use x="1550.83007812" xlink:href="#ArialMT-30"/>
     <use x="1606.4453125" xlink:href="#ArialMT-30"/>
     <use x="1662.06054688" xlink:href="#ArialMT-20"/>
     <use x="1689.84375" xlink:href="#ArialMT-72"/>
     <use x="1723.14453125" xlink:href="#ArialMT-6f"/>
     <use x="1778.75976562" xlink:href="#ArialMT-75"/>
     <use x="1834.375" xlink:href="#ArialMT-6e"/>
     <use x="1889.99023438" xlink:href="#ArialMT-64"/>
     <use x="1945.60546875" xlink:href="#ArialMT-73"/>
     <use x="1995.60546875" xlink:href="#ArialMT-20"/>
     <use x="2023.38867188" xlink:href="#ArialMT-72"/>
     <use x="2056.68945312" xlink:href="#ArialMT-65"/>
     <use x="2112.3046875" xlink:href="#ArialMT-70"/>
     <use x="2167.91992188" xlink:href="#ArialMT-65"/>
     <use x="2223.53515625" xlink:href="#ArialMT-61"/>
     <use x="2279.15039062" xlink:href="#ArialMT-74"/>
     <use x="2306.93359375" xlink:href="#ArialMT-65"/>
     <use x="2362.54882812" xlink:href="#ArialMT-64"/>
     <use x="2418.1640625" xlink:href="#ArialMT-20"/>
     <use x="2445.94726562" xlink:href="#ArialMT-31"/>
     <use x="2501.5625" xlink:href="#ArialMT-30"/>
     <use x="2557.17773438" xlink:href="#ArialMT-20"/>
     <use x="2584.9609375" xlink:href="#ArialMT-74"/>
     <use x="2612.74414062" xlink:href="#ArialMT-69"/>
     <use x="2634.9609375" xlink:href="#ArialMT-6d"/>
     <use x="2718.26171875" xlink:href="#ArialMT-65"/>
     <use x="2773.87695312" xlink:href="#ArialMT-73"/>
     <use x="2823.87695312" xlink:href="#ArialMT-20"/>
     <use x="2851.66015625" xlink:href="#ArialMT-28"/>
     <use x="2884.9609375" xlink:href="#ArialMT-32"/>
     <use x="2940.57617188" xlink:href="#ArialMT-30"/>
     <use x="2996.19140625" xlink:href="#ArialMT-20"/>
     <use x="3023.97460938" xlink:href="#ArialMT-73"/>
     <use x="3073.97460938" xlink:href="#ArialMT-74"/>
     <use x="3101.7578125" xlink:href="#ArialMT-72"/>
     <use x="3135.05859375" xlink:href="#ArialMT-61"/>
     <use x="3190.67382812" xlink:href="#ArialMT-74"/>
     <use x="3218.45703125" xlink:href="#ArialMT-65"/>
     <use x="3274.07226562" xlink:href="#ArialMT-67"/>
     <use x="3329.6875" xlink:href="#ArialMT-69"/>
     <use x="3351.90429688" xlink:href="#ArialMT-65"/>
     <use x="3407.51953125" xlink:href="#ArialMT-73"/>
     <use x="3457.51953125" xlink:href="#ArialMT-29"/>
    </g>
   </g>
  </g>
 </g>
 <defs>
  <clipPath id="p245767502f">
   <rect height="345.6" width="446.4" x="35.058375" y="22.68275"/>
  </clipPath>
 </defs>
</svg>
