<?xml version="1.0" encoding="utf-8" standalone="no"?>
<!DOCTYPE svg PUBLIC "-//W3C//DTD SVG 1.1//EN"
  "http://www.w3.org/Graphics/SVG/1.1/DTD/svg11.dtd">
<!-- Created with matplotlib (http://matplotlib.org/) -->
<svg height="460pt" version="1.1" viewBox="0 0 697 460" width="697pt" xmlns="http://www.w3.org/2000/svg" xmlns:xlink="http://www.w3.org/1999/xlink">
 <defs>
  <style type="text/css">
*{stroke-linecap:butt;stroke-linejoin:round;}
  </style>
 </defs>
 <g id="figure_1">
  <g id="patch_1">
   <path d="
M0 460.099
L697.062 460.099
L697.062 -5.68434e-14
L0 -5.68434e-14
z
" style="fill:#ffffff;"/>
  </g>
  <g id="axes_1">
   <g id="patch_2">
    <path d="
M20.2625 368.742
L689.863 368.742
L689.863 23.1418
L20.2625 23.1418
z
" style="fill:#ffffff;"/>
   </g>
   <g id="line2d_1">
    <path clip-path="url(#p6c5008eb1f)" d="
M28.8471 28.0789
L46.0163 28.0789
L46.0163 28.0789
L28.8471 28.0789
L28.8471 28.0789" style="fill:none;stroke:#0000ff;stroke-linecap:square;"/>
   </g>
   <g id="line2d_2">
    <path clip-path="url(#p6c5008eb1f)" d="
M37.4317 28.0789
L37.4317 28.0789" style="fill:none;stroke:#0000ff;stroke-dasharray:6.000000,6.000000;stroke-dashoffset:0.0;"/>
   </g>
   <g id="line2d_3">
    <path clip-path="url(#p6c5008eb1f)" d="
M37.4317 28.0789
L37.4317 28.0789" style="fill:none;stroke:#0000ff;stroke-dasharray:6.000000,6.000000;stroke-dashoffset:0.0;"/>
   </g>
   <g id="line2d_4">
    <path clip-path="url(#p6c5008eb1f)" d="
M33.1394 28.0789
L41.724 28.0789" style="fill:none;stroke:#000000;stroke-linecap:square;"/>
   </g>
   <g id="line2d_5">
    <path clip-path="url(#p6c5008eb1f)" d="
M33.1394 28.0789
L41.724 28.0789" style="fill:none;stroke:#000000;stroke-linecap:square;"/>
   </g>
   <g id="line2d_6">
    <path clip-path="url(#p6c5008eb1f)" d="
M28.8471 28.0789
L46.0163 28.0789" style="fill:none;stroke:#ff0000;stroke-linecap:square;"/>
   </g>
   <g id="line2d_7"/>
   <g id="line2d_8">
    <path clip-path="url(#p6c5008eb1f)" d="
M63.1856 146.57
L80.3548 146.57
L80.3548 107.073
L63.1856 107.073
L63.1856 146.57" style="fill:none;stroke:#0000ff;stroke-linecap:square;"/>
   </g>
   <g id="line2d_9">
    <path clip-path="url(#p6c5008eb1f)" d="
M71.7702 146.57
L71.7702 205.816" style="fill:none;stroke:#0000ff;stroke-dasharray:6.000000,6.000000;stroke-dashoffset:0.0;"/>
   </g>
   <g id="line2d_10">
    <path clip-path="url(#p6c5008eb1f)" d="
M71.7702 107.073
L71.7702 47.8275" style="fill:none;stroke:#0000ff;stroke-dasharray:6.000000,6.000000;stroke-dashoffset:0.0;"/>
   </g>
   <g id="line2d_11">
    <path clip-path="url(#p6c5008eb1f)" d="
M67.4779 205.816
L76.0625 205.816" style="fill:none;stroke:#000000;stroke-linecap:square;"/>
   </g>
   <g id="line2d_12">
    <path clip-path="url(#p6c5008eb1f)" d="
M67.4779 47.8275
L76.0625 47.8275" style="fill:none;stroke:#000000;stroke-linecap:square;"/>
   </g>
   <g id="line2d_13">
    <path clip-path="url(#p6c5008eb1f)" d="
M63.1856 126.822
L80.3548 126.822" style="fill:none;stroke:#ff0000;stroke-linecap:square;"/>
   </g>
   <g id="line2d_14"/>
   <g id="line2d_15">
    <path clip-path="url(#p6c5008eb1f)" d="
M97.524 146.57
L114.693 146.57
L114.693 126.822
L97.524 126.822
L97.524 146.57" style="fill:none;stroke:#0000ff;stroke-linecap:square;"/>
   </g>
   <g id="line2d_16">
    <path clip-path="url(#p6c5008eb1f)" d="
M106.109 146.57
L106.109 146.57" style="fill:none;stroke:#0000ff;stroke-dasharray:6.000000,6.000000;stroke-dashoffset:0.0;"/>
   </g>
   <g id="line2d_17">
    <path clip-path="url(#p6c5008eb1f)" d="
M106.109 126.822
L106.109 107.073" style="fill:none;stroke:#0000ff;stroke-dasharray:6.000000,6.000000;stroke-dashoffset:0.0;"/>
   </g>
   <g id="line2d_18">
    <path clip-path="url(#p6c5008eb1f)" d="
M101.816 146.57
L110.401 146.57" style="fill:none;stroke:#000000;stroke-linecap:square;"/>
   </g>
   <g id="line2d_19">
    <path clip-path="url(#p6c5008eb1f)" d="
M101.816 107.073
L110.401 107.073" style="fill:none;stroke:#000000;stroke-linecap:square;"/>
   </g>
   <g id="line2d_20">
    <path clip-path="url(#p6c5008eb1f)" d="
M97.524 126.822
L114.693 126.822" style="fill:none;stroke:#ff0000;stroke-linecap:square;"/>
   </g>
   <g id="line2d_21">
    <defs>
     <path d="
M-3 0
L3 0
M0 3
L0 -3" id="md4acab13e0" style="stroke:#0000ff;stroke-width:0.5;"/>
    </defs>
    <g clip-path="url(#p6c5008eb1f)">
     <use style="fill:#0000ff;stroke:#0000ff;stroke-width:0.5;" x="106.108653846" xlink:href="#md4acab13e0" y="87.3246071429"/>
     <use style="fill:#0000ff;stroke:#0000ff;stroke-width:0.5;" x="106.108653846" xlink:href="#md4acab13e0" y="87.3246071429"/>
     <use style="fill:#0000ff;stroke:#0000ff;stroke-width:0.5;" x="106.108653846" xlink:href="#md4acab13e0" y="67.5760357143"/>
     <use style="fill:#0000ff;stroke:#0000ff;stroke-width:0.5;" x="106.108653846" xlink:href="#md4acab13e0" y="87.3246071429"/>
    </g>
   </g>
   <g id="line2d_22">
    <path clip-path="url(#p6c5008eb1f)" d="
M131.863 166.319
L149.032 166.319
L149.032 146.57
L131.863 146.57
L131.863 166.319" style="fill:none;stroke:#0000ff;stroke-linecap:square;"/>
   </g>
   <g id="line2d_23">
    <path clip-path="url(#p6c5008eb1f)" d="
M140.447 166.319
L140.447 166.319" style="fill:none;stroke:#0000ff;stroke-dasharray:6.000000,6.000000;stroke-dashoffset:0.0;"/>
   </g>
   <g id="line2d_24">
    <path clip-path="url(#p6c5008eb1f)" d="
M140.447 146.57
L140.447 146.57" style="fill:none;stroke:#0000ff;stroke-dasharray:6.000000,6.000000;stroke-dashoffset:0.0;"/>
   </g>
   <g id="line2d_25">
    <path clip-path="url(#p6c5008eb1f)" d="
M136.155 166.319
L144.739 166.319" style="fill:none;stroke:#000000;stroke-linecap:square;"/>
   </g>
   <g id="line2d_26">
    <path clip-path="url(#p6c5008eb1f)" d="
M136.155 146.57
L144.739 146.57" style="fill:none;stroke:#000000;stroke-linecap:square;"/>
   </g>
   <g id="line2d_27">
    <path clip-path="url(#p6c5008eb1f)" d="
M131.863 146.57
L149.032 146.57" style="fill:none;stroke:#ff0000;stroke-linecap:square;"/>
   </g>
   <g id="line2d_28"/>
   <g id="line2d_29">
    <path clip-path="url(#p6c5008eb1f)" d="
M166.201 186.067
L183.37 186.067
L183.37 146.57
L166.201 146.57
L166.201 186.067" style="fill:none;stroke:#0000ff;stroke-linecap:square;"/>
   </g>
   <g id="line2d_30">
    <path clip-path="url(#p6c5008eb1f)" d="
M174.786 186.067
L174.786 245.313" style="fill:none;stroke:#0000ff;stroke-dasharray:6.000000,6.000000;stroke-dashoffset:0.0;"/>
   </g>
   <g id="line2d_31">
    <path clip-path="url(#p6c5008eb1f)" d="
M174.786 146.57
L174.786 87.3246" style="fill:none;stroke:#0000ff;stroke-dasharray:6.000000,6.000000;stroke-dashoffset:0.0;"/>
   </g>
   <g id="line2d_32">
    <path clip-path="url(#p6c5008eb1f)" d="
M170.493 245.313
L179.078 245.313" style="fill:none;stroke:#000000;stroke-linecap:square;"/>
   </g>
   <g id="line2d_33">
    <path clip-path="url(#p6c5008eb1f)" d="
M170.493 87.3246
L179.078 87.3246" style="fill:none;stroke:#000000;stroke-linecap:square;"/>
   </g>
   <g id="line2d_34">
    <path clip-path="url(#p6c5008eb1f)" d="
M166.201 166.319
L183.37 166.319" style="fill:none;stroke:#ff0000;stroke-linecap:square;"/>
   </g>
   <g id="line2d_35">
    <g clip-path="url(#p6c5008eb1f)">
     <use style="fill:#0000ff;stroke:#0000ff;stroke-width:0.5;" x="174.785576923" xlink:href="#md4acab13e0" y="265.06175"/>
    </g>
   </g>
   <g id="line2d_36">
    <path clip-path="url(#p6c5008eb1f)" d="
M200.539 205.816
L217.709 205.816
L217.709 186.067
L200.539 186.067
L200.539 205.816" style="fill:none;stroke:#0000ff;stroke-linecap:square;"/>
   </g>
   <g id="line2d_37">
    <path clip-path="url(#p6c5008eb1f)" d="
M209.124 205.816
L209.124 225.565" style="fill:none;stroke:#0000ff;stroke-dasharray:6.000000,6.000000;stroke-dashoffset:0.0;"/>
   </g>
   <g id="line2d_38">
    <path clip-path="url(#p6c5008eb1f)" d="
M209.124 186.067
L209.124 186.067" style="fill:none;stroke:#0000ff;stroke-dasharray:6.000000,6.000000;stroke-dashoffset:0.0;"/>
   </g>
   <g id="line2d_39">
    <path clip-path="url(#p6c5008eb1f)" d="
M204.832 225.565
L213.416 225.565" style="fill:none;stroke:#000000;stroke-linecap:square;"/>
   </g>
   <g id="line2d_40">
    <path clip-path="url(#p6c5008eb1f)" d="
M204.832 186.067
L213.416 186.067" style="fill:none;stroke:#000000;stroke-linecap:square;"/>
   </g>
   <g id="line2d_41">
    <path clip-path="url(#p6c5008eb1f)" d="
M200.539 205.816
L217.709 205.816" style="fill:none;stroke:#ff0000;stroke-linecap:square;"/>
   </g>
   <g id="line2d_42"/>
   <g id="line2d_43">
    <path clip-path="url(#p6c5008eb1f)" d="
M234.878 225.565
L252.047 225.565
L252.047 186.067
L234.878 186.067
L234.878 225.565" style="fill:none;stroke:#0000ff;stroke-linecap:square;"/>
   </g>
   <g id="line2d_44">
    <path clip-path="url(#p6c5008eb1f)" d="
M243.463 225.565
L243.463 265.062" style="fill:none;stroke:#0000ff;stroke-dasharray:6.000000,6.000000;stroke-dashoffset:0.0;"/>
   </g>
   <g id="line2d_45">
    <path clip-path="url(#p6c5008eb1f)" d="
M243.463 186.067
L243.463 126.822" style="fill:none;stroke:#0000ff;stroke-dasharray:6.000000,6.000000;stroke-dashoffset:0.0;"/>
   </g>
   <g id="line2d_46">
    <path clip-path="url(#p6c5008eb1f)" d="
M239.17 265.062
L247.755 265.062" style="fill:none;stroke:#000000;stroke-linecap:square;"/>
   </g>
   <g id="line2d_47">
    <path clip-path="url(#p6c5008eb1f)" d="
M239.17 126.822
L247.755 126.822" style="fill:none;stroke:#000000;stroke-linecap:square;"/>
   </g>
   <g id="line2d_48">
    <path clip-path="url(#p6c5008eb1f)" d="
M234.878 205.816
L252.047 205.816" style="fill:none;stroke:#ff0000;stroke-linecap:square;"/>
   </g>
   <g id="line2d_49">
    <g clip-path="url(#p6c5008eb1f)">
     <use style="fill:#0000ff;stroke:#0000ff;stroke-width:0.5;" x="243.4625" xlink:href="#md4acab13e0" y="107.073178571"/>
    </g>
   </g>
   <g id="line2d_50">
    <path clip-path="url(#p6c5008eb1f)" d="
M269.216 225.565
L286.386 225.565
L286.386 205.816
L269.216 205.816
L269.216 225.565" style="fill:none;stroke:#0000ff;stroke-linecap:square;"/>
   </g>
   <g id="line2d_51">
    <path clip-path="url(#p6c5008eb1f)" d="
M277.801 225.565
L277.801 245.313" style="fill:none;stroke:#0000ff;stroke-dasharray:6.000000,6.000000;stroke-dashoffset:0.0;"/>
   </g>
   <g id="line2d_52">
    <path clip-path="url(#p6c5008eb1f)" d="
M277.801 205.816
L277.801 186.067" style="fill:none;stroke:#0000ff;stroke-dasharray:6.000000,6.000000;stroke-dashoffset:0.0;"/>
   </g>
   <g id="line2d_53">
    <path clip-path="url(#p6c5008eb1f)" d="
M273.509 245.313
L282.093 245.313" style="fill:none;stroke:#000000;stroke-linecap:square;"/>
   </g>
   <g id="line2d_54">
    <path clip-path="url(#p6c5008eb1f)" d="
M273.509 186.067
L282.093 186.067" style="fill:none;stroke:#000000;stroke-linecap:square;"/>
   </g>
   <g id="line2d_55">
    <path clip-path="url(#p6c5008eb1f)" d="
M269.216 225.565
L286.386 225.565" style="fill:none;stroke:#ff0000;stroke-linecap:square;"/>
   </g>
   <g id="line2d_56">
    <g clip-path="url(#p6c5008eb1f)">
     <use style="fill:#0000ff;stroke:#0000ff;stroke-width:0.5;" x="277.800961538" xlink:href="#md4acab13e0" y="166.318892857"/>
     <use style="fill:#0000ff;stroke:#0000ff;stroke-width:0.5;" x="277.800961538" xlink:href="#md4acab13e0" y="166.318892857"/>
     <use style="fill:#0000ff;stroke:#0000ff;stroke-width:0.5;" x="277.800961538" xlink:href="#md4acab13e0" y="166.318892857"/>
     <use style="fill:#0000ff;stroke:#0000ff;stroke-width:0.5;" x="277.800961538" xlink:href="#md4acab13e0" y="166.318892857"/>
     <use style="fill:#0000ff;stroke:#0000ff;stroke-width:0.5;" x="277.800961538" xlink:href="#md4acab13e0" y="166.318892857"/>
     <use style="fill:#0000ff;stroke:#0000ff;stroke-width:0.5;" x="277.800961538" xlink:href="#md4acab13e0" y="166.318892857"/>
     <use style="fill:#0000ff;stroke:#0000ff;stroke-width:0.5;" x="277.800961538" xlink:href="#md4acab13e0" y="166.318892857"/>
     <use style="fill:#0000ff;stroke:#0000ff;stroke-width:0.5;" x="277.800961538" xlink:href="#md4acab13e0" y="166.318892857"/>
     <use style="fill:#0000ff;stroke:#0000ff;stroke-width:0.5;" x="277.800961538" xlink:href="#md4acab13e0" y="166.318892857"/>
     <use style="fill:#0000ff;stroke:#0000ff;stroke-width:0.5;" x="277.800961538" xlink:href="#md4acab13e0" y="166.318892857"/>
    </g>
   </g>
   <g id="line2d_57">
    <path clip-path="url(#p6c5008eb1f)" d="
M303.555 265.062
L320.724 265.062
L320.724 245.313
L303.555 245.313
L303.555 265.062" style="fill:none;stroke:#0000ff;stroke-linecap:square;"/>
   </g>
   <g id="line2d_58">
    <path clip-path="url(#p6c5008eb1f)" d="
M312.139 265.062
L312.139 284.81" style="fill:none;stroke:#0000ff;stroke-dasharray:6.000000,6.000000;stroke-dashoffset:0.0;"/>
   </g>
   <g id="line2d_59">
    <path clip-path="url(#p6c5008eb1f)" d="
M312.139 245.313
L312.139 225.565" style="fill:none;stroke:#0000ff;stroke-dasharray:6.000000,6.000000;stroke-dashoffset:0.0;"/>
   </g>
   <g id="line2d_60">
    <path clip-path="url(#p6c5008eb1f)" d="
M307.847 284.81
L316.432 284.81" style="fill:none;stroke:#000000;stroke-linecap:square;"/>
   </g>
   <g id="line2d_61">
    <path clip-path="url(#p6c5008eb1f)" d="
M307.847 225.565
L316.432 225.565" style="fill:none;stroke:#000000;stroke-linecap:square;"/>
   </g>
   <g id="line2d_62">
    <path clip-path="url(#p6c5008eb1f)" d="
M303.555 265.062
L320.724 265.062" style="fill:none;stroke:#ff0000;stroke-linecap:square;"/>
   </g>
   <g id="line2d_63">
    <g clip-path="url(#p6c5008eb1f)">
     <use style="fill:#0000ff;stroke:#0000ff;stroke-width:0.5;" x="312.139423077" xlink:href="#md4acab13e0" y="205.816035714"/>
     <use style="fill:#0000ff;stroke:#0000ff;stroke-width:0.5;" x="312.139423077" xlink:href="#md4acab13e0" y="205.816035714"/>
     <use style="fill:#0000ff;stroke:#0000ff;stroke-width:0.5;" x="312.139423077" xlink:href="#md4acab13e0" y="205.816035714"/>
    </g>
   </g>
   <g id="line2d_64">
    <path clip-path="url(#p6c5008eb1f)" d="
M337.893 284.81
L355.062 284.81
L355.062 284.81
L337.893 284.81
L337.893 284.81" style="fill:none;stroke:#0000ff;stroke-linecap:square;"/>
   </g>
   <g id="line2d_65">
    <path clip-path="url(#p6c5008eb1f)" d="
M346.478 284.81
L346.478 284.81" style="fill:none;stroke:#0000ff;stroke-dasharray:6.000000,6.000000;stroke-dashoffset:0.0;"/>
   </g>
   <g id="line2d_66">
    <path clip-path="url(#p6c5008eb1f)" d="
M346.478 284.81
L346.478 265.062" style="fill:none;stroke:#0000ff;stroke-dasharray:6.000000,6.000000;stroke-dashoffset:0.0;"/>
   </g>
   <g id="line2d_67">
    <path clip-path="url(#p6c5008eb1f)" d="
M342.186 284.81
L350.77 284.81" style="fill:none;stroke:#000000;stroke-linecap:square;"/>
   </g>
   <g id="line2d_68">
    <path clip-path="url(#p6c5008eb1f)" d="
M342.186 265.062
L350.77 265.062" style="fill:none;stroke:#000000;stroke-linecap:square;"/>
   </g>
   <g id="line2d_69">
    <path clip-path="url(#p6c5008eb1f)" d="
M337.893 284.81
L355.062 284.81" style="fill:none;stroke:#ff0000;stroke-linecap:square;"/>
   </g>
   <g id="line2d_70"/>
   <g id="line2d_71">
    <path clip-path="url(#p6c5008eb1f)" d="
M372.232 284.81
L389.401 284.81
L389.401 284.81
L372.232 284.81
L372.232 284.81" style="fill:none;stroke:#0000ff;stroke-linecap:square;"/>
   </g>
   <g id="line2d_72">
    <path clip-path="url(#p6c5008eb1f)" d="
M380.816 284.81
L380.816 284.81" style="fill:none;stroke:#0000ff;stroke-dasharray:6.000000,6.000000;stroke-dashoffset:0.0;"/>
   </g>
   <g id="line2d_73">
    <path clip-path="url(#p6c5008eb1f)" d="
M380.816 284.81
L380.816 265.062" style="fill:none;stroke:#0000ff;stroke-dasharray:6.000000,6.000000;stroke-dashoffset:0.0;"/>
   </g>
   <g id="line2d_74">
    <path clip-path="url(#p6c5008eb1f)" d="
M376.524 284.81
L385.109 284.81" style="fill:none;stroke:#000000;stroke-linecap:square;"/>
   </g>
   <g id="line2d_75">
    <path clip-path="url(#p6c5008eb1f)" d="
M376.524 265.062
L385.109 265.062" style="fill:none;stroke:#000000;stroke-linecap:square;"/>
   </g>
   <g id="line2d_76">
    <path clip-path="url(#p6c5008eb1f)" d="
M372.232 284.81
L389.401 284.81" style="fill:none;stroke:#ff0000;stroke-linecap:square;"/>
   </g>
   <g id="line2d_77"/>
   <g id="line2d_78">
    <path clip-path="url(#p6c5008eb1f)" d="
M406.57 304.559
L423.739 304.559
L423.739 284.81
L406.57 284.81
L406.57 304.559" style="fill:none;stroke:#0000ff;stroke-linecap:square;"/>
   </g>
   <g id="line2d_79">
    <path clip-path="url(#p6c5008eb1f)" d="
M415.155 304.559
L415.155 304.559" style="fill:none;stroke:#0000ff;stroke-dasharray:6.000000,6.000000;stroke-dashoffset:0.0;"/>
   </g>
   <g id="line2d_80">
    <path clip-path="url(#p6c5008eb1f)" d="
M415.155 284.81
L415.155 265.062" style="fill:none;stroke:#0000ff;stroke-dasharray:6.000000,6.000000;stroke-dashoffset:0.0;"/>
   </g>
   <g id="line2d_81">
    <path clip-path="url(#p6c5008eb1f)" d="
M410.863 304.559
L419.447 304.559" style="fill:none;stroke:#000000;stroke-linecap:square;"/>
   </g>
   <g id="line2d_82">
    <path clip-path="url(#p6c5008eb1f)" d="
M410.863 265.062
L419.447 265.062" style="fill:none;stroke:#000000;stroke-linecap:square;"/>
   </g>
   <g id="line2d_83">
    <path clip-path="url(#p6c5008eb1f)" d="
M406.57 304.559
L423.739 304.559" style="fill:none;stroke:#ff0000;stroke-linecap:square;"/>
   </g>
   <g id="line2d_84">
    <g clip-path="url(#p6c5008eb1f)">
     <use style="fill:#0000ff;stroke:#0000ff;stroke-width:0.5;" x="415.154807692" xlink:href="#md4acab13e0" y="245.313178571"/>
     <use style="fill:#0000ff;stroke:#0000ff;stroke-width:0.5;" x="415.154807692" xlink:href="#md4acab13e0" y="245.313178571"/>
    </g>
   </g>
   <g id="line2d_85">
    <path clip-path="url(#p6c5008eb1f)" d="
M440.909 363.805
L458.078 363.805
L458.078 363.805
L440.909 363.805
L440.909 363.805" style="fill:none;stroke:#0000ff;stroke-linecap:square;"/>
   </g>
   <g id="line2d_86">
    <path clip-path="url(#p6c5008eb1f)" d="
M449.493 363.805
L449.493 363.805" style="fill:none;stroke:#0000ff;stroke-dasharray:6.000000,6.000000;stroke-dashoffset:0.0;"/>
   </g>
   <g id="line2d_87">
    <path clip-path="url(#p6c5008eb1f)" d="
M449.493 363.805
L449.493 363.805" style="fill:none;stroke:#0000ff;stroke-dasharray:6.000000,6.000000;stroke-dashoffset:0.0;"/>
   </g>
   <g id="line2d_88">
    <path clip-path="url(#p6c5008eb1f)" d="
M445.201 363.805
L453.786 363.805" style="fill:none;stroke:#000000;stroke-linecap:square;"/>
   </g>
   <g id="line2d_89">
    <path clip-path="url(#p6c5008eb1f)" d="
M445.201 363.805
L453.786 363.805" style="fill:none;stroke:#000000;stroke-linecap:square;"/>
   </g>
   <g id="line2d_90">
    <path clip-path="url(#p6c5008eb1f)" d="
M440.909 363.805
L458.078 363.805" style="fill:none;stroke:#ff0000;stroke-linecap:square;"/>
   </g>
   <g id="line2d_91"/>
   <g id="line2d_92">
    <path clip-path="url(#p6c5008eb1f)" d="
M475.247 363.805
L492.416 363.805
L492.416 363.805
L475.247 363.805
L475.247 363.805" style="fill:none;stroke:#0000ff;stroke-linecap:square;"/>
   </g>
   <g id="line2d_93">
    <path clip-path="url(#p6c5008eb1f)" d="
M483.832 363.805
L483.832 363.805" style="fill:none;stroke:#0000ff;stroke-dasharray:6.000000,6.000000;stroke-dashoffset:0.0;"/>
   </g>
   <g id="line2d_94">
    <path clip-path="url(#p6c5008eb1f)" d="
M483.832 363.805
L483.832 363.805" style="fill:none;stroke:#0000ff;stroke-dasharray:6.000000,6.000000;stroke-dashoffset:0.0;"/>
   </g>
   <g id="line2d_95">
    <path clip-path="url(#p6c5008eb1f)" d="
M479.539 363.805
L488.124 363.805" style="fill:none;stroke:#000000;stroke-linecap:square;"/>
   </g>
   <g id="line2d_96">
    <path clip-path="url(#p6c5008eb1f)" d="
M479.539 363.805
L488.124 363.805" style="fill:none;stroke:#000000;stroke-linecap:square;"/>
   </g>
   <g id="line2d_97">
    <path clip-path="url(#p6c5008eb1f)" d="
M475.247 363.805
L492.416 363.805" style="fill:none;stroke:#ff0000;stroke-linecap:square;"/>
   </g>
   <g id="line2d_98"/>
   <g id="line2d_99">
    <path clip-path="url(#p6c5008eb1f)" d="
M509.586 363.805
L526.755 363.805
L526.755 344.056
L509.586 344.056
L509.586 363.805" style="fill:none;stroke:#0000ff;stroke-linecap:square;"/>
   </g>
   <g id="line2d_100">
    <path clip-path="url(#p6c5008eb1f)" d="
M518.17 363.805
L518.17 363.805" style="fill:none;stroke:#0000ff;stroke-dasharray:6.000000,6.000000;stroke-dashoffset:0.0;"/>
   </g>
   <g id="line2d_101">
    <path clip-path="url(#p6c5008eb1f)" d="
M518.17 344.056
L518.17 324.307" style="fill:none;stroke:#0000ff;stroke-dasharray:6.000000,6.000000;stroke-dashoffset:0.0;"/>
   </g>
   <g id="line2d_102">
    <path clip-path="url(#p6c5008eb1f)" d="
M513.878 363.805
L522.462 363.805" style="fill:none;stroke:#000000;stroke-linecap:square;"/>
   </g>
   <g id="line2d_103">
    <path clip-path="url(#p6c5008eb1f)" d="
M513.878 324.307
L522.462 324.307" style="fill:none;stroke:#000000;stroke-linecap:square;"/>
   </g>
   <g id="line2d_104">
    <path clip-path="url(#p6c5008eb1f)" d="
M509.586 363.805
L526.755 363.805" style="fill:none;stroke:#ff0000;stroke-linecap:square;"/>
   </g>
   <g id="line2d_105"/>
   <g id="line2d_106">
    <path clip-path="url(#p6c5008eb1f)" d="
M543.924 363.805
L561.093 363.805
L561.093 363.805
L543.924 363.805
L543.924 363.805" style="fill:none;stroke:#0000ff;stroke-linecap:square;"/>
   </g>
   <g id="line2d_107">
    <path clip-path="url(#p6c5008eb1f)" d="
M552.509 363.805
L552.509 363.805" style="fill:none;stroke:#0000ff;stroke-dasharray:6.000000,6.000000;stroke-dashoffset:0.0;"/>
   </g>
   <g id="line2d_108">
    <path clip-path="url(#p6c5008eb1f)" d="
M552.509 363.805
L552.509 363.805" style="fill:none;stroke:#0000ff;stroke-dasharray:6.000000,6.000000;stroke-dashoffset:0.0;"/>
   </g>
   <g id="line2d_109">
    <path clip-path="url(#p6c5008eb1f)" d="
M548.216 363.805
L556.801 363.805" style="fill:none;stroke:#000000;stroke-linecap:square;"/>
   </g>
   <g id="line2d_110">
    <path clip-path="url(#p6c5008eb1f)" d="
M548.216 363.805
L556.801 363.805" style="fill:none;stroke:#000000;stroke-linecap:square;"/>
   </g>
   <g id="line2d_111">
    <path clip-path="url(#p6c5008eb1f)" d="
M543.924 363.805
L561.093 363.805" style="fill:none;stroke:#ff0000;stroke-linecap:square;"/>
   </g>
   <g id="line2d_112"/>
   <g id="line2d_113">
    <path clip-path="url(#p6c5008eb1f)" d="
M578.262 363.805
L595.432 363.805
L595.432 363.805
L578.262 363.805
L578.262 363.805" style="fill:none;stroke:#0000ff;stroke-linecap:square;"/>
   </g>
   <g id="line2d_114">
    <path clip-path="url(#p6c5008eb1f)" d="
M586.847 363.805
L586.847 363.805" style="fill:none;stroke:#0000ff;stroke-dasharray:6.000000,6.000000;stroke-dashoffset:0.0;"/>
   </g>
   <g id="line2d_115">
    <path clip-path="url(#p6c5008eb1f)" d="
M586.847 363.805
L586.847 363.805" style="fill:none;stroke:#0000ff;stroke-dasharray:6.000000,6.000000;stroke-dashoffset:0.0;"/>
   </g>
   <g id="line2d_116">
    <path clip-path="url(#p6c5008eb1f)" d="
M582.555 363.805
L591.139 363.805" style="fill:none;stroke:#000000;stroke-linecap:square;"/>
   </g>
   <g id="line2d_117">
    <path clip-path="url(#p6c5008eb1f)" d="
M582.555 363.805
L591.139 363.805" style="fill:none;stroke:#000000;stroke-linecap:square;"/>
   </g>
   <g id="line2d_118">
    <path clip-path="url(#p6c5008eb1f)" d="
M578.262 363.805
L595.432 363.805" style="fill:none;stroke:#ff0000;stroke-linecap:square;"/>
   </g>
   <g id="line2d_119"/>
   <g id="line2d_120">
    <path clip-path="url(#p6c5008eb1f)" d="
M612.601 363.805
L629.77 363.805
L629.77 363.805
L612.601 363.805
L612.601 363.805" style="fill:none;stroke:#0000ff;stroke-linecap:square;"/>
   </g>
   <g id="line2d_121">
    <path clip-path="url(#p6c5008eb1f)" d="
M621.186 363.805
L621.186 363.805" style="fill:none;stroke:#0000ff;stroke-dasharray:6.000000,6.000000;stroke-dashoffset:0.0;"/>
   </g>
   <g id="line2d_122">
    <path clip-path="url(#p6c5008eb1f)" d="
M621.186 363.805
L621.186 363.805" style="fill:none;stroke:#0000ff;stroke-dasharray:6.000000,6.000000;stroke-dashoffset:0.0;"/>
   </g>
   <g id="line2d_123">
    <path clip-path="url(#p6c5008eb1f)" d="
M616.893 363.805
L625.478 363.805" style="fill:none;stroke:#000000;stroke-linecap:square;"/>
   </g>
   <g id="line2d_124">
    <path clip-path="url(#p6c5008eb1f)" d="
M616.893 363.805
L625.478 363.805" style="fill:none;stroke:#000000;stroke-linecap:square;"/>
   </g>
   <g id="line2d_125">
    <path clip-path="url(#p6c5008eb1f)" d="
M612.601 363.805
L629.77 363.805" style="fill:none;stroke:#ff0000;stroke-linecap:square;"/>
   </g>
   <g id="line2d_126"/>
   <g id="line2d_127">
    <path clip-path="url(#p6c5008eb1f)" d="
M646.939 363.805
L664.109 363.805
L664.109 363.805
L646.939 363.805
L646.939 363.805" style="fill:none;stroke:#0000ff;stroke-linecap:square;"/>
   </g>
   <g id="line2d_128">
    <path clip-path="url(#p6c5008eb1f)" d="
M655.524 363.805
L655.524 363.805" style="fill:none;stroke:#0000ff;stroke-dasharray:6.000000,6.000000;stroke-dashoffset:0.0;"/>
   </g>
   <g id="line2d_129">
    <path clip-path="url(#p6c5008eb1f)" d="
M655.524 363.805
L655.524 363.805" style="fill:none;stroke:#0000ff;stroke-dasharray:6.000000,6.000000;stroke-dashoffset:0.0;"/>
   </g>
   <g id="line2d_130">
    <path clip-path="url(#p6c5008eb1f)" d="
M651.232 363.805
L659.816 363.805" style="fill:none;stroke:#000000;stroke-linecap:square;"/>
   </g>
   <g id="line2d_131">
    <path clip-path="url(#p6c5008eb1f)" d="
M651.232 363.805
L659.816 363.805" style="fill:none;stroke:#000000;stroke-linecap:square;"/>
   </g>
   <g id="line2d_132">
    <path clip-path="url(#p6c5008eb1f)" d="
M646.939 363.805
L664.109 363.805" style="fill:none;stroke:#ff0000;stroke-linecap:square;"/>
   </g>
   <g id="line2d_133"/>
   <g id="patch_3">
    <path d="
M20.2625 23.1418
L689.862 23.1418" style="fill:none;stroke:#000000;stroke-linecap:square;stroke-linejoin:miter;"/>
   </g>
   <g id="patch_4">
    <path d="
M689.863 368.742
L689.863 23.1417" style="fill:none;stroke:#000000;stroke-linecap:square;stroke-linejoin:miter;"/>
   </g>
   <g id="patch_5">
    <path d="
M20.2625 368.742
L689.862 368.742" style="fill:none;stroke:#000000;stroke-linecap:square;stroke-linejoin:miter;"/>
   </g>
   <g id="patch_6">
    <path d="
M20.2625 368.742
L20.2625 23.1417" style="fill:none;stroke:#000000;stroke-linecap:square;stroke-linejoin:miter;"/>
   </g>
   <g id="matplotlib.axis_1">
    <g id="xtick_1">
     <g id="line2d_134">
      <defs>
       <path d="
M0 0
L0 -4" id="m93b0483c22" style="stroke:#000000;stroke-width:0.5;"/>
      </defs>
      <g>
       <use style="stroke:#000000;stroke-width:0.5;" x="37.4317307692" xlink:href="#m93b0483c22" y="368.74175"/>
      </g>
     </g>
     <g id="line2d_135">
      <defs>
       <path d="
M0 0
L0 4" id="m741efc42ff" style="stroke:#000000;stroke-width:0.5;"/>
      </defs>
      <g>
       <use style="stroke:#000000;stroke-width:0.5;" x="37.4317307692" xlink:href="#m741efc42ff" y="23.14175"/>
      </g>
     </g>
     <g id="text_1">
      <!-- Defector -->
      <defs>
       <path d="
M30.6094 48.3906
Q23.3906 48.3906 19.1875 42.75
Q14.9844 37.1094 14.9844 27.2969
Q14.9844 17.4844 19.1562 11.8438
Q23.3438 6.20312 30.6094 6.20312
Q37.7969 6.20312 41.9844 11.8594
Q46.1875 17.5312 46.1875 27.2969
Q46.1875 37.0156 41.9844 42.7031
Q37.7969 48.3906 30.6094 48.3906
M30.6094 56
Q42.3281 56 49.0156 48.375
Q55.7188 40.7656 55.7188 27.2969
Q55.7188 13.875 49.0156 6.21875
Q42.3281 -1.42188 30.6094 -1.42188
Q18.8438 -1.42188 12.1719 6.21875
Q5.51562 13.875 5.51562 27.2969
Q5.51562 40.7656 12.1719 48.375
Q18.8438 56 30.6094 56" id="DejaVuSans-6f"/>
       <path d="
M19.6719 64.7969
L19.6719 8.10938
L31.5938 8.10938
Q46.6875 8.10938 53.6875 14.9375
Q60.6875 21.7812 60.6875 36.5312
Q60.6875 51.1719 53.6875 57.9844
Q46.6875 64.7969 31.5938 64.7969
z

M9.8125 72.9062
L30.0781 72.9062
Q51.2656 72.9062 61.1719 64.0938
Q71.0938 55.2812 71.0938 36.5312
Q71.0938 17.6719 61.125 8.82812
Q51.1719 0 30.0781 0
L9.8125 0
z
" id="DejaVuSans-44"/>
       <path d="
M37.1094 75.9844
L37.1094 68.5
L28.5156 68.5
Q23.6875 68.5 21.7969 66.5469
Q19.9219 64.5938 19.9219 59.5156
L19.9219 54.6875
L34.7188 54.6875
L34.7188 47.7031
L19.9219 47.7031
L19.9219 0
L10.8906 0
L10.8906 47.7031
L2.29688 47.7031
L2.29688 54.6875
L10.8906 54.6875
L10.8906 58.5
Q10.8906 67.625 15.1406 71.7969
Q19.3906 75.9844 28.6094 75.9844
z
" id="DejaVuSans-66"/>
       <path d="
M18.3125 70.2188
L18.3125 54.6875
L36.8125 54.6875
L36.8125 47.7031
L18.3125 47.7031
L18.3125 18.0156
Q18.3125 11.3281 20.1406 9.42188
Q21.9688 7.51562 27.5938 7.51562
L36.8125 7.51562
L36.8125 0
L27.5938 0
Q17.1875 0 13.2344 3.875
Q9.28125 7.76562 9.28125 18.0156
L9.28125 47.7031
L2.6875 47.7031
L2.6875 54.6875
L9.28125 54.6875
L9.28125 70.2188
z
" id="DejaVuSans-74"/>
       <path d="
M56.2031 29.5938
L56.2031 25.2031
L14.8906 25.2031
Q15.4844 15.9219 20.4844 11.0625
Q25.4844 6.20312 34.4219 6.20312
Q39.5938 6.20312 44.4531 7.46875
Q49.3125 8.73438 54.1094 11.2812
L54.1094 2.78125
Q49.2656 0.734375 44.1875 -0.34375
Q39.1094 -1.42188 33.8906 -1.42188
Q20.7969 -1.42188 13.1562 6.1875
Q5.51562 13.8125 5.51562 26.8125
Q5.51562 40.2344 12.7656 48.1094
Q20.0156 56 32.3281 56
Q43.3594 56 49.7812 48.8906
Q56.2031 41.7969 56.2031 29.5938
M47.2188 32.2344
Q47.125 39.5938 43.0938 43.9844
Q39.0625 48.3906 32.4219 48.3906
Q24.9062 48.3906 20.3906 44.1406
Q15.875 39.8906 15.1875 32.1719
z
" id="DejaVuSans-65"/>
       <path d="
M48.7812 52.5938
L48.7812 44.1875
Q44.9688 46.2969 41.1406 47.3438
Q37.3125 48.3906 33.4062 48.3906
Q24.6562 48.3906 19.8125 42.8438
Q14.9844 37.3125 14.9844 27.2969
Q14.9844 17.2812 19.8125 11.7344
Q24.6562 6.20312 33.4062 6.20312
Q37.3125 6.20312 41.1406 7.25
Q44.9688 8.29688 48.7812 10.4062
L48.7812 2.09375
Q45.0156 0.34375 40.9844 -0.53125
Q36.9688 -1.42188 32.4219 -1.42188
Q20.0625 -1.42188 12.7812 6.34375
Q5.51562 14.1094 5.51562 27.2969
Q5.51562 40.6719 12.8594 48.3281
Q20.2188 56 33.0156 56
Q37.1562 56 41.1094 55.1406
Q45.0625 54.2969 48.7812 52.5938" id="DejaVuSans-63"/>
       <path d="
M41.1094 46.2969
Q39.5938 47.1719 37.8125 47.5781
Q36.0312 48 33.8906 48
Q26.2656 48 22.1875 43.0469
Q18.1094 38.0938 18.1094 28.8125
L18.1094 0
L9.07812 0
L9.07812 54.6875
L18.1094 54.6875
L18.1094 46.1875
Q20.9531 51.1719 25.4844 53.5781
Q30.0312 56 36.5312 56
Q37.4531 56 38.5781 55.875
Q39.7031 55.7656 41.0625 55.5156
z
" id="DejaVuSans-72"/>
      </defs>
      <g transform="translate(39.6392307692 406.49675)rotate(-90.0)scale(0.08 -0.08)">
       <use xlink:href="#DejaVuSans-44"/>
       <use x="77.001953125" xlink:href="#DejaVuSans-65"/>
       <use x="138.525390625" xlink:href="#DejaVuSans-66"/>
       <use x="173.73046875" xlink:href="#DejaVuSans-65"/>
       <use x="235.25390625" xlink:href="#DejaVuSans-63"/>
       <use x="290.234375" xlink:href="#DejaVuSans-74"/>
       <use x="329.443359375" xlink:href="#DejaVuSans-6f"/>
       <use x="390.625" xlink:href="#DejaVuSans-72"/>
      </g>
     </g>
    </g>
    <g id="xtick_2">
     <g id="line2d_136">
      <g>
       <use style="stroke:#000000;stroke-width:0.5;" x="71.7701923077" xlink:href="#m93b0483c22" y="368.74175"/>
      </g>
     </g>
     <g id="line2d_137">
      <g>
       <use style="stroke:#000000;stroke-width:0.5;" x="71.7701923077" xlink:href="#m741efc42ff" y="23.14175"/>
      </g>
     </g>
     <g id="text_2">
      <!-- ZD-Extort-2 -->
      <defs>
       <path d="
M9.8125 72.9062
L55.9062 72.9062
L55.9062 64.5938
L19.6719 64.5938
L19.6719 43.0156
L54.3906 43.0156
L54.3906 34.7188
L19.6719 34.7188
L19.6719 8.29688
L56.7812 8.29688
L56.7812 0
L9.8125 0
z
" id="DejaVuSans-45"/>
       <path d="
M5.60938 72.9062
L62.8906 72.9062
L62.8906 65.375
L16.7969 8.29688
L64.0156 8.29688
L64.0156 0
L4.5 0
L4.5 7.51562
L50.5938 64.5938
L5.60938 64.5938
z
" id="DejaVuSans-5a"/>
       <path d="
M19.1875 8.29688
L53.6094 8.29688
L53.6094 0
L7.32812 0
L7.32812 8.29688
Q12.9375 14.1094 22.625 23.8906
Q32.3281 33.6875 34.8125 36.5312
Q39.5469 41.8438 41.4219 45.5312
Q43.3125 49.2188 43.3125 52.7812
Q43.3125 58.5938 39.2344 62.25
Q35.1562 65.9219 28.6094 65.9219
Q23.9688 65.9219 18.8125 64.3125
Q13.6719 62.7031 7.8125 59.4219
L7.8125 69.3906
Q13.7656 71.7812 18.9375 73
Q24.125 74.2188 28.4219 74.2188
Q39.75 74.2188 46.4844 68.5469
Q53.2188 62.8906 53.2188 53.4219
Q53.2188 48.9219 51.5312 44.8906
Q49.8594 40.875 45.4062 35.4062
Q44.1875 33.9844 37.6406 27.2188
Q31.1094 20.4531 19.1875 8.29688" id="DejaVuSans-32"/>
       <path d="
M54.8906 54.6875
L35.1094 28.0781
L55.9062 0
L45.3125 0
L29.3906 21.4844
L13.4844 0
L2.875 0
L24.125 28.6094
L4.6875 54.6875
L15.2812 54.6875
L29.7812 35.2031
L44.2812 54.6875
z
" id="DejaVuSans-78"/>
       <path d="
M4.89062 31.3906
L31.2031 31.3906
L31.2031 23.3906
L4.89062 23.3906
z
" id="DejaVuSans-2d"/>
      </defs>
      <g transform="translate(73.9776923077 418.32925)rotate(-90.0)scale(0.08 -0.08)">
       <use xlink:href="#DejaVuSans-5a"/>
       <use x="68.505859375" xlink:href="#DejaVuSans-44"/>
       <use x="145.5078125" xlink:href="#DejaVuSans-2d"/>
       <use x="181.591796875" xlink:href="#DejaVuSans-45"/>
       <use x="244.775390625" xlink:href="#DejaVuSans-78"/>
       <use x="303.955078125" xlink:href="#DejaVuSans-74"/>
       <use x="343.1640625" xlink:href="#DejaVuSans-6f"/>
       <use x="404.345703125" xlink:href="#DejaVuSans-72"/>
       <use x="445.458984375" xlink:href="#DejaVuSans-74"/>
       <use x="484.66796875" xlink:href="#DejaVuSans-2d"/>
       <use x="520.751953125" xlink:href="#DejaVuSans-32"/>
      </g>
     </g>
    </g>
    <g id="xtick_3">
     <g id="line2d_138">
      <g>
       <use style="stroke:#000000;stroke-width:0.5;" x="106.108653846" xlink:href="#m93b0483c22" y="368.74175"/>
      </g>
     </g>
     <g id="line2d_139">
      <g>
       <use style="stroke:#000000;stroke-width:0.5;" x="106.108653846" xlink:href="#m741efc42ff" y="23.14175"/>
      </g>
     </g>
     <g id="text_3">
      <!-- Joss: 0.9 -->
      <defs>
       <path d="
M11.7188 12.4062
L22.0156 12.4062
L22.0156 0
L11.7188 0
z

M11.7188 51.7031
L22.0156 51.7031
L22.0156 39.3125
L11.7188 39.3125
z
" id="DejaVuSans-3a"/>
       <path d="
M9.8125 72.9062
L19.6719 72.9062
L19.6719 5.07812
Q19.6719 -8.10938 14.6719 -14.0625
Q9.67188 -20.0156 -1.42188 -20.0156
L-5.17188 -20.0156
L-5.17188 -11.7188
L-2.09375 -11.7188
Q4.4375 -11.7188 7.125 -8.04688
Q9.8125 -4.39062 9.8125 5.07812
z
" id="DejaVuSans-4a"/>
       <path d="
M10.6875 12.4062
L21 12.4062
L21 0
L10.6875 0
z
" id="DejaVuSans-2e"/>
       <path d="
M31.7812 66.4062
Q24.1719 66.4062 20.3281 58.9062
Q16.5 51.4219 16.5 36.375
Q16.5 21.3906 20.3281 13.8906
Q24.1719 6.39062 31.7812 6.39062
Q39.4531 6.39062 43.2812 13.8906
Q47.125 21.3906 47.125 36.375
Q47.125 51.4219 43.2812 58.9062
Q39.4531 66.4062 31.7812 66.4062
M31.7812 74.2188
Q44.0469 74.2188 50.5156 64.5156
Q56.9844 54.8281 56.9844 36.375
Q56.9844 17.9688 50.5156 8.26562
Q44.0469 -1.42188 31.7812 -1.42188
Q19.5312 -1.42188 13.0625 8.26562
Q6.59375 17.9688 6.59375 36.375
Q6.59375 54.8281 13.0625 64.5156
Q19.5312 74.2188 31.7812 74.2188" id="DejaVuSans-30"/>
       <path id="DejaVuSans-20"/>
       <path d="
M10.9844 1.51562
L10.9844 10.5
Q14.7031 8.73438 18.5 7.8125
Q22.3125 6.89062 25.9844 6.89062
Q35.75 6.89062 40.8906 13.4531
Q46.0469 20.0156 46.7812 33.4062
Q43.9531 29.2031 39.5938 26.9531
Q35.25 24.7031 29.9844 24.7031
Q19.0469 24.7031 12.6719 31.3125
Q6.29688 37.9375 6.29688 49.4219
Q6.29688 60.6406 12.9375 67.4219
Q19.5781 74.2188 30.6094 74.2188
Q43.2656 74.2188 49.9219 64.5156
Q56.5938 54.8281 56.5938 36.375
Q56.5938 19.1406 48.4062 8.85938
Q40.2344 -1.42188 26.4219 -1.42188
Q22.7031 -1.42188 18.8906 -0.6875
Q15.0938 0.046875 10.9844 1.51562
M30.6094 32.4219
Q37.25 32.4219 41.125 36.9531
Q45.0156 41.5 45.0156 49.4219
Q45.0156 57.2812 41.125 61.8438
Q37.25 66.4062 30.6094 66.4062
Q23.9688 66.4062 20.0938 61.8438
Q16.2188 57.2812 16.2188 49.4219
Q16.2188 41.5 20.0938 36.9531
Q23.9688 32.4219 30.6094 32.4219" id="DejaVuSans-39"/>
       <path d="
M44.2812 53.0781
L44.2812 44.5781
Q40.4844 46.5312 36.375 47.5
Q32.2812 48.4844 27.875 48.4844
Q21.1875 48.4844 17.8438 46.4375
Q14.5 44.3906 14.5 40.2812
Q14.5 37.1562 16.8906 35.375
Q19.2812 33.5938 26.5156 31.9844
L29.5938 31.2969
Q39.1562 29.25 43.1875 25.5156
Q47.2188 21.7812 47.2188 15.0938
Q47.2188 7.46875 41.1875 3.01562
Q35.1562 -1.42188 24.6094 -1.42188
Q20.2188 -1.42188 15.4531 -0.5625
Q10.6875 0.296875 5.42188 2
L5.42188 11.2812
Q10.4062 8.6875 15.2344 7.39062
Q20.0625 6.10938 24.8125 6.10938
Q31.1562 6.10938 34.5625 8.28125
Q37.9844 10.4531 37.9844 14.4062
Q37.9844 18.0625 35.5156 20.0156
Q33.0625 21.9688 24.7031 23.7812
L21.5781 24.5156
Q13.2344 26.2656 9.51562 29.9062
Q5.8125 33.5469 5.8125 39.8906
Q5.8125 47.6094 11.2812 51.7969
Q16.75 56 26.8125 56
Q31.7812 56 36.1719 55.2656
Q40.5781 54.5469 44.2812 53.0781" id="DejaVuSans-73"/>
      </defs>
      <g transform="translate(108.316153846 406.143)rotate(-90.0)scale(0.08 -0.08)">
       <use xlink:href="#DejaVuSans-4a"/>
       <use x="29.4921875" xlink:href="#DejaVuSans-6f"/>
       <use x="90.673828125" xlink:href="#DejaVuSans-73"/>
       <use x="142.7734375" xlink:href="#DejaVuSans-73"/>
       <use x="194.873046875" xlink:href="#DejaVuSans-3a"/>
       <use x="228.564453125" xlink:href="#DejaVuSans-20"/>
       <use x="260.3515625" xlink:href="#DejaVuSans-30"/>
       <use x="323.974609375" xlink:href="#DejaVuSans-2e"/>
       <use x="355.76171875" xlink:href="#DejaVuSans-39"/>
      </g>
     </g>
    </g>
    <g id="xtick_4">
     <g id="line2d_140">
      <g>
       <use style="stroke:#000000;stroke-width:0.5;" x="140.447115385" xlink:href="#m93b0483c22" y="368.74175"/>
      </g>
     </g>
     <g id="line2d_141">
      <g>
       <use style="stroke:#000000;stroke-width:0.5;" x="140.447115385" xlink:href="#m741efc42ff" y="23.14175"/>
      </g>
     </g>
     <g id="text_4">
      <!-- Hard Go By Majority -->
      <defs>
       <path d="
M9.8125 72.9062
L24.5156 72.9062
L43.1094 23.2969
L61.8125 72.9062
L76.5156 72.9062
L76.5156 0
L66.8906 0
L66.8906 64.0156
L48.0938 14.0156
L38.1875 14.0156
L19.3906 64.0156
L19.3906 0
L9.8125 0
z
" id="DejaVuSans-4d"/>
       <path d="
M9.42188 54.6875
L18.4062 54.6875
L18.4062 -0.984375
Q18.4062 -11.4219 14.4219 -16.1094
Q10.4531 -20.7969 1.60938 -20.7969
L-1.8125 -20.7969
L-1.8125 -13.1875
L0.59375 -13.1875
Q5.71875 -13.1875 7.5625 -10.8125
Q9.42188 -8.45312 9.42188 -0.984375
z

M9.42188 75.9844
L18.4062 75.9844
L18.4062 64.5938
L9.42188 64.5938
z
" id="DejaVuSans-6a"/>
       <path d="
M59.5156 10.4062
L59.5156 29.9844
L43.4062 29.9844
L43.4062 38.0938
L69.2812 38.0938
L69.2812 6.78125
Q63.5781 2.73438 56.6875 0.65625
Q49.8125 -1.42188 42 -1.42188
Q24.9062 -1.42188 15.25 8.5625
Q5.60938 18.5625 5.60938 36.375
Q5.60938 54.25 15.25 64.2344
Q24.9062 74.2188 42 74.2188
Q49.125 74.2188 55.5469 72.4531
Q61.9688 70.7031 67.3906 67.2812
L67.3906 56.7812
Q61.9219 61.4219 55.7656 63.7656
Q49.6094 66.1094 42.8281 66.1094
Q29.4375 66.1094 22.7188 58.6406
Q16.0156 51.1719 16.0156 36.375
Q16.0156 21.625 22.7188 14.1562
Q29.4375 6.6875 42.8281 6.6875
Q48.0469 6.6875 52.1406 7.59375
Q56.25 8.5 59.5156 10.4062" id="DejaVuSans-47"/>
       <path d="
M32.1719 -5.07812
Q28.375 -14.8438 24.75 -17.8125
Q21.1406 -20.7969 15.0938 -20.7969
L7.90625 -20.7969
L7.90625 -13.2812
L13.1875 -13.2812
Q16.8906 -13.2812 18.9375 -11.5156
Q21 -9.76562 23.4844 -3.21875
L25.0938 0.875
L2.98438 54.6875
L12.5 54.6875
L29.5938 11.9219
L46.6875 54.6875
L56.2031 54.6875
z
" id="DejaVuSans-79"/>
       <path d="
M19.6719 34.8125
L19.6719 8.10938
L35.5 8.10938
Q43.4531 8.10938 47.2812 11.4062
Q51.125 14.7031 51.125 21.4844
Q51.125 28.3281 47.2812 31.5625
Q43.4531 34.8125 35.5 34.8125
z

M19.6719 64.7969
L19.6719 42.8281
L34.2812 42.8281
Q41.5 42.8281 45.0312 45.5312
Q48.5781 48.25 48.5781 53.8125
Q48.5781 59.3281 45.0312 62.0625
Q41.5 64.7969 34.2812 64.7969
z

M9.8125 72.9062
L35.0156 72.9062
Q46.2969 72.9062 52.3906 68.2188
Q58.5 63.5312 58.5 54.8906
Q58.5 48.1875 55.375 44.2344
Q52.25 40.2812 46.1875 39.3125
Q53.4688 37.75 57.5 32.7812
Q61.5312 27.8281 61.5312 20.4062
Q61.5312 10.6406 54.8906 5.3125
Q48.25 0 35.9844 0
L9.8125 0
z
" id="DejaVuSans-42"/>
       <path d="
M9.42188 54.6875
L18.4062 54.6875
L18.4062 0
L9.42188 0
z

M9.42188 75.9844
L18.4062 75.9844
L18.4062 64.5938
L9.42188 64.5938
z
" id="DejaVuSans-69"/>
       <path d="
M45.4062 46.3906
L45.4062 75.9844
L54.3906 75.9844
L54.3906 0
L45.4062 0
L45.4062 8.20312
Q42.5781 3.32812 38.25 0.953125
Q33.9375 -1.42188 27.875 -1.42188
Q17.9688 -1.42188 11.7344 6.48438
Q5.51562 14.4062 5.51562 27.2969
Q5.51562 40.1875 11.7344 48.0938
Q17.9688 56 27.875 56
Q33.9375 56 38.25 53.625
Q42.5781 51.2656 45.4062 46.3906
M14.7969 27.2969
Q14.7969 17.3906 18.875 11.75
Q22.9531 6.10938 30.0781 6.10938
Q37.2031 6.10938 41.2969 11.75
Q45.4062 17.3906 45.4062 27.2969
Q45.4062 37.2031 41.2969 42.8438
Q37.2031 48.4844 30.0781 48.4844
Q22.9531 48.4844 18.875 42.8438
Q14.7969 37.2031 14.7969 27.2969" id="DejaVuSans-64"/>
       <path d="
M9.8125 72.9062
L19.6719 72.9062
L19.6719 43.0156
L55.5156 43.0156
L55.5156 72.9062
L65.375 72.9062
L65.375 0
L55.5156 0
L55.5156 34.7188
L19.6719 34.7188
L19.6719 0
L9.8125 0
z
" id="DejaVuSans-48"/>
       <path d="
M34.2812 27.4844
Q23.3906 27.4844 19.1875 25
Q14.9844 22.5156 14.9844 16.5
Q14.9844 11.7188 18.1406 8.90625
Q21.2969 6.10938 26.7031 6.10938
Q34.1875 6.10938 38.7031 11.4062
Q43.2188 16.7031 43.2188 25.4844
L43.2188 27.4844
z

M52.2031 31.2031
L52.2031 0
L43.2188 0
L43.2188 8.29688
Q40.1406 3.32812 35.5469 0.953125
Q30.9531 -1.42188 24.3125 -1.42188
Q15.9219 -1.42188 10.9531 3.29688
Q6 8.01562 6 15.9219
Q6 25.1406 12.1719 29.8281
Q18.3594 34.5156 30.6094 34.5156
L43.2188 34.5156
L43.2188 35.4062
Q43.2188 41.6094 39.1406 45
Q35.0625 48.3906 27.6875 48.3906
Q23 48.3906 18.5469 47.2656
Q14.1094 46.1406 10.0156 43.8906
L10.0156 52.2031
Q14.9375 54.1094 19.5781 55.0469
Q24.2188 56 28.6094 56
Q40.4844 56 46.3438 49.8438
Q52.2031 43.7031 52.2031 31.2031" id="DejaVuSans-61"/>
      </defs>
      <g transform="translate(142.654615385 452.89925)rotate(-90.0)scale(0.08 -0.08)">
       <use xlink:href="#DejaVuSans-48"/>
       <use x="75.1953125" xlink:href="#DejaVuSans-61"/>
       <use x="136.474609375" xlink:href="#DejaVuSans-72"/>
       <use x="175.837890625" xlink:href="#DejaVuSans-64"/>
       <use x="239.314453125" xlink:href="#DejaVuSans-20"/>
       <use x="271.1015625" xlink:href="#DejaVuSans-47"/>
       <use x="348.591796875" xlink:href="#DejaVuSans-6f"/>
       <use x="409.7734375" xlink:href="#DejaVuSans-20"/>
       <use x="441.560546875" xlink:href="#DejaVuSans-42"/>
       <use x="510.1640625" xlink:href="#DejaVuSans-79"/>
       <use x="569.34375" xlink:href="#DejaVuSans-20"/>
       <use x="601.130859375" xlink:href="#DejaVuSans-4d"/>
       <use x="687.41015625" xlink:href="#DejaVuSans-61"/>
       <use x="748.689453125" xlink:href="#DejaVuSans-6a"/>
       <use x="776.47265625" xlink:href="#DejaVuSans-6f"/>
       <use x="837.654296875" xlink:href="#DejaVuSans-72"/>
       <use x="878.767578125" xlink:href="#DejaVuSans-69"/>
       <use x="906.55078125" xlink:href="#DejaVuSans-74"/>
       <use x="945.759765625" xlink:href="#DejaVuSans-79"/>
      </g>
     </g>
    </g>
    <g id="xtick_5">
     <g id="line2d_142">
      <g>
       <use style="stroke:#000000;stroke-width:0.5;" x="174.785576923" xlink:href="#m93b0483c22" y="368.74175"/>
      </g>
     </g>
     <g id="line2d_143">
      <g>
       <use style="stroke:#000000;stroke-width:0.5;" x="174.785576923" xlink:href="#m741efc42ff" y="23.14175"/>
      </g>
     </g>
     <g id="text_5">
      <!-- Calculator -->
      <defs>
       <path d="
M8.5 21.5781
L8.5 54.6875
L17.4844 54.6875
L17.4844 21.9219
Q17.4844 14.1562 20.5 10.2656
Q23.5312 6.39062 29.5938 6.39062
Q36.8594 6.39062 41.0781 11.0312
Q45.3125 15.6719 45.3125 23.6875
L45.3125 54.6875
L54.2969 54.6875
L54.2969 0
L45.3125 0
L45.3125 8.40625
Q42.0469 3.42188 37.7188 1
Q33.4062 -1.42188 27.6875 -1.42188
Q18.2656 -1.42188 13.375 4.4375
Q8.5 10.2969 8.5 21.5781
M31.1094 56
z
" id="DejaVuSans-75"/>
       <path d="
M9.42188 75.9844
L18.4062 75.9844
L18.4062 0
L9.42188 0
z
" id="DejaVuSans-6c"/>
       <path d="
M64.4062 67.2812
L64.4062 56.8906
Q59.4219 61.5312 53.7812 63.8125
Q48.1406 66.1094 41.7969 66.1094
Q29.2969 66.1094 22.6562 58.4688
Q16.0156 50.8281 16.0156 36.375
Q16.0156 21.9688 22.6562 14.3281
Q29.2969 6.6875 41.7969 6.6875
Q48.1406 6.6875 53.7812 8.98438
Q59.4219 11.2812 64.4062 15.9219
L64.4062 5.60938
Q59.2344 2.09375 53.4375 0.328125
Q47.6562 -1.42188 41.2188 -1.42188
Q24.6562 -1.42188 15.125 8.70312
Q5.60938 18.8438 5.60938 36.375
Q5.60938 53.9531 15.125 64.0781
Q24.6562 74.2188 41.2188 74.2188
Q47.75 74.2188 53.5312 72.4844
Q59.3281 70.75 64.4062 67.2812" id="DejaVuSans-43"/>
      </defs>
      <g transform="translate(176.993076923 412.918)rotate(-90.0)scale(0.08 -0.08)">
       <use xlink:href="#DejaVuSans-43"/>
       <use x="69.82421875" xlink:href="#DejaVuSans-61"/>
       <use x="131.103515625" xlink:href="#DejaVuSans-6c"/>
       <use x="158.88671875" xlink:href="#DejaVuSans-63"/>
       <use x="213.8671875" xlink:href="#DejaVuSans-75"/>
       <use x="277.24609375" xlink:href="#DejaVuSans-6c"/>
       <use x="305.029296875" xlink:href="#DejaVuSans-61"/>
       <use x="366.30859375" xlink:href="#DejaVuSans-74"/>
       <use x="405.517578125" xlink:href="#DejaVuSans-6f"/>
       <use x="466.69921875" xlink:href="#DejaVuSans-72"/>
      </g>
     </g>
    </g>
    <g id="xtick_6">
     <g id="line2d_144">
      <g>
       <use style="stroke:#000000;stroke-width:0.5;" x="209.124038462" xlink:href="#m93b0483c22" y="368.74175"/>
      </g>
     </g>
     <g id="line2d_145">
      <g>
       <use style="stroke:#000000;stroke-width:0.5;" x="209.124038462" xlink:href="#m741efc42ff" y="23.14175"/>
      </g>
     </g>
     <g id="text_6">
      <!-- Prober 3 -->
      <defs>
       <path d="
M40.5781 39.3125
Q47.6562 37.7969 51.625 33
Q55.6094 28.2188 55.6094 21.1875
Q55.6094 10.4062 48.1875 4.48438
Q40.7656 -1.42188 27.0938 -1.42188
Q22.5156 -1.42188 17.6562 -0.515625
Q12.7969 0.390625 7.625 2.20312
L7.625 11.7188
Q11.7188 9.32812 16.5938 8.10938
Q21.4844 6.89062 26.8125 6.89062
Q36.0781 6.89062 40.9375 10.5469
Q45.7969 14.2031 45.7969 21.1875
Q45.7969 27.6406 41.2812 31.2656
Q36.7656 34.9062 28.7188 34.9062
L20.2188 34.9062
L20.2188 43.0156
L29.1094 43.0156
Q36.375 43.0156 40.2344 45.9219
Q44.0938 48.8281 44.0938 54.2969
Q44.0938 59.9062 40.1094 62.9062
Q36.1406 65.9219 28.7188 65.9219
Q24.6562 65.9219 20.0156 65.0312
Q15.375 64.1562 9.8125 62.3125
L9.8125 71.0938
Q15.4375 72.6562 20.3438 73.4375
Q25.25 74.2188 29.5938 74.2188
Q40.8281 74.2188 47.3594 69.1094
Q53.9062 64.0156 53.9062 55.3281
Q53.9062 49.2656 50.4375 45.0938
Q46.9688 40.9219 40.5781 39.3125" id="DejaVuSans-33"/>
       <path d="
M19.6719 64.7969
L19.6719 37.4062
L32.0781 37.4062
Q38.9688 37.4062 42.7188 40.9688
Q46.4844 44.5312 46.4844 51.125
Q46.4844 57.6719 42.7188 61.2344
Q38.9688 64.7969 32.0781 64.7969
z

M9.8125 72.9062
L32.0781 72.9062
Q44.3438 72.9062 50.6094 67.3594
Q56.8906 61.8125 56.8906 51.125
Q56.8906 40.3281 50.6094 34.8125
Q44.3438 29.2969 32.0781 29.2969
L19.6719 29.2969
L19.6719 0
L9.8125 0
z
" id="DejaVuSans-50"/>
       <path d="
M48.6875 27.2969
Q48.6875 37.2031 44.6094 42.8438
Q40.5312 48.4844 33.4062 48.4844
Q26.2656 48.4844 22.1875 42.8438
Q18.1094 37.2031 18.1094 27.2969
Q18.1094 17.3906 22.1875 11.75
Q26.2656 6.10938 33.4062 6.10938
Q40.5312 6.10938 44.6094 11.75
Q48.6875 17.3906 48.6875 27.2969
M18.1094 46.3906
Q20.9531 51.2656 25.2656 53.625
Q29.5938 56 35.5938 56
Q45.5625 56 51.7812 48.0938
Q58.0156 40.1875 58.0156 27.2969
Q58.0156 14.4062 51.7812 6.48438
Q45.5625 -1.42188 35.5938 -1.42188
Q29.5938 -1.42188 25.2656 0.953125
Q20.9531 3.32812 18.1094 8.20312
L18.1094 0
L9.07812 0
L9.07812 75.9844
L18.1094 75.9844
z
" id="DejaVuSans-62"/>
      </defs>
      <g transform="translate(211.331538462 405.7105)rotate(-90.0)scale(0.08 -0.08)">
       <use xlink:href="#DejaVuSans-50"/>
       <use x="58.552734375" xlink:href="#DejaVuSans-72"/>
       <use x="97.416015625" xlink:href="#DejaVuSans-6f"/>
       <use x="158.59765625" xlink:href="#DejaVuSans-62"/>
       <use x="222.07421875" xlink:href="#DejaVuSans-65"/>
       <use x="283.59765625" xlink:href="#DejaVuSans-72"/>
       <use x="324.7109375" xlink:href="#DejaVuSans-20"/>
       <use x="356.498046875" xlink:href="#DejaVuSans-33"/>
      </g>
     </g>
    </g>
    <g id="xtick_7">
     <g id="line2d_146">
      <g>
       <use style="stroke:#000000;stroke-width:0.5;" x="243.4625" xlink:href="#m93b0483c22" y="368.74175"/>
      </g>
     </g>
     <g id="line2d_147">
      <g>
       <use style="stroke:#000000;stroke-width:0.5;" x="243.4625" xlink:href="#m741efc42ff" y="23.14175"/>
      </g>
     </g>
     <g id="text_7">
      <!-- Random: 0.5 -->
      <defs>
       <path d="
M44.3906 34.1875
Q47.5625 33.1094 50.5625 29.5938
Q53.5625 26.0781 56.5938 19.9219
L66.6094 0
L56 0
L46.6875 18.7031
Q43.0625 26.0312 39.6719 28.4219
Q36.2812 30.8125 30.4219 30.8125
L19.6719 30.8125
L19.6719 0
L9.8125 0
L9.8125 72.9062
L32.0781 72.9062
Q44.5781 72.9062 50.7344 67.6719
Q56.8906 62.4531 56.8906 51.9062
Q56.8906 45.0156 53.6875 40.4688
Q50.4844 35.9375 44.3906 34.1875
M19.6719 64.7969
L19.6719 38.9219
L32.0781 38.9219
Q39.2031 38.9219 42.8438 42.2188
Q46.4844 45.5156 46.4844 51.9062
Q46.4844 58.2969 42.8438 61.5469
Q39.2031 64.7969 32.0781 64.7969
z
" id="DejaVuSans-52"/>
       <path d="
M52 44.1875
Q55.375 50.25 60.0625 53.125
Q64.75 56 71.0938 56
Q79.6406 56 84.2812 50.0156
Q88.9219 44.0469 88.9219 33.0156
L88.9219 0
L79.8906 0
L79.8906 32.7188
Q79.8906 40.5781 77.0938 44.375
Q74.3125 48.1875 68.6094 48.1875
Q61.625 48.1875 57.5625 43.5469
Q53.5156 38.9219 53.5156 30.9062
L53.5156 0
L44.4844 0
L44.4844 32.7188
Q44.4844 40.625 41.7031 44.4062
Q38.9219 48.1875 33.1094 48.1875
Q26.2188 48.1875 22.1562 43.5312
Q18.1094 38.875 18.1094 30.9062
L18.1094 0
L9.07812 0
L9.07812 54.6875
L18.1094 54.6875
L18.1094 46.1875
Q21.1875 51.2188 25.4844 53.6094
Q29.7812 56 35.6875 56
Q41.6562 56 45.8281 52.9688
Q50 49.9531 52 44.1875" id="DejaVuSans-6d"/>
       <path d="
M54.8906 33.0156
L54.8906 0
L45.9062 0
L45.9062 32.7188
Q45.9062 40.4844 42.875 44.3281
Q39.8438 48.1875 33.7969 48.1875
Q26.5156 48.1875 22.3125 43.5469
Q18.1094 38.9219 18.1094 30.9062
L18.1094 0
L9.07812 0
L9.07812 54.6875
L18.1094 54.6875
L18.1094 46.1875
Q21.3438 51.125 25.7031 53.5625
Q30.0781 56 35.7969 56
Q45.2188 56 50.0469 50.1719
Q54.8906 44.3438 54.8906 33.0156" id="DejaVuSans-6e"/>
       <path d="
M10.7969 72.9062
L49.5156 72.9062
L49.5156 64.5938
L19.8281 64.5938
L19.8281 46.7344
Q21.9688 47.4688 24.1094 47.8281
Q26.2656 48.1875 28.4219 48.1875
Q40.625 48.1875 47.75 41.5
Q54.8906 34.8125 54.8906 23.3906
Q54.8906 11.625 47.5625 5.09375
Q40.2344 -1.42188 26.9062 -1.42188
Q22.3125 -1.42188 17.5469 -0.640625
Q12.7969 0.140625 7.71875 1.70312
L7.71875 11.625
Q12.1094 9.23438 16.7969 8.0625
Q21.4844 6.89062 26.7031 6.89062
Q35.1562 6.89062 40.0781 11.3281
Q45.0156 15.7656 45.0156 23.3906
Q45.0156 31 40.0781 35.4375
Q35.1562 39.8906 26.7031 39.8906
Q22.75 39.8906 18.8125 39.0156
Q14.8906 38.1406 10.7969 36.2812
z
" id="DejaVuSans-35"/>
      </defs>
      <g transform="translate(245.67 423.1205)rotate(-90.0)scale(0.08 -0.08)">
       <use xlink:href="#DejaVuSans-52"/>
       <use x="67.232421875" xlink:href="#DejaVuSans-61"/>
       <use x="128.51171875" xlink:href="#DejaVuSans-6e"/>
       <use x="191.890625" xlink:href="#DejaVuSans-64"/>
       <use x="255.3671875" xlink:href="#DejaVuSans-6f"/>
       <use x="316.548828125" xlink:href="#DejaVuSans-6d"/>
       <use x="413.9609375" xlink:href="#DejaVuSans-3a"/>
       <use x="447.65234375" xlink:href="#DejaVuSans-20"/>
       <use x="479.439453125" xlink:href="#DejaVuSans-30"/>
       <use x="543.0625" xlink:href="#DejaVuSans-2e"/>
       <use x="574.849609375" xlink:href="#DejaVuSans-35"/>
      </g>
     </g>
    </g>
    <g id="xtick_8">
     <g id="line2d_148">
      <g>
       <use style="stroke:#000000;stroke-width:0.5;" x="277.800961538" xlink:href="#m93b0483c22" y="368.74175"/>
      </g>
     </g>
     <g id="line2d_149">
      <g>
       <use style="stroke:#000000;stroke-width:0.5;" x="277.800961538" xlink:href="#m741efc42ff" y="23.14175"/>
      </g>
     </g>
     <g id="text_8">
      <!-- Hard Prober -->
      <g transform="translate(280.008461538 420.408)rotate(-90.0)scale(0.08 -0.08)">
       <use xlink:href="#DejaVuSans-48"/>
       <use x="75.1953125" xlink:href="#DejaVuSans-61"/>
       <use x="136.474609375" xlink:href="#DejaVuSans-72"/>
       <use x="175.837890625" xlink:href="#DejaVuSans-64"/>
       <use x="239.314453125" xlink:href="#DejaVuSans-20"/>
       <use x="271.1015625" xlink:href="#DejaVuSans-50"/>
       <use x="329.654296875" xlink:href="#DejaVuSans-72"/>
       <use x="368.517578125" xlink:href="#DejaVuSans-6f"/>
       <use x="429.69921875" xlink:href="#DejaVuSans-62"/>
       <use x="493.17578125" xlink:href="#DejaVuSans-65"/>
       <use x="554.69921875" xlink:href="#DejaVuSans-72"/>
      </g>
     </g>
    </g>
    <g id="xtick_9">
     <g id="line2d_150">
      <g>
       <use style="stroke:#000000;stroke-width:0.5;" x="312.139423077" xlink:href="#m93b0483c22" y="368.74175"/>
      </g>
     </g>
     <g id="line2d_151">
      <g>
       <use style="stroke:#000000;stroke-width:0.5;" x="312.139423077" xlink:href="#m741efc42ff" y="23.14175"/>
      </g>
     </g>
     <g id="text_9">
      <!-- Prober -->
      <g transform="translate(314.346923077 397.93425)rotate(-90.0)scale(0.08 -0.08)">
       <use xlink:href="#DejaVuSans-50"/>
       <use x="58.552734375" xlink:href="#DejaVuSans-72"/>
       <use x="97.416015625" xlink:href="#DejaVuSans-6f"/>
       <use x="158.59765625" xlink:href="#DejaVuSans-62"/>
       <use x="222.07421875" xlink:href="#DejaVuSans-65"/>
       <use x="283.59765625" xlink:href="#DejaVuSans-72"/>
      </g>
     </g>
    </g>
    <g id="xtick_10">
     <g id="line2d_152">
      <g>
       <use style="stroke:#000000;stroke-width:0.5;" x="346.477884615" xlink:href="#m93b0483c22" y="368.74175"/>
      </g>
     </g>
     <g id="line2d_153">
      <g>
       <use style="stroke:#000000;stroke-width:0.5;" x="346.477884615" xlink:href="#m741efc42ff" y="23.14175"/>
      </g>
     </g>
     <g id="text_10">
      <!-- Grudger -->
      <defs>
       <path d="
M45.4062 27.9844
Q45.4062 37.75 41.375 43.1094
Q37.3594 48.4844 30.0781 48.4844
Q22.8594 48.4844 18.8281 43.1094
Q14.7969 37.75 14.7969 27.9844
Q14.7969 18.2656 18.8281 12.8906
Q22.8594 7.51562 30.0781 7.51562
Q37.3594 7.51562 41.375 12.8906
Q45.4062 18.2656 45.4062 27.9844
M54.3906 6.78125
Q54.3906 -7.17188 48.1875 -13.9844
Q42 -20.7969 29.2031 -20.7969
Q24.4688 -20.7969 20.2656 -20.0938
Q16.0625 -19.3906 12.1094 -17.9219
L12.1094 -9.1875
Q16.0625 -11.3281 19.9219 -12.3438
Q23.7812 -13.375 27.7812 -13.375
Q36.625 -13.375 41.0156 -8.76562
Q45.4062 -4.15625 45.4062 5.17188
L45.4062 9.625
Q42.625 4.78125 38.2812 2.39062
Q33.9375 0 27.875 0
Q17.8281 0 11.6719 7.65625
Q5.51562 15.3281 5.51562 27.9844
Q5.51562 40.6719 11.6719 48.3281
Q17.8281 56 27.875 56
Q33.9375 56 38.2812 53.6094
Q42.625 51.2188 45.4062 46.3906
L45.4062 54.6875
L54.3906 54.6875
z
" id="DejaVuSans-67"/>
      </defs>
      <g transform="translate(348.685384615 405.21925)rotate(-90.0)scale(0.08 -0.08)">
       <use xlink:href="#DejaVuSans-47"/>
       <use x="77.490234375" xlink:href="#DejaVuSans-72"/>
       <use x="118.603515625" xlink:href="#DejaVuSans-75"/>
       <use x="181.982421875" xlink:href="#DejaVuSans-64"/>
       <use x="245.458984375" xlink:href="#DejaVuSans-67"/>
       <use x="308.935546875" xlink:href="#DejaVuSans-65"/>
       <use x="370.458984375" xlink:href="#DejaVuSans-72"/>
      </g>
     </g>
    </g>
    <g id="xtick_11">
     <g id="line2d_154">
      <g>
       <use style="stroke:#000000;stroke-width:0.5;" x="380.816346154" xlink:href="#m93b0483c22" y="368.74175"/>
      </g>
     </g>
     <g id="line2d_155">
      <g>
       <use style="stroke:#000000;stroke-width:0.5;" x="380.816346154" xlink:href="#m741efc42ff" y="23.14175"/>
      </g>
     </g>
     <g id="text_11">
      <!-- Hard Tit For Tat -->
      <defs>
       <path d="
M9.8125 72.9062
L51.7031 72.9062
L51.7031 64.5938
L19.6719 64.5938
L19.6719 43.1094
L48.5781 43.1094
L48.5781 34.8125
L19.6719 34.8125
L19.6719 0
L9.8125 0
z
" id="DejaVuSans-46"/>
       <path d="
M-0.296875 72.9062
L61.375 72.9062
L61.375 64.5938
L35.5 64.5938
L35.5 0
L25.5938 0
L25.5938 64.5938
L-0.296875 64.5938
z
" id="DejaVuSans-54"/>
      </defs>
      <g transform="translate(383.023846154 433.41925)rotate(-90.0)scale(0.08 -0.08)">
       <use xlink:href="#DejaVuSans-48"/>
       <use x="75.1953125" xlink:href="#DejaVuSans-61"/>
       <use x="136.474609375" xlink:href="#DejaVuSans-72"/>
       <use x="175.837890625" xlink:href="#DejaVuSans-64"/>
       <use x="239.314453125" xlink:href="#DejaVuSans-20"/>
       <use x="271.1015625" xlink:href="#DejaVuSans-54"/>
       <use x="329.060546875" xlink:href="#DejaVuSans-69"/>
       <use x="356.84375" xlink:href="#DejaVuSans-74"/>
       <use x="396.052734375" xlink:href="#DejaVuSans-20"/>
       <use x="427.83984375" xlink:href="#DejaVuSans-46"/>
       <use x="481.734375" xlink:href="#DejaVuSans-6f"/>
       <use x="542.916015625" xlink:href="#DejaVuSans-72"/>
       <use x="584.029296875" xlink:href="#DejaVuSans-20"/>
       <use x="615.81640625" xlink:href="#DejaVuSans-54"/>
       <use x="660.400390625" xlink:href="#DejaVuSans-61"/>
       <use x="721.6796875" xlink:href="#DejaVuSans-74"/>
      </g>
     </g>
    </g>
    <g id="xtick_12">
     <g id="line2d_156">
      <g>
       <use style="stroke:#000000;stroke-width:0.5;" x="415.154807692" xlink:href="#m93b0483c22" y="368.74175"/>
      </g>
     </g>
     <g id="line2d_157">
      <g>
       <use style="stroke:#000000;stroke-width:0.5;" x="415.154807692" xlink:href="#m741efc42ff" y="23.14175"/>
      </g>
     </g>
     <g id="text_12">
      <!-- Prober 2 -->
      <g transform="translate(417.362307692 405.5505)rotate(-90.0)scale(0.08 -0.08)">
       <use xlink:href="#DejaVuSans-50"/>
       <use x="58.552734375" xlink:href="#DejaVuSans-72"/>
       <use x="97.416015625" xlink:href="#DejaVuSans-6f"/>
       <use x="158.59765625" xlink:href="#DejaVuSans-62"/>
       <use x="222.07421875" xlink:href="#DejaVuSans-65"/>
       <use x="283.59765625" xlink:href="#DejaVuSans-72"/>
       <use x="324.7109375" xlink:href="#DejaVuSans-20"/>
       <use x="356.498046875" xlink:href="#DejaVuSans-32"/>
      </g>
     </g>
    </g>
    <g id="xtick_13">
     <g id="line2d_158">
      <g>
       <use style="stroke:#000000;stroke-width:0.5;" x="449.493269231" xlink:href="#m93b0483c22" y="368.74175"/>
      </g>
     </g>
     <g id="line2d_159">
      <g>
       <use style="stroke:#000000;stroke-width:0.5;" x="449.493269231" xlink:href="#m741efc42ff" y="23.14175"/>
      </g>
     </g>
     <g id="text_13">
      <!-- ZD-GTFT-2 -->
      <g transform="translate(451.700769231 413.7855)rotate(-90.0)scale(0.08 -0.08)">
       <use xlink:href="#DejaVuSans-5a"/>
       <use x="68.505859375" xlink:href="#DejaVuSans-44"/>
       <use x="145.5078125" xlink:href="#DejaVuSans-2d"/>
       <use x="185.216796875" xlink:href="#DejaVuSans-47"/>
       <use x="259.08203125" xlink:href="#DejaVuSans-54"/>
       <use x="320.166015625" xlink:href="#DejaVuSans-46"/>
       <use x="375.935546875" xlink:href="#DejaVuSans-54"/>
       <use x="427.89453125" xlink:href="#DejaVuSans-2d"/>
       <use x="463.978515625" xlink:href="#DejaVuSans-32"/>
      </g>
     </g>
    </g>
    <g id="xtick_14">
     <g id="line2d_160">
      <g>
       <use style="stroke:#000000;stroke-width:0.5;" x="483.831730769" xlink:href="#m93b0483c22" y="368.74175"/>
      </g>
     </g>
     <g id="line2d_161">
      <g>
       <use style="stroke:#000000;stroke-width:0.5;" x="483.831730769" xlink:href="#m741efc42ff" y="23.14175"/>
      </g>
     </g>
     <g id="text_14">
      <!-- Tit For Tat -->
      <g transform="translate(486.039230769 411.75425)rotate(-90.0)scale(0.08 -0.08)">
       <use xlink:href="#DejaVuSans-54"/>
       <use x="57.958984375" xlink:href="#DejaVuSans-69"/>
       <use x="85.7421875" xlink:href="#DejaVuSans-74"/>
       <use x="124.951171875" xlink:href="#DejaVuSans-20"/>
       <use x="156.73828125" xlink:href="#DejaVuSans-46"/>
       <use x="210.6328125" xlink:href="#DejaVuSans-6f"/>
       <use x="271.814453125" xlink:href="#DejaVuSans-72"/>
       <use x="312.927734375" xlink:href="#DejaVuSans-20"/>
       <use x="344.71484375" xlink:href="#DejaVuSans-54"/>
       <use x="389.298828125" xlink:href="#DejaVuSans-61"/>
       <use x="450.578125" xlink:href="#DejaVuSans-74"/>
      </g>
     </g>
    </g>
    <g id="xtick_15">
     <g id="line2d_162">
      <g>
       <use style="stroke:#000000;stroke-width:0.5;" x="518.170192308" xlink:href="#m93b0483c22" y="368.74175"/>
      </g>
     </g>
     <g id="line2d_163">
      <g>
       <use style="stroke:#000000;stroke-width:0.5;" x="518.170192308" xlink:href="#m741efc42ff" y="23.14175"/>
      </g>
     </g>
     <g id="text_15">
      <!-- Win-Stay Lose-Shift -->
      <defs>
       <path d="
M53.5156 70.5156
L53.5156 60.8906
Q47.9062 63.5781 42.9219 64.8906
Q37.9375 66.2188 33.2969 66.2188
Q25.25 66.2188 20.875 63.0938
Q16.5 59.9688 16.5 54.2031
Q16.5 49.3594 19.4062 46.8906
Q22.3125 44.4375 30.4219 42.9219
L36.375 41.7031
Q47.4062 39.5938 52.6562 34.2969
Q57.9062 29 57.9062 20.125
Q57.9062 9.51562 50.7969 4.04688
Q43.7031 -1.42188 29.9844 -1.42188
Q24.8125 -1.42188 18.9688 -0.25
Q13.1406 0.921875 6.89062 3.21875
L6.89062 13.375
Q12.8906 10.0156 18.6562 8.29688
Q24.4219 6.59375 29.9844 6.59375
Q38.4219 6.59375 43.0156 9.90625
Q47.6094 13.2344 47.6094 19.3906
Q47.6094 24.75 44.3125 27.7812
Q41.0156 30.8125 33.5 32.3281
L27.4844 33.5
Q16.4531 35.6875 11.5156 40.375
Q6.59375 45.0625 6.59375 53.4219
Q6.59375 63.0938 13.4062 68.6562
Q20.2188 74.2188 32.1719 74.2188
Q37.3125 74.2188 42.625 73.2812
Q47.9531 72.3594 53.5156 70.5156" id="DejaVuSans-53"/>
       <path d="
M3.32812 72.9062
L13.2812 72.9062
L28.6094 11.2812
L43.8906 72.9062
L54.9844 72.9062
L70.3125 11.2812
L85.5938 72.9062
L95.6094 72.9062
L77.2969 0
L64.8906 0
L49.5156 63.2812
L33.9844 0
L21.5781 0
z
" id="DejaVuSans-57"/>
       <path d="
M54.8906 33.0156
L54.8906 0
L45.9062 0
L45.9062 32.7188
Q45.9062 40.4844 42.875 44.3281
Q39.8438 48.1875 33.7969 48.1875
Q26.5156 48.1875 22.3125 43.5469
Q18.1094 38.9219 18.1094 30.9062
L18.1094 0
L9.07812 0
L9.07812 75.9844
L18.1094 75.9844
L18.1094 46.1875
Q21.3438 51.125 25.7031 53.5625
Q30.0781 56 35.7969 56
Q45.2188 56 50.0469 50.1719
Q54.8906 44.3438 54.8906 33.0156" id="DejaVuSans-68"/>
       <path d="
M9.8125 72.9062
L19.6719 72.9062
L19.6719 8.29688
L55.1719 8.29688
L55.1719 0
L9.8125 0
z
" id="DejaVuSans-4c"/>
      </defs>
      <g transform="translate(520.377692308 450.22675)rotate(-90.0)scale(0.08 -0.08)">
       <use xlink:href="#DejaVuSans-57"/>
       <use x="96.626953125" xlink:href="#DejaVuSans-69"/>
       <use x="124.41015625" xlink:href="#DejaVuSans-6e"/>
       <use x="187.7890625" xlink:href="#DejaVuSans-2d"/>
       <use x="223.873046875" xlink:href="#DejaVuSans-53"/>
       <use x="287.349609375" xlink:href="#DejaVuSans-74"/>
       <use x="326.55859375" xlink:href="#DejaVuSans-61"/>
       <use x="387.837890625" xlink:href="#DejaVuSans-79"/>
       <use x="447.017578125" xlink:href="#DejaVuSans-20"/>
       <use x="478.8046875" xlink:href="#DejaVuSans-4c"/>
       <use x="532.767578125" xlink:href="#DejaVuSans-6f"/>
       <use x="593.94921875" xlink:href="#DejaVuSans-73"/>
       <use x="646.048828125" xlink:href="#DejaVuSans-65"/>
       <use x="707.572265625" xlink:href="#DejaVuSans-2d"/>
       <use x="743.65625" xlink:href="#DejaVuSans-53"/>
       <use x="807.1328125" xlink:href="#DejaVuSans-68"/>
       <use x="870.51171875" xlink:href="#DejaVuSans-69"/>
       <use x="898.294921875" xlink:href="#DejaVuSans-66"/>
       <use x="931.75" xlink:href="#DejaVuSans-74"/>
      </g>
     </g>
    </g>
    <g id="xtick_16">
     <g id="line2d_164">
      <g>
       <use style="stroke:#000000;stroke-width:0.5;" x="552.508653846" xlink:href="#m93b0483c22" y="368.74175"/>
      </g>
     </g>
     <g id="line2d_165">
      <g>
       <use style="stroke:#000000;stroke-width:0.5;" x="552.508653846" xlink:href="#m741efc42ff" y="23.14175"/>
      </g>
     </g>
     <g id="text_16">
      <!-- Hard Tit For 2 Tats -->
      <g transform="translate(554.716153846 445.0205)rotate(-90.0)scale(0.08 -0.08)">
       <use xlink:href="#DejaVuSans-48"/>
       <use x="75.1953125" xlink:href="#DejaVuSans-61"/>
       <use x="136.474609375" xlink:href="#DejaVuSans-72"/>
       <use x="175.837890625" xlink:href="#DejaVuSans-64"/>
       <use x="239.314453125" xlink:href="#DejaVuSans-20"/>
       <use x="271.1015625" xlink:href="#DejaVuSans-54"/>
       <use x="329.060546875" xlink:href="#DejaVuSans-69"/>
       <use x="356.84375" xlink:href="#DejaVuSans-74"/>
       <use x="396.052734375" xlink:href="#DejaVuSans-20"/>
       <use x="427.83984375" xlink:href="#DejaVuSans-46"/>
       <use x="481.734375" xlink:href="#DejaVuSans-6f"/>
       <use x="542.916015625" xlink:href="#DejaVuSans-72"/>
       <use x="584.029296875" xlink:href="#DejaVuSans-20"/>
       <use x="615.81640625" xlink:href="#DejaVuSans-32"/>
       <use x="679.439453125" xlink:href="#DejaVuSans-20"/>
       <use x="711.2265625" xlink:href="#DejaVuSans-54"/>
       <use x="755.810546875" xlink:href="#DejaVuSans-61"/>
       <use x="817.08984375" xlink:href="#DejaVuSans-74"/>
       <use x="856.298828125" xlink:href="#DejaVuSans-73"/>
      </g>
     </g>
    </g>
    <g id="xtick_17">
     <g id="line2d_166">
      <g>
       <use style="stroke:#000000;stroke-width:0.5;" x="586.847115385" xlink:href="#m93b0483c22" y="368.74175"/>
      </g>
     </g>
     <g id="line2d_167">
      <g>
       <use style="stroke:#000000;stroke-width:0.5;" x="586.847115385" xlink:href="#m741efc42ff" y="23.14175"/>
      </g>
     </g>
     <g id="text_17">
      <!-- Tit For 2 Tats -->
      <g transform="translate(589.054615385 423.3555)rotate(-90.0)scale(0.08 -0.08)">
       <use xlink:href="#DejaVuSans-54"/>
       <use x="57.958984375" xlink:href="#DejaVuSans-69"/>
       <use x="85.7421875" xlink:href="#DejaVuSans-74"/>
       <use x="124.951171875" xlink:href="#DejaVuSans-20"/>
       <use x="156.73828125" xlink:href="#DejaVuSans-46"/>
       <use x="210.6328125" xlink:href="#DejaVuSans-6f"/>
       <use x="271.814453125" xlink:href="#DejaVuSans-72"/>
       <use x="312.927734375" xlink:href="#DejaVuSans-20"/>
       <use x="344.71484375" xlink:href="#DejaVuSans-32"/>
       <use x="408.337890625" xlink:href="#DejaVuSans-20"/>
       <use x="440.125" xlink:href="#DejaVuSans-54"/>
       <use x="484.708984375" xlink:href="#DejaVuSans-61"/>
       <use x="545.98828125" xlink:href="#DejaVuSans-74"/>
       <use x="585.197265625" xlink:href="#DejaVuSans-73"/>
      </g>
     </g>
    </g>
    <g id="xtick_18">
     <g id="line2d_168">
      <g>
       <use style="stroke:#000000;stroke-width:0.5;" x="621.185576923" xlink:href="#m93b0483c22" y="368.74175"/>
      </g>
     </g>
     <g id="line2d_169">
      <g>
       <use style="stroke:#000000;stroke-width:0.5;" x="621.185576923" xlink:href="#m741efc42ff" y="23.14175"/>
      </g>
     </g>
     <g id="text_18">
      <!-- GTFT: 0.33 -->
      <g transform="translate(623.393076923 414.413)rotate(-90.0)scale(0.08 -0.08)">
       <use xlink:href="#DejaVuSans-47"/>
       <use x="73.865234375" xlink:href="#DejaVuSans-54"/>
       <use x="134.94921875" xlink:href="#DejaVuSans-46"/>
       <use x="190.71875" xlink:href="#DejaVuSans-54"/>
       <use x="240.802734375" xlink:href="#DejaVuSans-3a"/>
       <use x="274.494140625" xlink:href="#DejaVuSans-20"/>
       <use x="306.28125" xlink:href="#DejaVuSans-30"/>
       <use x="369.904296875" xlink:href="#DejaVuSans-2e"/>
       <use x="401.69140625" xlink:href="#DejaVuSans-33"/>
       <use x="465.314453125" xlink:href="#DejaVuSans-33"/>
      </g>
     </g>
    </g>
    <g id="xtick_19">
     <g id="line2d_170">
      <g>
       <use style="stroke:#000000;stroke-width:0.5;" x="655.524038462" xlink:href="#m93b0483c22" y="368.74175"/>
      </g>
     </g>
     <g id="line2d_171">
      <g>
       <use style="stroke:#000000;stroke-width:0.5;" x="655.524038462" xlink:href="#m741efc42ff" y="23.14175"/>
      </g>
     </g>
     <g id="text_19">
      <!-- Cooperator -->
      <defs>
       <path d="
M18.1094 8.20312
L18.1094 -20.7969
L9.07812 -20.7969
L9.07812 54.6875
L18.1094 54.6875
L18.1094 46.3906
Q20.9531 51.2656 25.2656 53.625
Q29.5938 56 35.5938 56
Q45.5625 56 51.7812 48.0938
Q58.0156 40.1875 58.0156 27.2969
Q58.0156 14.4062 51.7812 6.48438
Q45.5625 -1.42188 35.5938 -1.42188
Q29.5938 -1.42188 25.2656 0.953125
Q20.9531 3.32812 18.1094 8.20312
M48.6875 27.2969
Q48.6875 37.2031 44.6094 42.8438
Q40.5312 48.4844 33.4062 48.4844
Q26.2656 48.4844 22.1875 42.8438
Q18.1094 37.2031 18.1094 27.2969
Q18.1094 17.3906 22.1875 11.75
Q26.2656 6.10938 33.4062 6.10938
Q40.5312 6.10938 44.6094 11.75
Q48.6875 17.3906 48.6875 27.2969" id="DejaVuSans-70"/>
      </defs>
      <g transform="translate(657.731538462 417.18175)rotate(-90.0)scale(0.08 -0.08)">
       <use xlink:href="#DejaVuSans-43"/>
       <use x="69.82421875" xlink:href="#DejaVuSans-6f"/>
       <use x="131.005859375" xlink:href="#DejaVuSans-6f"/>
       <use x="192.1875" xlink:href="#DejaVuSans-70"/>
       <use x="255.6640625" xlink:href="#DejaVuSans-65"/>
       <use x="317.1875" xlink:href="#DejaVuSans-72"/>
       <use x="358.30078125" xlink:href="#DejaVuSans-61"/>
       <use x="419.580078125" xlink:href="#DejaVuSans-74"/>
       <use x="458.7890625" xlink:href="#DejaVuSans-6f"/>
       <use x="519.970703125" xlink:href="#DejaVuSans-72"/>
      </g>
     </g>
    </g>
    <g id="xtick_20">
     <g id="line2d_172">
      <g>
       <use style="stroke:#000000;stroke-width:0.5;" x="689.8625" xlink:href="#m93b0483c22" y="368.74175"/>
      </g>
     </g>
     <g id="line2d_173">
      <g>
       <use style="stroke:#000000;stroke-width:0.5;" x="689.8625" xlink:href="#m741efc42ff" y="23.14175"/>
      </g>
     </g>
    </g>
   </g>
   <g id="matplotlib.axis_2">
    <g id="ytick_1">
     <g id="line2d_174">
      <defs>
       <path d="
M0 0
L4 0" id="m728421d6d4" style="stroke:#000000;stroke-width:0.5;"/>
      </defs>
      <g>
       <use style="stroke:#000000;stroke-width:0.5;" x="20.2625" xlink:href="#m728421d6d4" y="363.804607143"/>
      </g>
     </g>
     <g id="line2d_175">
      <defs>
       <path d="
M0 0
L-4 0" id="mcb0005524f" style="stroke:#000000;stroke-width:0.5;"/>
      </defs>
      <g>
       <use style="stroke:#000000;stroke-width:0.5;" x="689.8625" xlink:href="#mcb0005524f" y="363.804607143"/>
      </g>
     </g>
     <g id="text_20">
      <!-- 0 -->
      <g transform="translate(12.23125 366.012107143)scale(0.08 -0.08)">
       <use xlink:href="#DejaVuSans-30"/>
      </g>
     </g>
    </g>
    <g id="ytick_2">
     <g id="line2d_176">
      <g>
       <use style="stroke:#000000;stroke-width:0.5;" x="20.2625" xlink:href="#m728421d6d4" y="314.433178571"/>
      </g>
     </g>
     <g id="line2d_177">
      <g>
       <use style="stroke:#000000;stroke-width:0.5;" x="689.8625" xlink:href="#mcb0005524f" y="314.433178571"/>
      </g>
     </g>
     <g id="text_21">
      <!-- 5 -->
      <g transform="translate(12.48875 316.640678571)scale(0.08 -0.08)">
       <use xlink:href="#DejaVuSans-35"/>
      </g>
     </g>
    </g>
    <g id="ytick_3">
     <g id="line2d_178">
      <g>
       <use style="stroke:#000000;stroke-width:0.5;" x="20.2625" xlink:href="#m728421d6d4" y="265.06175"/>
      </g>
     </g>
     <g id="line2d_179">
      <g>
       <use style="stroke:#000000;stroke-width:0.5;" x="689.8625" xlink:href="#mcb0005524f" y="265.06175"/>
      </g>
     </g>
     <g id="text_22">
      <!-- 10 -->
      <defs>
       <path d="
M12.4062 8.29688
L28.5156 8.29688
L28.5156 63.9219
L10.9844 60.4062
L10.9844 69.3906
L28.4219 72.9062
L38.2812 72.9062
L38.2812 8.29688
L54.3906 8.29688
L54.3906 0
L12.4062 0
z
" id="DejaVuSans-31"/>
      </defs>
      <g transform="translate(7.4925 267.26925)scale(0.08 -0.08)">
       <use xlink:href="#DejaVuSans-31"/>
       <use x="63.623046875" xlink:href="#DejaVuSans-30"/>
      </g>
     </g>
    </g>
    <g id="ytick_4">
     <g id="line2d_180">
      <g>
       <use style="stroke:#000000;stroke-width:0.5;" x="20.2625" xlink:href="#m728421d6d4" y="215.690321429"/>
      </g>
     </g>
     <g id="line2d_181">
      <g>
       <use style="stroke:#000000;stroke-width:0.5;" x="689.8625" xlink:href="#mcb0005524f" y="215.690321429"/>
      </g>
     </g>
     <g id="text_23">
      <!-- 15 -->
      <g transform="translate(7.66 217.897821429)scale(0.08 -0.08)">
       <use xlink:href="#DejaVuSans-31"/>
       <use x="63.623046875" xlink:href="#DejaVuSans-35"/>
      </g>
     </g>
    </g>
    <g id="ytick_5">
     <g id="line2d_182">
      <g>
       <use style="stroke:#000000;stroke-width:0.5;" x="20.2625" xlink:href="#m728421d6d4" y="166.318892857"/>
      </g>
     </g>
     <g id="line2d_183">
      <g>
       <use style="stroke:#000000;stroke-width:0.5;" x="689.8625" xlink:href="#mcb0005524f" y="166.318892857"/>
      </g>
     </g>
     <g id="text_24">
      <!-- 20 -->
      <g transform="translate(7.2 168.526392857)scale(0.08 -0.08)">
       <use xlink:href="#DejaVuSans-32"/>
       <use x="63.623046875" xlink:href="#DejaVuSans-30"/>
      </g>
     </g>
    </g>
    <g id="ytick_6">
     <g id="line2d_184">
      <g>
       <use style="stroke:#000000;stroke-width:0.5;" x="20.2625" xlink:href="#m728421d6d4" y="116.947464286"/>
      </g>
     </g>
     <g id="line2d_185">
      <g>
       <use style="stroke:#000000;stroke-width:0.5;" x="689.8625" xlink:href="#mcb0005524f" y="116.947464286"/>
      </g>
     </g>
     <g id="text_25">
      <!-- 25 -->
      <g transform="translate(7.3675 119.154964286)scale(0.08 -0.08)">
       <use xlink:href="#DejaVuSans-32"/>
       <use x="63.623046875" xlink:href="#DejaVuSans-35"/>
      </g>
     </g>
    </g>
    <g id="ytick_7">
     <g id="line2d_186">
      <g>
       <use style="stroke:#000000;stroke-width:0.5;" x="20.2625" xlink:href="#m728421d6d4" y="67.5760357143"/>
      </g>
     </g>
     <g id="line2d_187">
      <g>
       <use style="stroke:#000000;stroke-width:0.5;" x="689.8625" xlink:href="#mcb0005524f" y="67.5760357143"/>
      </g>
     </g>
     <g id="text_26">
      <!-- 30 -->
      <g transform="translate(7.22375 69.7835357143)scale(0.08 -0.08)">
       <use xlink:href="#DejaVuSans-33"/>
       <use x="63.623046875" xlink:href="#DejaVuSans-30"/>
      </g>
     </g>
    </g>
   </g>
   <g id="text_27">
    <!-- Distributions of wins: 200 turns repeated 500 times (19 strategies) -->
    <defs>
     <path d="
M4.20312 54.6875
L13.1875 54.6875
L24.4219 12.0156
L35.5938 54.6875
L46.1875 54.6875
L57.4219 12.0156
L68.6094 54.6875
L77.5938 54.6875
L63.2812 0
L52.6875 0
L40.9219 44.8281
L29.1094 0
L18.5 0
z
" id="DejaVuSans-77"/>
     <path d="
M8.01562 75.875
L15.8281 75.875
Q23.1406 64.3594 26.7812 53.3125
Q30.4219 42.2812 30.4219 31.3906
Q30.4219 20.4531 26.7812 9.375
Q23.1406 -1.70312 15.8281 -13.1875
L8.01562 -13.1875
Q14.5 -2 17.7031 9.0625
Q20.9062 20.125 20.9062 31.3906
Q20.9062 42.6719 17.7031 53.6562
Q14.5 64.6562 8.01562 75.875" id="DejaVuSans-29"/>
     <path d="
M31 75.875
Q24.4688 64.6562 21.2812 53.6562
Q18.1094 42.6719 18.1094 31.3906
Q18.1094 20.125 21.3125 9.0625
Q24.5156 -2 31 -13.1875
L23.1875 -13.1875
Q15.875 -1.70312 12.2344 9.375
Q8.59375 20.4531 8.59375 31.3906
Q8.59375 42.2812 12.2031 53.3125
Q15.8281 64.3594 23.1875 75.875
z
" id="DejaVuSans-28"/>
    </defs>
    <g transform="translate(114.533 18.14175)scale(0.144 -0.144)">
     <use xlink:href="#DejaVuSans-44"/>
     <use x="77.001953125" xlink:href="#DejaVuSans-69"/>
     <use x="104.78515625" xlink:href="#DejaVuSans-73"/>
     <use x="156.884765625" xlink:href="#DejaVuSans-74"/>
     <use x="196.09375" xlink:href="#DejaVuSans-72"/>
     <use x="237.20703125" xlink:href="#DejaVuSans-69"/>
     <use x="264.990234375" xlink:href="#DejaVuSans-62"/>
     <use x="328.466796875" xlink:href="#DejaVuSans-75"/>
     <use x="391.845703125" xlink:href="#DejaVuSans-74"/>
     <use x="431.0546875" xlink:href="#DejaVuSans-69"/>
     <use x="458.837890625" xlink:href="#DejaVuSans-6f"/>
     <use x="520.01953125" xlink:href="#DejaVuSans-6e"/>
     <use x="583.3984375" xlink:href="#DejaVuSans-73"/>
     <use x="635.498046875" xlink:href="#DejaVuSans-20"/>
     <use x="667.28515625" xlink:href="#DejaVuSans-6f"/>
     <use x="728.466796875" xlink:href="#DejaVuSans-66"/>
     <use x="763.671875" xlink:href="#DejaVuSans-20"/>
     <use x="795.458984375" xlink:href="#DejaVuSans-77"/>
     <use x="877.24609375" xlink:href="#DejaVuSans-69"/>
     <use x="905.029296875" xlink:href="#DejaVuSans-6e"/>
     <use x="968.408203125" xlink:href="#DejaVuSans-73"/>
     <use x="1020.5078125" xlink:href="#DejaVuSans-3a"/>
     <use x="1054.19921875" xlink:href="#DejaVuSans-20"/>
     <use x="1085.98632812" xlink:href="#DejaVuSans-32"/>
     <use x="1149.609375" xlink:href="#DejaVuSans-30"/>
     <use x="1213.23242188" xlink:href="#DejaVuSans-30"/>
     <use x="1276.85546875" xlink:href="#DejaVuSans-20"/>
     <use x="1308.64257812" xlink:href="#DejaVuSans-74"/>
     <use x="1347.8515625" xlink:href="#DejaVuSans-75"/>
     <use x="1411.23046875" xlink:href="#DejaVuSans-72"/>
     <use x="1450.59375" xlink:href="#DejaVuSans-6e"/>
     <use x="1513.97265625" xlink:href="#DejaVuSans-73"/>
     <use x="1566.07226562" xlink:href="#DejaVuSans-20"/>
     <use x="1597.859375" xlink:href="#DejaVuSans-72"/>
     <use x="1636.72265625" xlink:href="#DejaVuSans-65"/>
     <use x="1698.24609375" xlink:href="#DejaVuSans-70"/>
     <use x="1761.72265625" xlink:href="#DejaVuSans-65"/>
     <use x="1823.24609375" xlink:href="#DejaVuSans-61"/>
     <use x="1884.52539062" xlink:href="#DejaVuSans-74"/>
     <use x="1923.734375" xlink:href="#DejaVuSans-65"/>
     <use x="1985.2578125" xlink:href="#DejaVuSans-64"/>
     <use x="2048.734375" xlink:href="#DejaVuSans-20"/>
     <use x="2080.52148438" xlink:href="#DejaVuSans-35"/>
     <use x="2144.14453125" xlink:href="#DejaVuSans-30"/>
     <use x="2207.76757812" xlink:href="#DejaVuSans-30"/>
     <use x="2271.390625" xlink:href="#DejaVuSans-20"/>
     <use x="2303.17773438" xlink:href="#DejaVuSans-74"/>
     <use x="2342.38671875" xlink:href="#DejaVuSans-69"/>
     <use x="2370.16992188" xlink:href="#DejaVuSans-6d"/>
     <use x="2467.58203125" xlink:href="#DejaVuSans-65"/>
     <use x="2529.10546875" xlink:href="#DejaVuSans-73"/>
     <use x="2581.20507812" xlink:href="#DejaVuSans-20"/>
     <use x="2612.9921875" xlink:href="#DejaVuSans-28"/>
     <use x="2652.00585938" xlink:href="#DejaVuSans-31"/>
     <use x="2715.62890625" xlink:href="#DejaVuSans-39"/>
     <use x="2779.25195312" xlink:href="#DejaVuSans-20"/>
     <use x="2811.0390625" xlink:href="#DejaVuSans-73"/>
     <use x="2863.13867188" xlink:href="#DejaVuSans-74"/>
     <use x="2902.34765625" xlink:href="#DejaVuSans-72"/>
     <use x="2943.4609375" xlink:href="#DejaVuSans-61"/>
     <use x="3004.74023438" xlink:href="#DejaVuSans-74"/>
     <use x="3043.94921875" xlink:href="#DejaVuSans-65"/>
     <use x="3105.47265625" xlink:href="#DejaVuSans-67"/>
     <use x="3168.94921875" xlink:href="#DejaVuSans-69"/>
     <use x="3196.73242188" xlink:href="#DejaVuSans-65"/>
     <use x="3258.25585938" xlink:href="#DejaVuSans-73"/>
     <use x="3310.35546875" xlink:href="#DejaVuSans-29"/>
    </g>
   </g>
  </g>
 </g>
 <defs>
  <clipPath id="p6c5008eb1f">
   <rect height="345.6" width="669.6" x="20.2625" y="23.14175"/>
  </clipPath>
 </defs>
</svg>
